<svg width="24" height="24" viewBox="0 0 24 24" fill="none" xmlns="http://www.w3.org/2000/svg">
<path fill-rule="evenodd" clip-rule="evenodd" d="M22.7071 11.2929C22.803 11.3888 22.8753 11.4993 22.9241 11.6172L22.7071 12.7071L22.7067 12.7075L18.7071 16.7071C18.3166 17.0976 17.6834 17.0976 17.2929 16.7071C16.9024 16.3166 16.9024 15.6834 17.2929 15.2929L19.5858 13H9C8.44771 13 8 12.5523 8 12C8 11.4477 8.44771 11 9 11H19.5858L17.2929 8.70711C16.9024 8.31658 16.9024 7.68342 17.2929 7.29289C17.6834 6.90237 18.3166 6.90237 18.7071 7.29289L22.7071 11.2929ZM22.9241 11.6172L22.7092 12.705C22.8889 12.5242 23 12.2751 23 12C23 11.8644 22.973 11.7351 22.9241 11.6172ZM3 6C3 5.44772 2.55228 5 2 5C1.44772 5 1 5.44772 1 6V18C1 18.5523 1.44772 19 2 19C2.55228 19 3 18.5523 3 18V6Z" fill="black"/>
</svg>
