<svg width="24" height="24" viewBox="0 0 24 24" fill="none" xmlns="http://www.w3.org/2000/svg">
<path fill-rule="evenodd" clip-rule="evenodd" d="M1.29289 12.7071C1.19702 12.6112 1.12468 12.5007 1.07588 12.3828L1.29289 11.2929L1.29329 11.2925L5.29289 7.29289C5.68342 6.90237 6.31658 6.90237 6.70711 7.29289C7.09763 7.68342 7.09763 8.31658 6.70711 8.70711L4.41421 11H15C15.5523 11 16 11.4477 16 12C16 12.5523 15.5523 13 15 13H4.41421L6.70711 15.2929C7.09763 15.6834 7.09763 16.3166 6.70711 16.7071C6.31658 17.0976 5.68342 17.0976 5.29289 16.7071L1.29289 12.7071ZM1.07588 12.3828L1.29078 11.295C1.11106 11.4758 1 11.7249 1 12C1 12.1356 1.02699 12.2649 1.07588 12.3828ZM21 18C21 18.5523 21.4477 19 22 19C22.5523 19 23 18.5523 23 18V6C23 5.44771 22.5523 5 22 5C21.4477 5 21 5.44771 21 6V18Z" fill="black"/>
</svg>
