<svg width="20" height="20" viewBox="0 0 20 20" fill="none" xmlns="http://www.w3.org/2000/svg">
<path fill-rule="evenodd" clip-rule="evenodd" d="M18 8.38582C18 7.50212 17.2832 6.78346 16.4 6.78346H13.9088C14.2696 6.59518 14.6112 6.36524 14.8968 6.08002C15.832 5.14344 15.832 3.61879 14.8968 2.6798C13.9888 1.77367 12.4112 1.77286 11.5032 2.6806C10.1936 3.99214 10.0176 6.46058 10.0016 6.73779C10.0007 6.74622 10.0026 6.75398 10.0045 6.76178L10.0046 6.76252C10.0063 6.76931 10.008 6.77613 10.008 6.78346H9.992C9.992 6.77621 9.9936 6.76944 9.99528 6.76266C9.99728 6.75444 9.99928 6.7462 9.9984 6.73699C9.9832 6.45978 9.8064 3.99134 8.4968 2.6798C7.5888 1.77367 6.0096 1.77367 5.1032 2.68141C4.1672 3.61799 4.1672 5.14264 5.1032 6.08002C5.3888 6.36524 5.7304 6.59518 6.0912 6.78346H3.6C2.7176 6.78346 2 7.50212 2 8.38582V9.98818H18V8.38582ZM4.4 18C3.5176 18 2.8 17.2813 2.8 16.3976V11.5905H9.2V18H4.4ZM17.2 16.3976C17.2 17.2813 16.4832 18 15.6 18H10.8V11.5905H17.2V16.3976Z" fill="#B9BBBE"/>
</svg>
