<svg width="20" height="20" viewBox="0 0 20 20" fill="none" xmlns="http://www.w3.org/2000/svg">
<path fill-rule="evenodd" clip-rule="evenodd" d="M2.46863 2.49284C2.76869 2.20709 3.17565 2.04655 3.6 2.04655H10V6.13014C10.0063 7.05371 10.3943 7.93776 11.0801 8.59084C11.7659 9.24393 12.6942 9.61348 13.664 9.61947H18V15.7144C18 16.1185 17.8314 16.5061 17.5314 16.7918C17.2313 17.0776 16.8243 17.2381 16.4 17.2381H3.6C3.17565 17.2381 2.76869 17.0776 2.46863 16.7918C2.16857 16.5061 2 16.1185 2 15.7144V3.57028C2 3.16616 2.16857 2.77859 2.46863 2.49284ZM7.73532 13.0665C8.23491 13.5422 8.91251 13.8095 9.61905 13.8095C10.3256 13.8095 11.0032 13.5422 11.5028 13.0665C12.0024 12.5907 12.283 11.9454 12.283 11.2725H11.219C11.219 11.6766 11.0505 12.0642 10.7504 12.35C10.4504 12.6357 10.0434 12.7962 9.61905 12.7962C9.1947 12.7962 8.78773 12.6357 8.48768 12.35C8.18762 12.0642 8.01905 11.6766 8.01905 11.2725H6.95505C6.95505 11.9454 7.23572 12.5907 7.73532 13.0665ZM11.6855 2.22299C11.628 2.30623 11.5982 2.40405 11.6 2.50367V6.1149C11.5989 6.37531 11.652 6.63334 11.7562 6.87412C11.8603 7.11491 12.0135 7.33367 12.2069 7.51781C12.4002 7.70195 12.6299 7.84782 12.8828 7.94701C13.1356 8.0462 13.4066 8.09675 13.68 8.09574H17.472C17.5756 8.09525 17.6767 8.06577 17.7628 8.01096C17.8489 7.95615 17.9162 7.87843 17.9562 7.78749C17.9963 7.69654 18.0074 7.59638 17.9882 7.49947C17.9689 7.40256 17.9202 7.31318 17.848 7.24245L12.496 2.15321C12.4237 2.08115 12.3303 2.03152 12.228 2.01082C12.1257 1.99011 12.0191 1.99928 11.9224 2.03713C11.8256 2.07499 11.743 2.13976 11.6855 2.22299ZM4.37767 12.9958C4.98709 12.9958 5.48112 12.5253 5.48112 11.9449C5.48112 11.3645 4.98709 10.8941 4.37767 10.8941C3.76825 10.8941 3.27422 11.3645 3.27422 11.9449C3.27422 12.5253 3.76825 12.9958 4.37767 12.9958ZM15.9639 11.9449C15.9639 12.5253 15.4698 12.9958 14.8604 12.9958C14.251 12.9958 13.757 12.5253 13.757 11.9449C13.757 11.3645 14.251 10.8941 14.8604 10.8941C15.4698 10.8941 15.9639 11.3645 15.9639 11.9449Z" fill="#B9BBBE"/>
</svg>
