<svg width="24" height="24" viewBox="0 0 24 24" fill="none" xmlns="http://www.w3.org/2000/svg">
<path fill-rule="evenodd" clip-rule="evenodd" d="M11.8783 3.80083C11.9187 3.76343 11.9617 3.75 12 3.75C12.0383 3.75 12.0813 3.76343 12.1217 3.80083L20.1671 11.2506C20.2147 11.2946 20.25 11.367 20.25 11.4524V19.9974C20.25 20.1721 20.1241 20.25 20.0455 20.25H14.8929V15.7507C14.8929 14.1285 13.632 12.7498 12 12.7498C10.368 12.7498 9.10714 14.1285 9.10714 15.7507V20.25H3.95455C3.8759 20.25 3.75 20.1721 3.75 19.9974V11.4524C3.75 11.367 3.78533 11.2946 3.83289 11.2506L11.8783 3.80083ZM13.1408 2.70021C12.4925 2.09993 11.5075 2.09993 10.8592 2.70021L2.81376 10.15L3.32333 10.7003L2.81376 10.15C2.45021 10.4866 2.25 10.9621 2.25 11.4524V19.9974C2.25 20.9301 2.97883 21.75 3.95455 21.75H9.85714H10.6071V21V15.7507C10.6071 14.8866 11.2651 14.2498 12 14.2498C12.7349 14.2498 13.3929 14.8866 13.3929 15.7507V21V21.75H14.1429H20.0455C21.0212 21.75 21.75 20.9301 21.75 19.9974V11.4524C21.75 10.9621 21.5498 10.4866 21.1862 10.15L13.1408 2.70021Z" fill="black"/>
</svg>
