<svg width="24" height="24" viewBox="0 0 24 24" fill="none" xmlns="http://www.w3.org/2000/svg">
<path fill-rule="evenodd" clip-rule="evenodd" d="M5.00781 9.00391C5.00781 5.14791 8.144 2.00977 12 2.00977C15.856 2.00977 18.9922 5.14691 18.9922 9.00391C18.9922 13.4869 13.0255 20.7682 12.7715 21.0762L12 22.0117L11.2285 21.0762C10.9745 20.7692 5.00781 13.4869 5.00781 9.00391ZM16.9922 9.00391C16.9922 6.25091 14.753 4.00977 12 4.00977C9.247 4.00977 7.00781 6.25091 7.00781 9.00391C7.00781 11.7129 10.122 16.3632 12 18.8262C13.878 16.3612 16.9922 11.7089 16.9922 9.00391ZM9.5 9C9.5 7.619 10.619 6.5 12 6.5C13.381 6.5 14.5 7.619 14.5 9C14.5 10.381 13.381 11.5 12 11.5C10.619 11.5 9.5 10.381 9.5 9Z" fill="white"/>
</svg>
