<svg width="24" height="24" viewBox="0 0 24 24" fill="none" xmlns="http://www.w3.org/2000/svg">
<path fill-rule="evenodd" clip-rule="evenodd" d="M6 7C6 3.67619 8.67619 1 12 1C15.3238 1 18 3.67619 18 7V8C19.0931 8 20 8.90694 20 10V20C20 21.0931 19.0931 22 18 22H6C4.90694 22 4 21.0931 4 20V10C4 8.90694 4.90694 8 6 8V7ZM16 7C16 4.72381 14.2762 3 12 3C9.72381 3 8 4.72381 8 7V8H16V7ZM10 15C10 13.9 10.9 13 12 13C13.1 13 14 13.9 14 15C14 16.1 13.1 17 12 17C10.9 17 10 16.1 10 15ZM18 10H6V20H18V10Z" fill="white"/>
</svg>
