<svg width="24" height="24" viewBox="0 0 24 24" fill="none" xmlns="http://www.w3.org/2000/svg">
<path fill-rule="evenodd" clip-rule="evenodd" d="M1.00391 2.01367L4.41406 1.99609L5.25 4H19.998C20.352 4 20.6813 4.18719 20.8613 4.49219C21.0413 4.79819 21.046 5.17633 20.873 5.48633L17.2695 11.9707C16.9175 12.6047 16.2485 13 15.5215 13H8.05273L6.87695 14.8828L6.94141 15H19V17H6.94141C6.18741 17 5.49295 16.5906 5.12695 15.9316C4.76095 15.2726 4.78164 14.4642 5.18164 13.8242L6.37891 11.9082L3.08398 4.00391L1.01367 4.01367L1.00391 2.01367ZM15.5215 11L18.2988 6H6.08203L8.16602 11H15.5215ZM5.58579 18.5858C5.96086 18.2107 6.46957 18 7 18C7.53043 18 8.03914 18.2107 8.41421 18.5858C8.78929 18.9609 9 19.4696 9 20C9 20.5304 8.78929 21.0391 8.41421 21.4142C8.03914 21.7893 7.53043 22 7 22C6.46957 22 5.96086 21.7893 5.58579 21.4142C5.21071 21.0391 5 20.5304 5 20C5 19.4696 5.21071 18.9609 5.58579 18.5858ZM15.5858 18.5858C15.9609 18.2107 16.4696 18 17 18C17.5304 18 18.0391 18.2107 18.4142 18.5858C18.7893 18.9609 19 19.4696 19 20C19 20.5304 18.7893 21.0391 18.4142 21.4142C18.0391 21.7893 17.5304 22 17 22C16.4696 22 15.9609 21.7893 15.5858 21.4142C15.2107 21.0391 15 20.5304 15 20C15 19.4696 15.2107 18.9609 15.5858 18.5858Z" fill="white"/>
</svg>
