<svg width="24" height="24" viewBox="0 0 24 24" fill="none" xmlns="http://www.w3.org/2000/svg">
<path fill-rule="evenodd" clip-rule="evenodd" d="M14.7461 8.59291C14.8131 8.78591 14.9951 8.91591 15.1991 8.91591H21.9831C22.4411 8.91591 22.6381 9.49591 22.2791 9.77291L16.8851 13.9379C16.7281 14.0589 16.6621 14.2639 16.7181 14.4539L18.6591 21.0299C18.7861 21.4639 18.2991 21.8169 17.9271 21.5619L12.2731 17.6849C12.1091 17.5729 11.8941 17.5729 11.7301 17.6849L6.07606 21.5619C5.70306 21.8179 5.21606 21.4639 5.34406 21.0309L7.28506 14.4549C7.34106 14.2649 7.27406 14.0599 7.11706 13.9389L1.72506 9.79391C1.36206 9.51491 1.55806 8.93491 2.01606 8.93391L8.80206 8.91691C9.00606 8.91691 9.18706 8.78691 9.25406 8.59391L11.5471 1.97191C11.6961 1.54191 12.3051 1.54191 12.4541 1.97191L14.7461 8.59291Z" fill="white"/>
</svg>
