<svg width="24" height="24" viewBox="0 0 24 24" fill="none" xmlns="http://www.w3.org/2000/svg">
<path fill-rule="evenodd" clip-rule="evenodd" d="M12 2.25C6.61522 2.25 2.25 6.61522 2.25 12C2.25 17.3848 6.61522 21.75 12 21.75C13.7882 21.75 15.4658 21.2679 16.9077 20.4265L20.7628 21.7115C21.0323 21.8013 21.3295 21.7312 21.5303 21.5303C21.7312 21.3294 21.8013 21.0323 21.7115 20.7628L20.4265 16.9077C21.268 15.4658 21.75 13.7882 21.75 12C21.75 6.61522 17.3848 2.25 12 2.25ZM3.75 12C3.75 7.44365 7.44365 3.75 12 3.75C16.5563 3.75 20.25 7.44365 20.25 12C20.25 13.6246 19.7812 15.1374 18.9717 16.4132C18.8509 16.6036 18.8222 16.8383 18.8935 17.0522L19.8141 19.8141L17.0522 18.8935C16.8383 18.8222 16.6037 18.8509 16.4133 18.9717C15.1374 19.7812 13.6246 20.25 12 20.25C7.44365 20.25 3.75 16.5563 3.75 12Z" fill="black"/>
</svg>
