<svg width="24" height="24" viewBox="0 0 24 24" fill="none" xmlns="http://www.w3.org/2000/svg">
<g id="Property 1=Species">
<path id="Union" fill-rule="evenodd" clip-rule="evenodd" d="M13.7322 2.73223C14.2011 2.26339 14.837 2 15.5 2C16.163 2 16.7989 2.26339 17.2678 2.73223C17.7366 3.20107 18 3.83696 18 4.5C18 4.8283 17.9353 5.15339 17.8097 5.45671C17.6841 5.76002 17.4999 6.03562 17.2678 6.26777C17.0356 6.49991 16.76 6.68406 16.4567 6.8097C16.1534 6.93534 15.8283 7 15.5 7C15.3935 6.99898 15.2872 6.99115 15.1816 6.97656L13.8457 9.20312C14.2759 9.6407 14.5926 10.1803 14.7871 10.7754L17.1562 10.6367C17.3328 10.157 17.652 9.74296 18.0711 9.45032C18.4902 9.15767 18.9889 9.0005 19.5 9C20.163 9 20.7989 9.26339 21.2678 9.73223C21.7366 10.2011 22 10.837 22 11.5C22 12.163 21.7366 12.7989 21.2678 13.2678C20.7989 13.7366 20.163 14 19.5 14C19.0389 13.9996 18.5869 13.8717 18.1939 13.6304C17.8009 13.3891 17.4824 13.0439 17.2734 12.6328L14.9219 12.7715C14.7922 13.4255 14.4904 14.0126 14.082 14.5117L15.9531 17.0625C16.1326 17.0216 16.316 17.0006 16.5 17C17.163 17 17.7989 17.2634 18.2678 17.7322C18.7366 18.2011 19 18.837 19 19.5C19 20.163 18.7366 20.7989 18.2678 21.2678C17.7989 21.7366 17.163 22 16.5 22C15.837 22 15.2011 21.7366 14.7322 21.2678C14.2634 20.7989 14 20.163 14 19.5C14.0008 19.0594 14.118 18.6268 14.3398 18.2461L12.4785 15.707C12.0198 15.8917 11.5221 16 11 16C10.3882 16 9.81322 15.8488 9.29297 15.5996L7.74609 17.4102C7.91199 17.7496 7.9988 18.1222 8 18.5C8 19.163 7.73661 19.7989 7.26777 20.2678C6.79893 20.7366 6.16304 21 5.5 21C4.83696 21 4.20107 20.7366 3.73223 20.2678C3.26339 19.7989 3 19.163 3 18.5C3 17.837 3.26339 17.2011 3.73223 16.7322C4.20107 16.2634 4.83696 16 5.5 16C5.74635 16.0011 5.99118 16.0386 6.22656 16.1113L7.75586 14.3164C7.28442 13.6602 7 12.8636 7 12C7 11.1434 7.27959 10.3525 7.74414 9.69922L6.21484 7.89453C5.98293 7.96412 5.74213 7.99965 5.5 8C4.83696 8 4.20107 7.73661 3.73223 7.26777C3.26339 6.79893 3 6.16304 3 5.5C3 4.83696 3.26339 4.20107 3.73223 3.73223C4.20107 3.26339 4.83696 3 5.5 3C6.16304 3 6.79893 3.26339 7.26777 3.73223C7.73661 4.20107 8 4.83696 8 5.5C7.99966 5.88272 7.91146 6.26026 7.74219 6.60352L9.27344 8.41211C9.79894 8.15673 10.3801 8 11 8C11.3928 8 11.7655 8.07644 12.125 8.18359L13.4648 5.94922C13.163 5.5262 13.0006 5.01964 13 4.5C13 3.83696 13.2634 3.20107 13.7322 2.73223ZM13 12C13 10.8836 12.1164 10 11 10C9.88359 10 9 10.8836 9 12C9 13.1164 9.88359 14 11 14C12.1164 14 13 13.1164 13 12Z" fill="#202020"/>
</g>
</svg>
