<svg width="24" height="24" viewBox="0 0 24 24" fill="none" xmlns="http://www.w3.org/2000/svg">
<g id="Property 1=Money">
<path id="Union" fill-rule="evenodd" clip-rule="evenodd" d="M2 10C2 5.582 5.582 2 10 2C14.418 2 18 5.582 18 10C18 14.418 14.418 18 10 18C5.582 18 2 14.418 2 10ZM10.7227 4.10156C10.7227 3.82456 10.4977 3.59961 10.2207 3.59961H10.2148C9.93784 3.59961 9.71289 3.82456 9.71289 4.10156V5.0293C9.37389 5.0723 7.47656 5.42875 7.47656 7.71875C7.47656 9.5577 8.5245 10.0851 9.46676 10.5594C10.2364 10.9468 10.9355 11.2987 10.9355 12.3008C10.9355 13.4168 10.2134 13.4434 10.0664 13.4434C10.0621 13.4434 10.0569 13.4434 10.0511 13.4435C9.90199 13.4456 9.2815 13.4545 9.10156 12.4336C9.03656 12.0626 8.68855 11.8066 8.31055 11.8066H8.04883C7.55383 11.8066 7.15109 12.2513 7.24609 12.7363C7.63281 14.7081 9.22929 14.9242 9.55322 14.9681C9.56016 14.969 9.56652 14.9699 9.57227 14.9707V15.8008C9.57227 16.0778 9.79722 16.3008 10.0742 16.3008C10.3512 16.3008 10.5742 16.0778 10.5742 15.8008V14.9707C10.9122 14.9287 12.8242 14.6132 12.8242 12.2852C12.8242 10.4881 11.7371 9.89154 10.7821 9.36744C10.0339 8.95681 9.36675 8.59069 9.36719 7.72656C9.36719 6.59956 9.98709 6.56445 10.1211 6.56445C10.3171 6.56445 10.7297 6.70489 10.8867 7.46289C10.9677 7.85689 11.2855 8.1543 11.6875 8.1543H11.9453C12.4693 8.1543 12.8503 7.66044 12.7363 7.14844C12.3513 5.41544 10.9967 5.10964 10.7227 5.05664V4.10156ZM20 10C20 9.524 19.9546 9.05861 19.8906 8.59961C21.1956 10.0236 22 11.916 22 14C22 18.418 18.418 22 14 22C11.916 22 10.0236 21.1956 8.59961 19.8906C9.05861 19.9546 9.524 20 10 20C15.523 20 20 15.523 20 10Z" fill="#202020"/>
</g>
</svg>
