<svg width="24" height="24" viewBox="0 0 24 24" fill="none" xmlns="http://www.w3.org/2000/svg">
<g id="Property 1=Heart">
<path id="Union" fill-rule="evenodd" clip-rule="evenodd" d="M12 5.09002C12 5.09002 13.515 3.11702 16.256 3.00502C18.094 2.93002 19.779 3.84502 20.888 5.31202C24.4829 10.0618 18.3994 15.5623 16.1514 17.5948C15.9837 17.7464 15.8374 17.8788 15.718 17.99C14.689 18.949 13.419 20.088 12.661 20.763C12.282 21.101 11.717 21.101 11.338 20.763C10.58 20.088 9.31001 18.949 8.28101 17.99C8.16172 17.8788 8.01552 17.7466 7.84802 17.5952C5.60048 15.5629 -0.483127 10.062 3.11101 5.31202C4.22101 3.84502 5.90601 2.93002 7.74401 3.00502C10.485 3.11702 12 5.09002 12 5.09002Z" fill="#202020"/>
</g>
</svg>
