<svg width="24" height="24" viewBox="0 0 24 24" fill="none" xmlns="http://www.w3.org/2000/svg">
<g id="Property 1=Gender">
<path id="Union" fill-rule="evenodd" clip-rule="evenodd" d="M8 7C8 4.80271 9.80271 3 12 3C14.1973 3 16 4.80271 16 7C16 9.19729 14.1973 11 12 11C9.80271 11 8 9.19729 8 7ZM14 7C14 5.88359 13.1164 5 12 5C10.8836 5 10 5.88359 10 7C10 8.11641 10.8836 9 12 9C13.1164 9 14 8.11641 14 7ZM6.44922 15.0957C8.18716 14.4098 10.255 14 12 14C13.745 14 15.8128 14.4098 17.5508 15.0957C18.4198 15.4387 19.2053 15.846 19.834 16.3691C20.4627 16.8922 21 17.5994 21 18.5V20V21H3V18.5C3 17.5994 3.53734 16.8922 4.16602 16.3691C4.7947 15.846 5.58025 15.4387 6.44922 15.0957ZM16.8184 16.9551C15.3461 16.374 13.414 16 12 16C10.586 16 8.65395 16.374 7.18164 16.9551C6.44549 17.2456 5.82304 17.592 5.44531 17.9062C5.06759 18.2205 5 18.4346 5 18.5V19H19V18.5C19 18.4346 18.9324 18.2205 18.5547 17.9062C18.177 17.592 17.5545 17.2456 16.8184 16.9551Z" fill="#202020"/>
</g>
</svg>
