<svg width="24" height="24" viewBox="0 0 24 24" fill="none" xmlns="http://www.w3.org/2000/svg">
<g id="Property 1=Origin">
<path id="Union" fill-rule="evenodd" clip-rule="evenodd" d="M16 4C16 1.791 17.791 0 20 0C22.209 0 24 1.791 24 4C24 6.857 20 11 20 11C20 11 16 6.857 16 4ZM2 12C2 6.486 6.486 2 12 2C12.777 2 13.5308 2.09858 14.2578 2.26758C14.0908 2.81658 14 3.397 14 4H12C8.977 4 6.34047 5.68697 4.98047 8.16797L7 10.1855V9C7 8.447 7.448 8 8 8H9V6.03125C9 5.48225 9.44319 5.03525 9.99219 5.03125L14.1035 5C14.1875 5.445 14.3145 5.89389 14.4805 6.33789C14.1175 6.74289 13.5986 7.00381 13.0156 7.00781L11 7.02344V9C11 9.553 10.552 10 10 10H9V12H15C15.552 12 16 12.447 16 13V15H17C17.806 15 18.4985 15.4819 18.8145 16.1699C19.1695 15.5919 19.4484 14.9657 19.6504 14.3047L21.4395 12.3887C21.5575 12.2677 21.7532 12.059 21.9902 11.793C21.9907 11.8253 21.9929 11.8574 21.995 11.8895C21.9975 11.9261 22 11.9628 22 12C22 17.514 17.514 22 12 22C6.486 22 2 17.514 2 12ZM21.4297 4C21.4297 3.211 20.789 2.57031 20 2.57031C19.211 2.57031 18.5703 3.211 18.5703 4C18.5703 4.789 19.211 5.42969 20 5.42969C20.789 5.42969 21.4297 4.789 21.4297 4ZM9 15.0137L4.20703 10.2207C4.07603 10.7947 4 11.388 4 12C4 16.072 7.06 19.4366 11 19.9316V18C9.897 18 9 17.103 9 16V15.0137ZM15 17C14.448 17 14 16.553 14 16V14H10.7793C10.9123 14.174 11 14.3776 11 14.5996V16H12C12.552 16 13 16.447 13 17V19.9297C14.502 19.7417 15.875 19.1384 17 18.2344V17H15Z" fill="#202020"/>
</g>
</svg>
