<svg width="18" height="18" viewBox="0 0 18 18" fill="none" xmlns="http://www.w3.org/2000/svg">
<path fill-rule="evenodd" clip-rule="evenodd" d="M6.75 18C3.023 18 0 16.991 0 15.75V14.249C1.452 15.272 4.106 15.75 6.75 15.75C9.394 15.75 12.048 15.272 13.5 14.249V15.75C13.5 16.991 10.477 18 6.75 18ZM18 2.25C18 3.491 14.977 4.5 11.25 4.5C7.523 4.5 4.5 3.491 4.5 2.25C4.5 1.009 7.523 0 11.25 0C14.977 0 18 1.009 18 2.25ZM6.75 14.625C3.023 14.625 0 13.616 0 12.375V10.561C1.452 11.756 4.11 12.375 6.75 12.375C9.39 12.375 12.048 11.756 13.5 10.561V12.375C13.5 13.616 10.477 14.625 6.75 14.625ZM18 9C18 9.833 16.639 10.558 14.625 10.948V8.712C15.986 8.469 17.184 8.075 18 7.499V9ZM0 8.438C0 6.884 3.023 5.625 6.75 5.625C10.477 5.625 13.5 6.884 13.5 8.437C13.5 9.991 10.477 11.25 6.75 11.25C3.023 11.25 0 9.99 0 8.438ZM18 5.625C18 6.479 16.57 7.225 14.46 7.605V7.604C14.15 6.771 13.387 6.096 12.35 5.594C14.607 5.481 16.752 5.006 18 4.124V5.625Z" fill="#F7A800"/>
</svg>
