<svg width="24" height="24" viewBox="0 0 24 24" fill="none" xmlns="http://www.w3.org/2000/svg">
<path fill-rule="evenodd" clip-rule="evenodd" d="M3 5C3 3.897 3.897 3 5 3H19C20.103 3 21 3.897 21 5V19C21 20.103 20.103 21 19 21H14.4141H11.6211H5C3.897 21 3 20.103 3 19V5ZM19.002 19L19 5H5V19H11.6211V15.0391H9.27734V12.3145H11.6211V10.3086C11.6211 7.98459 13.0412 6.71875 15.1152 6.71875C15.8142 6.71675 16.512 6.75127 17.207 6.82227V9.25391H15.7793C14.6493 9.25391 14.4297 9.78622 14.4297 10.5742V12.3105H17.1309L16.7793 15.0352H14.4141V19H19.002Z" fill="black"/>
</svg>
