<svg width="24" height="24" viewBox="0 0 24 24" fill="none" xmlns="http://www.w3.org/2000/svg">
<path fill-rule="evenodd" clip-rule="evenodd" d="M8 4C8 2.897 8.897 2 10 2H14C15.103 2 16 2.897 16 4V6H21V19C21 20.103 20.103 21 19 21H5C3.897 21 3 20.103 3 19V6H8V4ZM19.002 19L19 8H5V19H19.002ZM8 11C8 10.448 8.448 10 9 10C9.552 10 10 10.448 10 11C10 11.552 9.552 12 9 12C8.448 12 8 11.552 8 11ZM14 11C14 10.448 14.448 10 15 10C15.552 10 16 10.448 16 11C16 11.552 15.552 12 15 12C14.448 12 14 11.552 14 11ZM14 4H10V6H14V4Z" fill="black"/>
</svg>
