<svg width="24" height="24" viewBox="0 0 24 24" fill="none" xmlns="http://www.w3.org/2000/svg">
<path fill-rule="evenodd" clip-rule="evenodd" d="M4.18555 4.41797C5.74555 3.99997 12 4 12 4C12 4 18.2545 3.99997 19.8145 4.41797C20.6745 4.64797 21.352 5.32555 21.582 6.18555C22 7.74555 22 12 22 12C22 12 22 16.2545 21.582 17.8145C21.352 18.6745 20.6745 19.352 19.8145 19.582C18.2545 20 12 20 12 20C12 20 5.74555 20 4.18555 19.582C3.32555 19.352 2.64797 18.6755 2.41797 17.8145C1.99997 16.2545 2 12 2 12C2 12 1.99997 7.74555 2.41797 6.18555C2.64797 5.32555 3.32455 4.64797 4.18555 4.41797ZM19.2969 6.34961C18.4909 6.13361 14.882 6 12 6C9.118 6 5.50813 6.13361 4.70312 6.34961C4.53312 6.39461 4.39461 6.53317 4.34961 6.70117C4.10861 7.60117 4 10.342 4 12C4 13.658 4.10861 16.3989 4.34961 17.2969C4.39561 17.4669 4.53413 17.6054 4.70312 17.6504C5.51012 17.8664 9.119 18 12 18C14.882 18 18.4919 17.8664 19.2969 17.6504C19.4669 17.6044 19.6054 17.4659 19.6504 17.2969C19.8914 16.3979 20 13.658 20 12C20 10.342 19.8914 7.60113 19.6504 6.70312C19.6044 6.53312 19.4659 6.39461 19.2969 6.34961ZM16 12L10 15.4648V8.53516L16 12Z" fill="#1D1D1D"/>
</svg>
