<svg width="24" height="24" viewBox="0 0 24 24" fill="none" xmlns="http://www.w3.org/2000/svg">
<path d="M20.055 7.713C19.378 6.871 18.382 6.303 17.291 6.098C16.773 3.971 14.877 3 13.045 3H7.057C6.425 3 5.878 3.409 5.689 4.009C5.674 4.049 5.663 4.091 5.653 4.134L3.034 16.262C3.025 16.303 3.019 16.345 3.015 16.387C3.006 16.449 3 16.513 3 16.56C3 17.354 3.648 18 4.444 18H6.76L6.493 19.262C6.485 19.302 6.479 19.343 6.475 19.383C6.466 19.446 6.459 19.509 6.459 19.556C6.461 20.353 7.109 21 7.905 21H11.164C11.22 21 11.275 20.995 11.33 20.985C11.879 20.922 12.341 20.548 12.521 20.022C12.542 19.972 12.559 19.919 12.571 19.866L13.475 16H14.873C18.238 16 20.253 14.555 20.862 11.705C21.278 9.752 20.653 8.456 20.055 7.713ZM5.137 16L7.512 5H13.045C13.338 5 14.545 5.061 15.123 6.013H10.417C9.791 6.013 9.247 6.414 9.054 7.003C9.035 7.052 9.021 7.103 9.011 7.154L7.977 12.247L7.183 16H5.137ZM18.906 11.287C18.5 13.188 17.293 14 14.873 14H13.016C12.193 14 11.678 14.652 11.611 15.198L10.721 19H8.594L9.865 13H11.309C15.568 13 16.974 10.606 17.403 8.598C17.43 8.47 17.448 8.342 17.46 8.216C17.838 8.367 18.209 8.609 18.498 8.967C18.971 9.557 19.108 10.337 18.906 11.287Z" fill="white"/>
</svg>
