<svg width="24" height="24" viewBox="0 0 24 24" fill="none" xmlns="http://www.w3.org/2000/svg">
<path fill-rule="evenodd" clip-rule="evenodd" d="M6 4H10V20H6V4ZM14 4H18V20H14V4Z" fill="white"/>
<path d="M10 4H11C11 3.44772 10.5523 3 10 3V4ZM6 4V3C5.44772 3 5 3.44772 5 4H6ZM10 20V21C10.5523 21 11 20.5523 11 20H10ZM6 20H5C5 20.5523 5.44772 21 6 21V20ZM18 4H19C19 3.44772 18.5523 3 18 3V4ZM14 4V3C13.4477 3 13 3.44772 13 4H14ZM18 20V21C18.5523 21 19 20.5523 19 20H18ZM14 20H13C13 20.5523 13.4477 21 14 21V20ZM10 3H6V5H10V3ZM11 20V4H9V20H11ZM6 21H10V19H6V21ZM5 4V20H7V4H5ZM18 3H14V5H18V3ZM19 20V4H17V20H19ZM14 21H18V19H14V21ZM13 4V20H15V4H13Z" fill="white"/>
</svg>
