<svg width="24" height="24" viewBox="0 0 24 24" fill="none" xmlns="http://www.w3.org/2000/svg">
<path fill-rule="evenodd" clip-rule="evenodd" d="M12.3828 4.07588C12.5007 4.12468 12.6112 4.19702 12.7071 4.29289L19.7071 11.2929C20.0976 11.6834 20.0976 12.3166 19.7071 12.7071C19.3166 13.0976 18.6834 13.0976 18.2929 12.7071L13 7.41421V19C13 19.5523 12.5523 20 12 20C11.4477 20 11 19.5523 11 19V7.41421L5.70711 12.7071C5.31658 13.0976 4.68342 13.0976 4.29289 12.7071C3.90237 12.3166 3.90237 11.6834 4.29289 11.2929L11.2926 4.29316M12.3828 4.07588C12.2657 4.02735 12.1375 4.0004 12.003 4C12.002 4 12.001 4 12 4C11.999 4 11.998 4 11.997 4C11.743 4.00076 11.4892 4.09769 11.295 4.29078" fill="#1A202C"/>
</svg>
