<svg width="24" height="24" viewBox="0 0 24 24" fill="none" xmlns="http://www.w3.org/2000/svg">
<path fill-rule="evenodd" clip-rule="evenodd" d="M2.84082 10.6938C2.84082 6.35846 6.34969 2.84183 10.6808 2.84183C15.0118 2.84183 18.5207 6.35846 18.5207 10.6938C18.5207 12.7926 17.6983 14.6996 16.3583 16.1085L19.877 19.6331L20.4069 20.1639L19.3454 21.2237L18.8155 20.6929L15.2705 17.1419L15.223 17.0944C13.9416 18.0082 12.374 18.5457 10.6808 18.5457C6.34969 18.5457 2.84082 15.0291 2.84082 10.6938ZM10.6808 4.34183C7.1805 4.34183 4.34082 7.18449 4.34082 10.6938C4.34082 14.203 7.1805 17.0457 10.6808 17.0457C14.181 17.0457 17.0207 14.203 17.0207 10.6938C17.0207 7.18449 14.181 4.34183 10.6808 4.34183Z" fill="black"/>
</svg>
