<svg width="24" height="24" viewBox="0 0 24 24" fill="none" xmlns="http://www.w3.org/2000/svg">
<path fill-rule="evenodd" clip-rule="evenodd" d="M10 2C9.20435 2 8.44129 2.31607 7.87868 2.87868C7.31607 3.44129 7 4.20435 7 5V6H4C2.34315 6 1 7.34315 1 9V19C1 20.6569 2.34315 22 4 22H8H16H20C21.6569 22 23 20.6569 23 19V9C23 7.34315 21.6569 6 20 6H17V5C17 4.20435 16.6839 3.44129 16.1213 2.87868C15.5587 2.31607 14.7956 2 14 2H10ZM15 6V5C15 4.73478 14.8946 4.48043 14.7071 4.29289C14.5196 4.10536 14.2652 4 14 4H10C9.73478 4 9.48043 4.10536 9.29289 4.29289C9.10536 4.48043 9 4.73478 9 5V6H15ZM9 8H15V20H9V8ZM7 8H4C3.44772 8 3 8.44772 3 9V19C3 19.5523 3.44772 20 4 20H7V8ZM17 20V8H20C20.5523 8 21 8.44772 21 9V19C21 19.5523 20.5523 20 20 20H17Z" fill="black"/>
</svg>
