<svg width="24" height="24" viewBox="0 0 24 24" fill="none" xmlns="http://www.w3.org/2000/svg">
<path fill-rule="evenodd" clip-rule="evenodd" d="M15.09 8.26L12 2L8.91 8.26L2 9.27L7 14.14L5.82 21.02L12 17.77L18.18 21.02L17 14.14L22 9.27L15.09 8.26Z" fill="#2081E2"/>
<path d="M12 2L12.8967 1.55738C12.7282 1.21607 12.3806 1 12 1C11.6194 1 11.2718 1.21607 11.1033 1.55738L12 2ZM15.09 8.26L14.1933 8.70262C14.3388 8.99747 14.62 9.20193 14.9454 9.24949L15.09 8.26ZM8.91 8.26L9.05463 9.24949C9.37998 9.20193 9.66117 8.99747 9.80671 8.70262L8.91 8.26ZM2 9.27L1.85537 8.28051C1.47881 8.33555 1.16613 8.59956 1.04875 8.96157C0.931376 9.32358 1.02965 9.72083 1.30227 9.98636L2 9.27ZM7 14.14L7.98561 14.309C8.04127 13.9845 7.93361 13.6534 7.69773 13.4236L7 14.14ZM5.82 21.02L4.83439 20.851C4.77004 21.2261 4.92429 21.6053 5.23227 21.8291C5.54024 22.0528 5.94854 22.0823 6.28545 21.9051L5.82 21.02ZM12 17.77L12.4655 16.8849C12.1741 16.7317 11.8259 16.7317 11.5345 16.8849L12 17.77ZM18.18 21.02L17.7145 21.9051C18.0515 22.0823 18.4598 22.0528 18.7677 21.8291C19.0757 21.6053 19.23 21.2261 19.1656 20.851L18.18 21.02ZM17 14.14L16.3023 13.4236C16.0664 13.6534 15.9587 13.9845 16.0144 14.309L17 14.14ZM22 9.27L22.6977 9.98636C22.9704 9.72083 23.0686 9.32358 22.9512 8.96157C22.8339 8.59956 22.5212 8.33555 22.1446 8.28051L22 9.27ZM11.1033 2.44262L14.1933 8.70262L15.9867 7.81738L12.8967 1.55738L11.1033 2.44262ZM9.80671 8.70262L12.8967 2.44262L11.1033 1.55738L8.01329 7.81738L9.80671 8.70262ZM2.14463 10.2595L9.05463 9.24949L8.76537 7.27051L1.85537 8.28051L2.14463 10.2595ZM7.69773 13.4236L2.69773 8.55364L1.30227 9.98636L6.30227 14.8564L7.69773 13.4236ZM6.80561 21.189L7.98561 14.309L6.01439 13.971L4.83439 20.851L6.80561 21.189ZM11.5345 16.8849L5.35455 20.1349L6.28545 21.9051L12.4655 18.6551L11.5345 16.8849ZM18.6455 20.1349L12.4655 16.8849L11.5345 18.6551L17.7145 21.9051L18.6455 20.1349ZM16.0144 14.309L17.1944 21.189L19.1656 20.851L17.9856 13.971L16.0144 14.309ZM21.3023 8.55364L16.3023 13.4236L17.6977 14.8564L22.6977 9.98636L21.3023 8.55364ZM14.9454 9.24949L21.8554 10.2595L22.1446 8.28051L15.2346 7.27051L14.9454 9.24949Z" fill="#2081E2"/>
</svg>
