<svg width="24" height="24" viewBox="0 0 24 24" fill="none" xmlns="http://www.w3.org/2000/svg">
<path d="M20.84 4.61C20.3292 4.09901 19.7228 3.69365 19.0554 3.41709C18.3879 3.14052 17.6725 2.99818 16.95 2.99818C16.2275 2.99818 15.5121 3.14052 14.8446 3.41709C14.1772 3.69365 13.5708 4.09901 13.06 4.61L12 5.67L10.94 4.61C9.9083 3.57831 8.50903 2.99871 7.05 2.99871C5.59096 2.99871 4.19169 3.57831 3.16 4.61C2.1283 5.64169 1.54871 7.04097 1.54871 8.5C1.54871 9.95903 2.1283 11.3583 3.16 12.39L4.22 13.45L12 21.23L19.78 13.45L20.84 12.39C21.351 11.8792 21.7563 11.2728 22.0329 10.6054C22.3095 9.9379 22.4518 9.22249 22.4518 8.5C22.4518 7.77751 22.3095 7.06211 22.0329 6.39465C21.7563 5.72719 21.351 5.12076 20.84 4.61V4.61Z" stroke="#4A81F2" stroke-width="2" stroke-linecap="round" stroke-linejoin="round"/>
<path d="M20.8401 4.60987C20.3294 4.09888 19.7229 3.69352 19.0555 3.41696C18.388 3.14039 17.6726 2.99805 16.9501 2.99805C16.2276 2.99805 15.5122 3.14039 14.8448 3.41696C14.1773 3.69352 13.5709 4.09888 13.0601 4.60987L12.0001 5.66987L10.9401 4.60987C9.90843 3.57818 8.50915 2.99858 7.05012 2.99858C5.59109 2.99858 4.19181 3.57818 3.16012 4.60987C2.12843 5.64156 1.54883 7.04084 1.54883 8.49987C1.54883 9.95891 2.12843 11.3582 3.16012 12.3899L4.22012 13.4499L12.0001 21.2299L19.7801 13.4499L20.8401 12.3899C21.3511 11.8791 21.7565 11.2727 22.033 10.6052C22.3096 9.93777 22.4519 9.22236 22.4519 8.49987C22.4519 7.77738 22.3096 7.06198 22.033 6.39452C21.7565 5.72706 21.3511 5.12063 20.8401 4.60987V4.60987Z" stroke="#4A81F2" stroke-width="2" stroke-linecap="round" stroke-linejoin="round"/>
</svg>
