<svg width="24" height="24" viewBox="0 0 24 24" fill="none" xmlns="http://www.w3.org/2000/svg">
<path fill-rule="evenodd" clip-rule="evenodd" d="M4 11C4 7.13401 7.13401 4 11 4C14.866 4 18 7.13401 18 11C18 12.8858 17.2543 14.5974 16.0417 15.8561C16.0074 15.8825 15.9744 15.9114 15.9429 15.9428C15.9115 15.9742 15.8826 16.0072 15.8562 16.0416C14.5975 17.2543 12.8858 18 11 18C7.13401 18 4 14.866 4 11ZM16.6178 18.0318C15.0781 19.2635 13.125 20 11 20C6.02944 20 2 15.9706 2 11C2 6.02944 6.02944 2 11 2C15.9706 2 20 6.02944 20 11C20 13.125 19.2635 15.078 18.032 16.6176L21.7071 20.2928C22.0977 20.6833 22.0977 21.3165 21.7071 21.707C21.3166 22.0975 20.6834 22.0975 20.2929 21.707L16.6178 18.0318Z" fill="#333333"/>
</svg>
