<svg width="30" height="30" viewBox="0 0 30 30" fill="none" xmlns="http://www.w3.org/2000/svg">
<path fill-rule="evenodd" clip-rule="evenodd" d="M1 6C0.447715 6 0 6.44772 0 7C0 7.55228 0.447715 8 1 8H4.18032L5.01195 12.1551C5.01638 12.1835 5.02201 12.2116 5.02879 12.2392L6.69916 20.5848L6.69933 20.5857C6.83664 21.2759 7.21225 21.8959 7.76048 22.3373C8.3062 22.7766 8.98837 23.011 9.68864 23H19.3914C20.0916 23.011 20.7738 22.7766 21.3195 22.3373C21.868 21.8958 22.2437 21.2754 22.3808 20.5848L22.3809 20.5848L22.3823 20.5773L23.9823 12.1873C24.0381 11.8946 23.9605 11.5922 23.7705 11.3626C23.5805 11.1329 23.298 11 23 11H6.82043L5.98055 6.80374C5.88701 6.33639 5.47663 6 5 6H1ZM8.66055 20.1937L7.22073 13H21.7913L20.4185 20.1984C20.3723 20.4273 20.2474 20.6328 20.0654 20.7793C19.8826 20.9265 19.6538 21.0047 19.4192 21.0002L19.4 21H9.68L9.66084 21.0002C9.42619 21.0047 9.19743 20.9265 9.01461 20.7793C8.83179 20.6322 8.70656 20.4254 8.66084 20.1952L8.66055 20.1937ZM7 27C7 25.8954 7.89543 25 9 25C10.1046 25 11 25.8954 11 27C11 28.1046 10.1046 29 9 29C7.89543 29 7 28.1046 7 27ZM18 27C18 25.8954 18.8954 25 20 25C21.1046 25 22 25.8954 22 27C22 28.1046 21.1046 29 20 29C18.8954 29 18 28.1046 18 27Z" fill="#333333"/>
<circle cx="24" cy="6" r="6" fill="#FF7878"/>
<path d="M24.9525 8V2.664H24.1365L22.6005 4.216L23.1445 4.784L24.0165 3.88V8H24.9525Z" fill="white"/>
</svg>
