<svg width="30" height="30" viewBox="0 0 30 30" fill="none" xmlns="http://www.w3.org/2000/svg">
<path fill-rule="evenodd" clip-rule="evenodd" d="M4 13C4 6.925 8.925 2 15 2C21.075 2 26 6.925 26 13C26 19.1688 20.7991 22.5954 18.7119 23.9706C18.3515 24.208 18.0839 24.3843 17.952 24.503C17.037 25.327 16.281 27.171 15.976 28.217C15.828 28.724 15.413 28.981 15 28.993C14.588 28.982 14.172 28.725 14.024 28.217C13.719 27.171 12.963 25.326 12.048 24.503C11.9161 24.3843 11.6485 24.208 11.2881 23.9706C9.2009 22.5954 4 19.1688 4 13ZM10.757 18.657C11.148 18.267 11.148 17.634 10.757 17.243C9.624 16.109 9 14.603 9 13C9 11.397 9.624 9.891 10.757 8.757C11.148 8.366 11.148 7.733 10.757 7.343C10.366 6.952 9.734 6.952 9.343 7.343C7.832 8.854 7 10.863 7 13C7 15.137 7.832 17.146 9.343 18.657C9.538 18.852 9.794 18.95 10.05 18.95C10.306 18.95 10.562 18.852 10.757 18.657ZM13 13C13 14.105 13.895 15 15 15C16.105 15 17 14.105 17 13C17 11.895 16.105 11 15 11C13.895 11 13 11.895 13 13ZM19.95 18.95C20.206 18.95 20.462 18.852 20.657 18.657C22.168 17.146 23 15.137 23 13C23 10.863 22.168 8.854 20.657 7.343C20.266 6.952 19.634 6.952 19.243 7.343C18.852 7.733 18.852 8.366 19.243 8.757C20.376 9.891 21 11.397 21 13C21 14.603 20.376 16.109 19.243 17.243C18.852 17.634 18.852 18.267 19.243 18.657C19.438 18.852 19.694 18.95 19.95 18.95Z" fill="white"/>
</svg>
