<svg width="30" height="30" viewBox="0 0 30 30" fill="none" xmlns="http://www.w3.org/2000/svg">
<path d="M15 3C8.38443 3 3 8.38443 3 15C3 21.6156 8.38443 27 15 27C21.6156 27 27 21.6156 27 15C27 8.38443 21.6156 3 15 3ZM15 5C16.8944 5 18.6564 5.5333 20.1641 6.44336L20 7L21 8L20 9L19 8H17L15 10L16 12L17 11V10H18L19 11L18 12L16 13L14 14H13V16H14L16 15L17 16H18V15L19 14L21 13V15H19V16H21L23 19L24 18V17H23V16H24L24.9609 15.791C24.809 17.7367 24.1023 19.5188 23 20.9902V20H22L20 17L18 18L15 17L12 18L11 20L12 22H14L15 21L16 22V24.9512C15.6708 24.9837 15.338 25 15 25C9.46531 25 5 20.5347 5 15C5 14.0862 5.13318 13.2054 5.36133 12.3652L6 12H7V9.00977C7.00227 9.00674 7.00359 9.00302 7.00586 9H8L8.5332 7.37109C8.94545 7.02149 9.38954 6.71144 9.85547 6.43164L9 9H11L13 7V6H12L11 7V5.83398C12.2249 5.30032 13.5755 5 15 5ZM13 10V12H14V10H13Z" fill="white"/>
<path d="M15 3C8.38443 3 3 8.38443 3 15C3 21.6156 8.38443 27 15 27C21.6156 27 27 21.6156 27 15C27 8.38443 21.6156 3 15 3ZM15 5C16.8944 5 18.6564 5.5333 20.1641 6.44336L20 7L21 8L20 9L19 8H17L15 10L16 12L17 11V10H18L19 11L18 12L16 13L14 14H13V16H14L16 15L17 16H18V15L19 14L21 13V15H19V16H21L23 19L24 18V17H23V16H24L24.9609 15.791C24.809 17.7367 24.1023 19.5188 23 20.9902V20H22L20 17L18 18L15 17L12 18L11 20L12 22H14L15 21L16 22V24.9512C15.6708 24.9837 15.338 25 15 25C9.46531 25 5 20.5347 5 15C5 14.0862 5.13318 13.2054 5.36133 12.3652L6 12H7V9.00977C7.00227 9.00674 7.00359 9.00302 7.00586 9H8L8.5332 7.37109C8.94545 7.02149 9.38954 6.71144 9.85547 6.43164L9 9H11L13 7V6H12L11 7V5.83398C12.2249 5.30032 13.5755 5 15 5ZM13 10V12H14V10H13Z" fill="white"/>
</svg>
