<svg width="24" height="24" viewBox="0 0 24 24" fill="none" xmlns="http://www.w3.org/2000/svg">
<path fill-rule="evenodd" clip-rule="evenodd" d="M3 4.18C3 3.5283 3.5283 3 4.18 3H6V6H3V4.18ZM3 8H6V11H3V8ZM1 4.18V7V12V17V19.82C1 21.5763 2.42373 23 4.18 23H7H17H19.82C21.5763 23 23 21.5763 23 19.82V17V12V7V4.18C23 2.42373 21.5763 1 19.82 1H17H7H4.18C2.42373 1 1 2.42373 1 4.18ZM21 6V4.18C21 3.5283 20.4717 3 19.82 3H18V6H21ZM18 8H21V11H18V8ZM16 7V3H8V7V11H16V7ZM21 13V16H18V13H21ZM21 18H18V21H19.82C20.4717 21 21 20.4717 21 19.82V18ZM16 13V17V21H8V17V13H16ZM3 18V19.82C3 20.4717 3.5283 21 4.18 21H6V18H3ZM6 16H3V13H6V16Z" fill="#222222"/>
</svg>
