<svg width="24" height="24" viewBox="0 0 24 24" fill="none" xmlns="http://www.w3.org/2000/svg">
<path fill-rule="evenodd" clip-rule="evenodd" d="M16.9957 1.06663C15.4225 1.05296 13.9069 1.65773 12.7753 2.75068L12.765 2.7608L11.045 4.4708C10.6533 4.86018 10.6515 5.49335 11.0408 5.88501C11.4302 6.27667 12.0634 6.27851 12.455 5.88913L14.1696 4.1845C14.9235 3.45887 15.9318 3.05746 16.9783 3.06656C18.0271 3.07567 19.0304 3.49635 19.772 4.23798C20.5136 4.97961 20.9343 5.98286 20.9434 7.03165C20.9525 8.0777 20.5514 9.08557 19.8264 9.83934L16.8329 12.8329L16.8328 12.833C16.4273 13.2386 15.9392 13.5523 15.4018 13.7528C14.8644 13.9533 14.2902 14.0358 13.7181 13.9949C13.146 13.9539 12.5894 13.7903 12.086 13.5153C11.5827 13.2403 11.1443 12.8603 10.8008 12.401C10.47 11.9587 9.84327 11.8684 9.40102 12.1992C8.95877 12.53 8.86843 13.1567 9.19923 13.5989C9.71458 14.2879 10.3721 14.858 11.1271 15.2705C11.8821 15.683 12.717 15.9283 13.5752 15.9897C14.4334 16.0512 15.2947 15.9274 16.1008 15.6267C16.907 15.326 17.639 14.8554 18.2472 14.2469L21.2471 11.2471L21.2593 11.2347C22.3522 10.1031 22.957 8.58745 22.9433 7.01427C22.9297 5.44109 22.2986 3.93621 21.1862 2.82377C20.0738 1.71132 18.5689 1.0803 16.9957 1.06663ZM10.4248 8.0102C9.56661 7.94874 8.70526 8.07256 7.89915 8.37326C7.0931 8.67395 6.36113 9.14445 5.75289 9.75287L5.75277 9.753L2.75289 12.7529L2.74071 12.7653C1.64776 13.8969 1.043 15.4125 1.05667 16.9857C1.07034 18.5589 1.70135 20.0637 2.8138 21.1762C3.92625 22.2886 5.43113 22.9196 7.00431 22.9333C8.57749 22.947 10.0931 22.3422 11.2247 21.2493L11.2371 21.2371L12.9471 19.5271C13.3376 19.1366 13.3376 18.5034 12.9471 18.1129C12.5566 17.7223 11.9234 17.7223 11.5329 18.1129L9.82937 19.8164C9.0756 20.5414 8.06773 20.9425 7.02168 20.9334C5.9729 20.9243 4.96965 20.5036 4.22802 19.762C3.48638 19.0203 3.06571 18.0171 3.05659 16.9683C3.0475 15.9222 3.44856 14.9144 4.17359 14.1606L7.16711 11.1671L7.16724 11.167C7.57274 10.7613 8.06075 10.4476 8.59816 10.2471C9.13557 10.0467 9.7098 9.96412 10.2819 10.0051C10.854 10.0461 11.4106 10.2096 11.914 10.4846C12.4173 10.7596 12.8557 11.1397 13.1992 11.599C13.53 12.0412 14.1567 12.1316 14.599 11.8007C15.0412 11.4699 15.1316 10.8433 14.8008 10.401C14.2854 9.71205 13.6279 9.14198 12.8729 8.72947C12.1179 8.31697 11.283 8.07166 10.4248 8.0102Z" fill="black"/>
</svg>
