<svg width="24" height="24" viewBox="0 0 24 24" fill="none" xmlns="http://www.w3.org/2000/svg">
<path fill-rule="evenodd" clip-rule="evenodd" d="M12 1.00195C11.4742 1.00195 10.9577 1.14014 10.5021 1.40264L7.30617 3.22891C7.09614 3.2705 6.90022 3.37899 6.75269 3.54518L3.50386 5.40166L3.50386 5.40165L3.5 5.40388C3.12992 5.61754 2.81077 5.90721 2.56288 6.25254C2.50262 6.31285 2.44913 6.38193 2.40441 6.45924C2.36589 6.52583 2.33591 6.59501 2.31412 6.66552C2.10836 7.07904 2.00048 7.53531 2 7.99888V7.9999V15.9999V16.0009C2.00054 16.527 2.13941 17.0437 2.40269 17.4992C2.66597 17.9547 3.04439 18.3329 3.5 18.5959L3.50386 18.5981L10.5 22.5959L10.5019 22.597C10.819 22.7798 11.1657 22.9023 11.5245 22.9599C11.6659 23.0365 11.8279 23.08 12 23.08C12.1721 23.08 12.3341 23.0365 12.4755 22.9599C12.8343 22.9023 13.1811 22.7798 13.4982 22.597L13.5 22.5959L20.4961 18.5981L20.5 18.5959C20.9556 18.3329 21.334 17.9547 21.5973 17.4992C21.8606 17.0437 21.9995 16.527 22 16.0009V15.9999V7.9999V7.99888C21.9995 7.53539 21.8917 7.07918 21.686 6.66572C21.6642 6.59514 21.6342 6.52589 21.5956 6.45924C21.5509 6.38187 21.4973 6.31275 21.437 6.2524C21.1891 5.90713 20.87 5.61751 20.5 5.40387L20.4961 5.40166L13.5 1.40388L13.4979 1.40267C13.0424 1.14015 12.5258 1.00195 12 1.00195ZM13 20.5782L19.5 16.8639L19.5016 16.863C19.6527 16.7753 19.7783 16.6496 19.8658 16.4983C19.9535 16.3465 19.9998 16.1742 20 15.9989V8.53751L13 12.5868V20.5782ZM11 12.5867L4 8.53749V15.9993C4.00026 16.1745 4.04654 16.3466 4.13423 16.4983C4.22169 16.6496 4.34726 16.7753 4.49842 16.863L4.5 16.8639L11 20.5782V12.5867ZM12.5039 3.13815L18.9611 6.82797L16.5052 8.24861L9.56085 4.24402L11.4961 3.13815L11.4961 3.13815L11.5 3.13593C11.652 3.04816 11.8245 3.00195 12 3.00195C12.1755 3.00195 12.348 3.04816 12.5 3.13593L12.5 3.13594L12.5039 3.13815ZM12 10.8547L14.5065 9.40476L7.54993 5.39311L5.03894 6.82796L12 10.8547Z" fill="black"/>
</svg>
