<svg width="24" height="24" viewBox="0 0 24 24" fill="none" xmlns="http://www.w3.org/2000/svg">
<path fill-rule="evenodd" clip-rule="evenodd" d="M7 1C7 0.447715 6.55228 0 6 0C5.44772 0 5 0.447715 5 1V4C5 4.55228 5.44772 5 6 5C6.55228 5 7 4.55228 7 4V1ZM1 8C1 7.44772 1.44772 7 2 7H18H19C20.3261 7 21.5979 7.52678 22.5355 8.46447C23.4732 9.40215 24 10.6739 24 12C24 13.3261 23.4732 14.5979 22.5355 15.5355C21.5979 16.4732 20.3261 17 19 17C19 18.3261 18.4732 19.5979 17.5355 20.5355C16.5979 21.4732 15.3261 22 14 22H6C4.67392 22 3.40215 21.4732 2.46447 20.5355C1.52678 19.5979 1 18.3261 1 17V8ZM19 15V9C19.7956 9 20.5587 9.31607 21.1213 9.87868C21.6839 10.4413 22 11.2044 22 12C22 12.7956 21.6839 13.5587 21.1213 14.1213C20.5587 14.6839 19.7956 15 19 15ZM17 9V16V17C17 17.7956 16.6839 18.5587 16.1213 19.1213C15.5587 19.6839 14.7956 20 14 20H6C5.20435 20 4.44129 19.6839 3.87868 19.1213C3.31607 18.5587 3 17.7957 3 17V9H17ZM10 0C10.5523 0 11 0.447715 11 1V4C11 4.55228 10.5523 5 10 5C9.44771 5 9 4.55228 9 4V1C9 0.447715 9.44771 0 10 0ZM15 1C15 0.447715 14.5523 0 14 0C13.4477 0 13 0.447715 13 1V4C13 4.55228 13.4477 5 14 5C14.5523 5 15 4.55228 15 4V1Z" fill="black"/>
</svg>
