<svg width="24" height="24" viewBox="0 0 24 24" fill="none" xmlns="http://www.w3.org/2000/svg">
<path fill-rule="evenodd" clip-rule="evenodd" d="M18 3C16.8954 3 16 3.89543 16 5C16 5.34723 16.0885 5.6738 16.2441 5.95837C16.2544 5.97387 16.2642 5.98974 16.2737 6.00598C16.2831 6.0221 16.292 6.03837 16.3004 6.05477C16.6533 6.62224 17.2826 7 18 7C19.1046 7 20 6.10457 20 5C20 3.89543 19.1046 3 18 3ZM15.1581 7.81487C15.883 8.54669 16.8885 9 18 9C20.2091 9 22 7.20914 22 5C22 2.79086 20.2091 1 18 1C15.7909 1 14 2.79086 14 5C14 5.37703 14.0522 5.74187 14.1497 6.0877L8.84195 9.18516C8.11705 8.45332 7.11147 8 6 8C3.79086 8 2 9.79086 2 12C2 14.2091 3.79086 16 6 16C7.11167 16 8.11742 15.5465 8.84235 14.8144L14.1509 17.9079C14.0526 18.255 14 18.6214 14 19C14 21.2091 15.7909 23 18 23C20.2091 23 22 21.2091 22 19C22 16.7909 20.2091 15 18 15C16.8902 15 15.886 15.452 15.1613 16.1819L9.8505 13.0871C9.9479 12.7415 10 12.3768 10 12C10 11.623 9.94784 11.2582 9.85035 10.9123L15.1581 7.81487ZM7.69982 10.9456C7.70817 10.9619 7.71701 10.978 7.72634 10.994C7.73574 11.0101 7.74552 11.0259 7.75566 11.0413C7.91144 11.3259 8 11.6526 8 12C8 12.3474 7.91142 12.6742 7.7556 12.9588C7.74536 12.9744 7.7355 12.9903 7.72602 13.0065C7.71683 13.0223 7.70812 13.0382 7.69988 13.0543C7.34702 13.622 6.71765 14 6 14C4.89543 14 4 13.1046 4 12C4 10.8954 4.89543 10 6 10C6.71761 10 7.34695 10.3779 7.69982 10.9456ZM16 19C16 18.6749 16.0776 18.3679 16.2152 18.0966C16.2399 18.0641 16.2629 18.0297 16.284 17.9935C16.3043 17.9588 16.3222 17.9234 16.3378 17.8874C16.6967 17.3522 17.3072 17 18 17C19.1046 17 20 17.8954 20 19C20 20.1046 19.1046 21 18 21C16.8954 21 16 20.1046 16 19Z" fill="black"/>
</svg>
