<svg width="24" height="24" viewBox="0 0 24 24" fill="none" xmlns="http://www.w3.org/2000/svg">
<path fill-rule="evenodd" clip-rule="evenodd" d="M12.8967 1.55738C12.7283 1.21607 12.3806 1 12 1C11.6194 1 11.2718 1.21607 11.1033 1.55738L8.24577 7.34647L1.8554 8.28051C1.47884 8.33555 1.16616 8.59956 1.04878 8.96157C0.931405 9.32358 1.02968 9.72083 1.3023 9.98636L5.92551 14.4894L4.83442 20.851C4.77007 21.2261 4.92432 21.6053 5.2323 21.8291C5.54027 22.0528 5.94856 22.0823 6.28548 21.9051L12 18.8998L17.7146 21.9051C18.0515 22.0823 18.4598 22.0528 18.7678 21.8291C19.0757 21.6053 19.23 21.2261 19.1656 20.851L18.0746 14.4894L22.6978 9.98636C22.9704 9.72083 23.0687 9.32358 22.9513 8.96157C22.8339 8.59956 22.5212 8.33555 22.1447 8.28051L15.7543 7.34647L12.8967 1.55738ZM9.80674 8.70262L12 4.25925L14.1933 8.70262C14.3389 8.99747 14.62 9.20193 14.9454 9.24949L19.8516 9.9666L16.3023 13.4236C16.0664 13.6534 15.9588 13.9845 16.0144 14.309L16.8518 19.1917L12.4655 16.8849C12.1741 16.7317 11.826 16.7317 11.5346 16.8849L7.14821 19.1917L7.98564 14.309C8.0413 13.9845 7.93364 13.6534 7.69776 13.4236L4.14844 9.9666L9.05466 9.24949C9.38001 9.20193 9.6612 8.99747 9.80674 8.70262Z" fill="black"/>
</svg>
