<svg width="24" height="24" viewBox="0 0 24 24" fill="none" xmlns="http://www.w3.org/2000/svg">
<path fill-rule="evenodd" clip-rule="evenodd" d="M12.7071 5.70711C13.0976 5.31658 13.0976 4.68342 12.7071 4.29289C12.3166 3.90237 11.6834 3.90237 11.2929 4.29289L4.29325 11.2925L4.29288 11.2929M12.7071 5.70711L7.4142 11L12.7071 5.70711ZM7.4142 11H19C19.5523 11 20 11.4477 20 12C20 12.5523 19.5523 13 19 13H7.4142L12.7071 18.2929C13.0976 18.6834 13.0976 19.3166 12.7071 19.7071C12.3166 20.0976 11.6834 20.0976 11.2929 19.7071L4.29341 12.7076L4.29288 12.7071M4.29076 12.705C4.19594 12.6096 4.12431 12.4999 4.07587 12.3828L4.29076 12.705ZM4.29076 11.295C4.11104 11.4758 3.99999 11.7249 3.99999 12C3.99999 12.1356 4.02697 12.2649 4.07587 12.3828" fill="black"/>
</svg>
