<svg width="24" height="24" viewBox="0 0 24 24" fill="none" xmlns="http://www.w3.org/2000/svg">
<path fill-rule="evenodd" clip-rule="evenodd" d="M10.55 19.7101L12 21L13.45 19.7101L13.4558 19.705C18.6025 15.122 22 12.0967 22 8.39509C22 5.36894 19.585 3 16.5 3C14.76 3 13.09 3.79455 12 5.04523C10.91 3.79455 9.24 3 7.5 3C4.415 3 2 5.36894 2 8.39509C2 12.0967 5.39747 15.122 10.5442 19.705L10.55 19.7101Z" fill="black"/>
<path d="M12 21L11.6677 21.3736C11.8572 21.5421 12.1428 21.5421 12.3323 21.3736L12 21ZM10.55 19.7101L10.2176 20.0836L10.2177 20.0837L10.55 19.7101ZM13.45 19.7101L13.7823 20.0837L13.7825 20.0835L13.45 19.7101ZM13.4558 19.705L13.7882 20.0784L13.7883 20.0784L13.4558 19.705ZM12 5.04523L11.6231 5.37374C11.718 5.4827 11.8555 5.54523 12 5.54523C12.1445 5.54523 12.282 5.4827 12.3769 5.37374L12 5.04523ZM10.5442 19.705L10.2117 20.0784L10.2118 20.0784L10.5442 19.705ZM12.3323 20.6264L10.8823 19.3365L10.2177 20.0837L11.6677 21.3736L12.3323 20.6264ZM13.1177 19.3365L11.6677 20.6264L12.3323 21.3736L13.7823 20.0837L13.1177 19.3365ZM13.1233 19.3315L13.1175 19.3367L13.7825 20.0835L13.7882 20.0784L13.1233 19.3315ZM21.5 8.39509C21.5 10.0785 20.732 11.649 19.2738 13.3995C17.8102 15.1564 15.7068 17.031 13.1232 19.3315L13.7883 20.0784C16.3515 17.7959 18.5202 15.8665 20.0421 14.0395C21.5693 12.2063 22.5 10.4133 22.5 8.39509H21.5ZM16.5 3.5C19.318 3.5 21.5 5.65411 21.5 8.39509H22.5C22.5 5.08376 19.852 2.5 16.5 2.5V3.5ZM12.3769 5.37374C13.3741 4.22958 14.9077 3.5 16.5 3.5V2.5C14.6123 2.5 12.8059 3.35952 11.6231 4.71672L12.3769 5.37374ZM7.5 3.5C9.09228 3.5 10.6259 4.22958 11.6231 5.37374L12.3769 4.71672C11.1941 3.35952 9.38772 2.5 7.5 2.5V3.5ZM2.5 8.39509C2.5 5.65411 4.68202 3.5 7.5 3.5V2.5C4.14798 2.5 1.5 5.08376 1.5 8.39509H2.5ZM10.8768 19.3315C8.29324 17.031 6.18979 15.1564 4.72625 13.3995C3.26802 11.649 2.5 10.0785 2.5 8.39509H1.5C1.5 10.4133 2.43071 12.2063 3.95791 14.0395C5.47981 15.8665 7.64847 17.7959 10.2117 20.0784L10.8768 19.3315ZM10.8824 19.3366L10.8767 19.3315L10.2118 20.0784L10.2176 20.0836L10.8824 19.3366Z" fill="black"/>
</svg>
