<svg width="24" height="24" viewBox="0 0 24 24" fill="none" xmlns="http://www.w3.org/2000/svg">
<path fill-rule="evenodd" clip-rule="evenodd" d="M2.75 8.39509C2.75 5.7967 4.81553 3.75 7.5 3.75C9.01842 3.75 10.4839 4.4471 11.4346 5.538L12 6.18675L12.5654 5.538C13.5161 4.4471 14.9816 3.75 16.5 3.75C19.1845 3.75 21.25 5.7967 21.25 8.39509C21.25 9.99538 20.5221 11.5108 19.0801 13.2414C17.6301 14.9815 15.5416 16.8434 12.9515 19.1497L12.9512 19.15L12 19.9962L11.0488 19.15L11.0485 19.1497C8.45839 16.8434 6.36989 14.9815 4.91993 13.2414C3.47789 11.5108 2.75 9.99538 2.75 8.39509ZM7.5 2.25C4.01447 2.25 1.25 4.94117 1.25 8.39509C1.25 10.4978 2.22211 12.3469 3.76757 14.2016C5.29603 16.036 7.46582 17.968 10.0062 20.2301L10.0512 20.2702L10.0515 20.2704L11.5015 21.5604L12 22.0038L12.4985 21.5604L13.9485 20.2704L13.9488 20.2702L13.9938 20.2301L13.9938 20.2301C16.5342 17.968 18.704 16.0359 20.2324 14.2016C21.7779 12.3469 22.75 10.4978 22.75 8.39509C22.75 4.94117 19.9855 2.25 16.5 2.25C14.819 2.25 13.2018 2.90509 12 3.98019C10.7982 2.90509 9.18103 2.25 7.5 2.25Z" fill="black"/>
</svg>
