<svg width="24" height="24" viewBox="0 0 24 24" fill="none" xmlns="http://www.w3.org/2000/svg">
<mask id="path-1-inside-1" fill="white">
<path fill-rule="evenodd" clip-rule="evenodd" d="M4.29297 5.70703L5.70703 4.29297L12 10.5859L18.293 4.29297L19.707 5.70703L13.4141 12L19.707 18.293L18.293 19.707L12 13.4141L5.70703 19.707L4.29297 18.293L10.5859 12L4.29297 5.70703Z"/>
</mask>
<path fill-rule="evenodd" clip-rule="evenodd" d="M4.29297 5.70703L5.70703 4.29297L12 10.5859L18.293 4.29297L19.707 5.70703L13.4141 12L19.707 18.293L18.293 19.707L12 13.4141L5.70703 19.707L4.29297 18.293L10.5859 12L4.29297 5.70703Z" fill="black"/>
<path d="M5.70703 4.29297L6.41414 3.58586L5.70703 2.87876L4.99992 3.58586L5.70703 4.29297ZM4.29297 5.70703L3.58586 4.99992L2.87876 5.70703L3.58586 6.41414L4.29297 5.70703ZM12 10.5859L11.2929 11.293L12 12.0002L12.7071 11.293L12 10.5859ZM18.293 4.29297L19.0001 3.58586L18.293 2.87876L17.5859 3.58586L18.293 4.29297ZM19.707 5.70703L20.4141 6.41414L21.1212 5.70703L20.4141 4.99992L19.707 5.70703ZM13.4141 12L12.707 11.2929L11.9998 12L12.707 12.7071L13.4141 12ZM19.707 18.293L20.4141 19.0001L21.1212 18.293L20.4141 17.5859L19.707 18.293ZM18.293 19.707L17.5859 20.4141L18.293 21.1212L19.0001 20.4141L18.293 19.707ZM12 13.4141L12.7071 12.707L12 11.9998L11.2929 12.707L12 13.4141ZM5.70703 19.707L4.99992 20.4141L5.70703 21.1212L6.41414 20.4141L5.70703 19.707ZM4.29297 18.293L3.58586 17.5859L2.87876 18.293L3.58586 19.0001L4.29297 18.293ZM10.5859 12L11.293 12.7071L12.0002 12L11.293 11.2929L10.5859 12ZM4.99992 3.58586L3.58586 4.99992L5.00008 6.41414L6.41414 5.00008L4.99992 3.58586ZM12.7071 9.87883L6.41414 3.58586L4.99992 5.00008L11.2929 11.293L12.7071 9.87883ZM17.5859 3.58586L11.2929 9.87883L12.7071 11.293L19.0001 5.00008L17.5859 3.58586ZM20.4141 4.99992L19.0001 3.58586L17.5859 5.00008L18.9999 6.41414L20.4141 4.99992ZM14.1212 12.7071L20.4141 6.41414L18.9999 4.99992L12.707 11.2929L14.1212 12.7071ZM20.4141 17.5859L14.1212 11.2929L12.707 12.7071L18.9999 19.0001L20.4141 17.5859ZM19.0001 20.4141L20.4141 19.0001L18.9999 17.5859L17.5859 18.9999L19.0001 20.4141ZM11.2929 14.1212L17.5859 20.4141L19.0001 18.9999L12.7071 12.707L11.2929 14.1212ZM6.41414 20.4141L12.7071 14.1212L11.2929 12.707L4.99992 18.9999L6.41414 20.4141ZM3.58586 19.0001L4.99992 20.4141L6.41414 18.9999L5.00008 17.5859L3.58586 19.0001ZM9.87883 11.2929L3.58586 17.5859L5.00008 19.0001L11.293 12.7071L9.87883 11.2929ZM3.58586 6.41414L9.87883 12.7071L11.293 11.2929L5.00008 4.99992L3.58586 6.41414Z" fill="black" mask="url(#path-1-inside-1)"/>
</svg>
