<svg width="24" height="24" viewBox="0 0 24 24" fill="none" xmlns="http://www.w3.org/2000/svg">
<path d="M11.6667 12.5C11.6667 10.9352 12.9352 9.66666 14.5 9.66666C16.0648 9.66666 17.3333 10.9352 17.3333 12.5C17.3333 14.0648 16.0648 15.3333 14.5 15.3333C12.9352 15.3333 11.6667 14.0648 11.6667 12.5Z" fill="black"/>
<path d="M6 18.1667C6 16.6019 7.26853 15.3333 8.83333 15.3333H11.6667V18.1667C11.6667 19.7315 10.3981 21 8.83333 21C7.26853 21 6 19.7315 6 18.1667Z" fill="black"/>
<path d="M11.6667 4V9.66667H14.5C16.0648 9.66667 17.3333 8.39814 17.3333 6.83333C17.3333 5.26853 16.0648 4 14.5 4H11.6667Z" fill="black"/>
<path d="M6 6.83332C6 8.39813 7.26853 9.66666 8.83333 9.66666H11.6667V3.99999L8.83333 3.99999C7.26853 3.99999 6 5.26852 6 6.83332Z" fill="black"/>
<path d="M6 12.5C6 14.0648 7.26853 15.3333 8.83333 15.3333H11.6667V9.66668H8.83333C7.26853 9.66668 6 10.9352 6 12.5Z" fill="black"/>
<path d="M11.6667 12.5C11.6667 10.9352 12.9352 9.66666 14.5 9.66666C16.0648 9.66666 17.3333 10.9352 17.3333 12.5C17.3333 14.0648 16.0648 15.3333 14.5 15.3333C12.9352 15.3333 11.6667 14.0648 11.6667 12.5Z" fill="black"/>
<path d="M6 18.1667C6 16.6019 7.26853 15.3333 8.83333 15.3333H11.6667V18.1667C11.6667 19.7315 10.3981 21 8.83333 21C7.26853 21 6 19.7315 6 18.1667Z" fill="black"/>
<path d="M11.6667 4V9.66667H14.5C16.0648 9.66667 17.3333 8.39814 17.3333 6.83333C17.3333 5.26853 16.0648 4 14.5 4H11.6667Z" fill="black"/>
<path d="M6 6.83332C6 8.39813 7.26853 9.66666 8.83333 9.66666H11.6667V3.99999L8.83333 3.99999C7.26853 3.99999 6 5.26852 6 6.83332Z" fill="black"/>
<path d="M6 12.5C6 14.0648 7.26853 15.3333 8.83333 15.3333H11.6667V9.66668H8.83333C7.26853 9.66668 6 10.9352 6 12.5Z" fill="black"/>
</svg>
