<svg width="25" height="17" viewBox="0 0 25 17" fill="none" xmlns="http://www.w3.org/2000/svg">
<g clip-path="url(#clip0)">
<path opacity="0.2" d="M16.0082 1.56738H1.54947C0.873547 1.56738 0.0800781 2.34616 0.0800781 3.03677V14.0572C0.0800781 14.7478 0.873547 15.5266 1.54947 15.5266H19.9168C20.5927 15.5266 21.3862 14.7478 21.3862 14.0572V8.52493C20.7673 9.08168 20.0029 9.45113 19.1821 9.59024V9.64902C19.1821 10.1339 18.9176 10.3837 18.4474 10.3837H2.28416C1.81396 10.3837 1.54947 10.1339 1.54947 9.64902V8.91432C1.54947 8.42942 1.81396 8.17963 2.28416 8.17963H15.1633C14.7392 7.70963 14.4217 7.15353 14.2325 6.54941C14.0433 5.94528 13.9869 5.30741 14.0671 4.67945C14.1474 4.0515 14.3624 3.4483 14.6974 2.91117C15.0324 2.37403 15.4796 1.91564 16.0082 1.56738V1.56738Z" fill="#333333"/>
<path d="M14.2891 3.77148H0.0800781V5.97557H14.098C13.9746 5.23653 14.0403 4.47827 14.2891 3.77148Z" fill="#333333"/>
</g>
<path d="M18.8924 10.2857C17.5317 10.2857 16.2266 9.74388 15.2645 8.77941C14.3023 7.81493 13.7617 6.50683 13.7617 5.14286C13.7617 3.77889 14.3023 2.47078 15.2645 1.50631C16.2266 0.541835 17.5317 0 18.8924 0C20.2531 0 21.5581 0.541835 22.5203 1.50631C23.4825 2.47078 24.0231 3.77889 24.0231 5.14286C24.0231 6.50683 23.4825 7.81493 22.5203 8.77941C21.5581 9.74388 20.2531 10.2857 18.8924 10.2857ZM16.8548 3.01224H16.2757L14.8611 3.73224V4.46694L15.9826 3.87918V7.27347H16.8621V3.01224H16.8548ZM18.5406 3.6C18.9584 3.6 19.2515 3.8351 19.2515 4.17306C19.2515 4.54041 18.907 4.79755 18.4086 4.79755H18.1888V5.42204H18.4526C18.9803 5.42204 19.3395 5.68653 19.3395 6.06857C19.3395 6.43592 18.9877 6.68571 18.4893 6.68571C18.1228 6.68571 17.7563 6.56816 17.3752 6.34041V7.0751C17.7856 7.25143 18.1961 7.34694 18.5992 7.34694C19.5594 7.34694 20.219 6.85469 20.219 6.14204C20.219 5.64245 19.9112 5.23837 19.3981 5.07673C19.8379 4.9298 20.1238 4.54041 20.1238 4.09959C20.1238 3.40898 19.5154 2.93878 18.6359 2.93878C18.2394 2.94318 17.8479 3.02816 17.4851 3.18857V3.90857C17.8369 3.7102 18.1961 3.6 18.5406 3.6ZM21.7069 5.20163C22.242 5.20163 22.6158 5.51755 22.6158 5.92898C22.6158 6.36245 22.242 6.66367 21.7069 6.66367C21.3844 6.66367 21.0473 6.56082 20.7028 6.34776V7.10449C21.0619 7.26612 21.4284 7.34694 21.7876 7.34694C21.9781 7.34694 22.154 7.31755 22.3226 7.27347C22.7037 6.64898 22.9236 5.92898 22.9236 5.15755L22.909 4.84898C22.6365 4.68729 22.324 4.60581 22.0074 4.61388C21.8755 4.61388 21.7362 4.62122 21.5897 4.64327V3.68816H22.6451C22.5536 3.453 22.4407 3.22675 22.3079 3.01224H20.8274V5.32653C21.1206 5.25306 21.4137 5.20163 21.7069 5.20163Z" fill="#333333"/>
<defs>
<clipPath id="clip0">
<rect width="23.5102" height="15.4286" fill="white" transform="translate(0.0800781 1.56738)"/>
</clipPath>
</defs>
</svg>
