<svg width="25" height="16" viewBox="0 0 25 16" fill="none" xmlns="http://www.w3.org/2000/svg">
<g clip-path="url(#clip0)">
<path d="M22.0324 15.7499L22.0346 15.7499C22.9868 15.7581 23.7681 14.9773 23.78 14.0042L23.78 2.0063C23.7762 1.53569 23.5894 1.08617 23.2613 0.756802C22.934 0.428269 22.4928 0.246149 22.0324 0.250071L2.09506 0.250062C1.63688 0.246149 1.19567 0.428269 0.868347 0.756802C0.540188 1.08617 0.353436 1.53569 0.349618 2.00426L0.349609 13.9937C0.353436 14.4643 0.540188 14.9138 0.868347 15.2432C1.19567 15.5717 1.63688 15.7538 2.09718 15.7499H22.0324ZM22.0314 16.2499C22.031 16.2499 22.0307 16.2499 22.0303 16.2499L22.0324 16.2499H22.0314Z" fill="#FEFEFE" stroke="black" stroke-opacity="0.2" stroke-width="0.5"/>
<path d="M12.6758 16.0002H22.0328C22.558 16.0046 23.0635 15.7995 23.438 15.4301C23.8124 15.0607 24.0253 14.5573 24.0296 14.0305V11.6719C20.4963 13.7062 16.6643 15.167 12.6758 16.0002Z" fill="#F27712"/>
<path d="M23.2044 9.29643H22.3545L21.3974 8.03023H21.3066V9.29643H20.6135V6.15161H21.6367C22.437 6.15161 22.8991 6.48264 22.8991 7.0785C22.8991 7.56678 22.6103 7.88126 22.0905 7.98057L23.2044 9.29643ZM22.1813 7.10333C22.1813 6.79712 21.9502 6.63988 21.5211 6.63988H21.3066V7.59161H21.5046C21.9502 7.59161 22.1813 7.42609 22.1813 7.10333ZM18.1876 6.15161H20.1514V6.68126H18.8807V7.38471H20.1019V7.92264H18.8807V8.77505H20.1514V9.30471H18.1876V6.15161ZM15.9597 9.37919L14.458 6.14333H15.2171L16.166 8.26195L17.1232 6.14333H17.8658L16.3476 9.37919H15.9762H15.9597ZM9.68046 9.37092C8.62429 9.37092 7.79915 8.65092 7.79915 7.71574C7.79915 6.8054 8.64079 6.06885 9.69696 6.06885C9.99401 6.06885 10.2416 6.12678 10.5469 6.25919V6.98747C10.3157 6.75965 10.0046 6.63187 9.68046 6.63161C9.02035 6.63161 8.51702 7.11161 8.51702 7.71574C8.51702 8.35299 9.0121 8.80816 9.71347 8.80816C10.027 8.80816 10.2663 8.70885 10.5469 8.46057V9.18885C10.2333 9.32126 9.96926 9.37092 9.68046 9.37092ZM7.58462 8.33643C7.58462 8.94885 7.08129 9.37092 6.35517 9.37092C5.82708 9.37092 5.44752 9.18885 5.12572 8.77505L5.57954 8.38609C5.73632 8.66747 6.00036 8.80816 6.33041 8.80816C6.64397 8.80816 6.86675 8.61781 6.86675 8.36954C6.86675 8.22885 6.80074 8.12126 6.66047 8.0385C6.50666 7.96365 6.3465 7.90271 6.18189 7.85643C5.53003 7.64954 5.30725 7.42609 5.30725 6.98747C5.30725 6.47436 5.78583 6.0854 6.41293 6.0854C6.80899 6.0854 7.1638 6.20954 7.46085 6.44126L7.09779 6.85505C6.9539 6.69683 6.75022 6.60671 6.5367 6.60678C6.23965 6.60678 6.02511 6.75574 6.02511 6.95436C6.02511 7.11988 6.14888 7.21092 6.56145 7.35161C7.35358 7.59988 7.58462 7.83161 7.58462 8.34471V8.33643ZM4.17681 6.15161H4.86993V9.30471H4.17681V6.15161ZM1.94895 9.30471H0.925781V6.15161H1.94895C3.07113 6.15161 3.84676 6.79712 3.84676 7.72402C3.84676 8.19574 3.61572 8.64264 3.2114 8.94057C2.86485 9.18885 2.47703 9.30471 1.9407 9.30471H1.94895ZM2.75758 6.93781C2.52654 6.75574 2.2625 6.68954 1.80868 6.68954H1.61889V8.77505H1.80868C2.25425 8.77505 2.53479 8.6923 2.75758 8.52678C2.99687 8.32816 3.13714 8.03023 3.13714 7.72402C3.13714 7.41781 2.99687 7.12816 2.75758 6.93781Z" fill="#332927"/>
<path d="M12.4764 6.06885C11.5688 6.06885 10.8262 6.79712 10.8262 7.69919C10.8262 8.65919 11.5358 9.37919 12.4764 9.37919C13.4006 9.37919 14.1267 8.65092 14.1267 7.72402C14.1267 6.79712 13.4088 6.06885 12.4764 6.06885Z" fill="#F27712"/>
</g>
<defs>
<clipPath id="clip0">
<rect width="23.9289" height="16" fill="white" transform="translate(0.0996094)"/>
</clipPath>
</defs>
</svg>
