<svg width="25" height="16" viewBox="0 0 25 16" fill="none" xmlns="http://www.w3.org/2000/svg">
<g clip-path="url(#clip0)">
<path d="M22.177 0H2.23626C1.13497 0 0.242188 0.89543 0.242188 2V14C0.242188 15.1046 1.13497 16 2.23626 16H22.177C23.2783 16 24.1711 15.1046 24.1711 14V2C24.1711 0.89543 23.2783 0 22.177 0Z" fill="#332927"/>
<path d="M9.21566 13C11.9689 13 14.2008 10.7614 14.2008 8C14.2008 5.23858 11.9689 3 9.21566 3C6.46241 3 4.23047 5.23858 4.23047 8C4.23047 10.7614 6.46241 13 9.21566 13Z" fill="#EB001B"/>
<path d="M15.1981 13C17.9513 13 20.1833 10.7614 20.1833 8C20.1833 5.23858 17.9513 3 15.1981 3C12.4448 3 10.2129 5.23858 10.2129 8C10.2129 10.7614 12.4448 13 15.1981 13Z" fill="#F79E1B"/>
<path fill-rule="evenodd" clip-rule="evenodd" d="M12.207 3.99951C13.4178 4.91172 14.201 6.36406 14.201 7.99988C14.201 9.6357 13.4178 11.088 12.207 12.0002C10.9961 11.088 10.2129 9.6357 10.2129 7.99988C10.2129 6.36406 10.9961 4.91172 12.207 3.99951Z" fill="#FF5F00"/>
</g>
<defs>
<clipPath id="clip0">
<rect width="23.9289" height="16" fill="white" transform="translate(0.242188)"/>
</clipPath>
</defs>
</svg>
