<svg width="25" height="16" viewBox="0 0 25 16" fill="none" xmlns="http://www.w3.org/2000/svg">
<g clip-path="url(#clip0)">
<path d="M21.9988 0.25H2.55658C1.45528 0.25 0.5625 1.14543 0.5625 2.25V13.75C0.5625 14.8546 1.45528 15.75 2.55658 15.75H21.9988C23.1001 15.75 23.9929 14.8546 23.9929 13.75V2.25C23.9929 1.14543 23.1001 0.25 21.9988 0.25Z" fill="#FEFEFE" stroke="black" stroke-opacity="0.2" stroke-width="0.5"/>
<path d="M3.09298 5.91444C2.57139 5.62751 1.97611 5.39674 1.31055 5.23659L1.33846 5.11188H4.06734C4.43722 5.12489 4.73736 5.23651 4.83502 5.63071L5.42808 8.46659L5.60976 9.32073L7.27081 5.11188H9.0643L6.39831 11.2775H4.60473L3.09298 5.91444ZM10.3836 11.2841H8.68746L9.74833 5.11188H11.4443L10.3836 11.2841ZM16.5321 5.26277L16.3014 6.59559L16.148 6.53004C15.8411 6.40525 15.436 6.28054 14.8846 6.29371C14.215 6.29371 13.9146 6.56277 13.9077 6.82546C13.9077 7.11441 14.271 7.30484 14.8642 7.58725C15.8414 8.02719 16.2947 8.56557 16.2879 9.26819C16.2742 10.5486 15.1155 11.3761 13.3359 11.3761C12.575 11.3694 11.8421 11.2181 11.4442 11.0476L11.6816 9.66205L11.9049 9.76066C12.4563 9.99071 12.8192 10.089 13.4963 10.089C13.9847 10.089 14.5082 9.89838 14.5149 9.48488C14.5149 9.21565 14.2918 9.01851 13.6356 8.71646C12.9936 8.42087 12.1352 7.92848 12.1491 7.04198C12.1564 5.84042 13.3359 5 15.0108 5C15.6669 5 16.1976 5.13789 16.5321 5.26277ZM18.7864 9.09749H20.1962C20.1264 8.78889 19.8052 7.31147 19.8052 7.31147L19.6867 6.77964C19.6029 7.00943 19.4565 7.38373 19.4635 7.37056C19.4635 7.37056 18.9261 8.7429 18.7864 9.09749ZM20.88 5.11188L22.2483 11.284H20.6779C20.6779 11.284 20.5242 10.5748 20.4755 10.3581H18.2979C18.2349 10.5222 17.9419 11.284 17.9419 11.284H16.1622L18.6816 5.62399C18.8561 5.22342 19.1635 5.11188 19.5681 5.11188H20.88Z" fill="#332927"/>
</g>
<defs>
<clipPath id="clip0">
<rect width="23.9289" height="16" fill="white" transform="translate(0.3125)"/>
</clipPath>
</defs>
</svg>
