<svg width="18" height="18" viewBox="0 0 18 18" fill="none" xmlns="http://www.w3.org/2000/svg">
<path d="M15.075 6C15.417 6 15.75 5.712 15.75 5.325V3.75H17.325C17.667 3.75 18 3.462 18 3.075C18 2.697 17.703 2.4 17.325 2.4H15.75V0.825C15.75 0.446999 15.453 0.149999 15.075 0.149999C14.697 0.149999 14.4 0.446999 14.4 0.825V2.4H12.825C12.447 2.4 12.15 2.697 12.15 3.075C12.15 3.444 12.447 3.75 12.825 3.75H14.4V5.325C14.4 5.694 14.697 6 15.075 6ZM9 16.35C12.978 16.35 16.2 13.128 16.2 9.15C16.2 8.745 16.164 8.322 16.092 7.899C16.038 7.593 15.75 7.35 15.426 7.35C15.057 7.35 14.751 7.656 14.751 8.025C14.751 8.178 14.85 8.583 14.85 9.15C14.85 12.381 12.231 15 9 15C5.769 15 3.15 12.381 3.15 9.15C3.15 5.919 5.769 3.3 9 3.3C9.459 3.3 10.017 3.399 10.125 3.399C10.494 3.399 10.8 3.093 10.8 2.724C10.8 2.391 10.548 2.139 10.242 2.058C10.026 2.004 9.603 1.95 9 1.95C5.022 1.95 1.8 5.172 1.8 9.15C1.8 13.128 5.022 16.35 9 16.35ZM6.75 8.7C7.497 8.7 8.1 8.097 8.1 7.35C8.1 6.603 7.497 6 6.75 6C6.003 6 5.4 6.603 5.4 7.35C5.4 8.097 6.003 8.7 6.75 8.7ZM11.25 8.7C11.997 8.7 12.6 8.097 12.6 7.35C12.6 6.603 11.997 6 11.25 6C10.503 6 9.9 6.603 9.9 7.35C9.9 8.097 10.503 8.7 11.25 8.7ZM9 13.65C11.583 13.65 12.6 11.67 12.6 10.725C12.6 10.365 12.321 10.05 11.925 10.05H6.075C5.679 10.05 5.4 10.365 5.4 10.725C5.4 11.706 6.453 13.65 9 13.65Z" fill="#B9BBBE"/>
</svg>
