<svg width="20" height="20" viewBox="0 0 20 20" fill="none" xmlns="http://www.w3.org/2000/svg">
<path fill-rule="evenodd" clip-rule="evenodd" d="M2 10C2 5.58799 5.5888 2 10 2C14.4112 2 18 5.58799 18 10V16.4C18 17.2832 17.2832 18 16.4 18H14.8C13.9168 18 13.2 17.2832 13.2 16.4V14C13.2 13.1168 13.9168 12.4 14.8 12.4H16.4V10C16.4 6.47039 13.5288 3.6 10 3.6C6.4712 3.6 3.6 6.47039 3.6 10V12.4H5.2C6.0832 12.4 6.8 13.1168 6.8 14V16.4C6.8 17.2832 6.0832 18 5.2 18H3.6C2.716 18 2 17.2832 2 16.4V10Z" fill="#B9BBBE"/>
</svg>
