<svg width="20" height="20" viewBox="0 0 20 20" fill="none" xmlns="http://www.w3.org/2000/svg">
<path fill-rule="evenodd" clip-rule="evenodd" d="M10 18C14.4183 18 18 14.4183 18 10C18 5.58172 14.4183 2 10 2C5.58172 2 2 5.58172 2 10C2 14.4183 5.58172 18 10 18ZM10 11.3334C8.38977 11.3334 7.32133 11.1458 6 10.8889C5.69822 10.8307 5.11111 10.8889 5.11111 11.7778C5.11111 13.5556 7.15333 15.7778 10 15.7778C12.8462 15.7778 14.8889 13.5556 14.8889 11.7778C14.8889 10.8889 14.3018 10.8303 14 10.8889C12.6787 11.1458 11.6102 11.3334 10 11.3334ZM8.44443 7.99998C8.44443 8.85909 7.94697 9.55554 7.33332 9.55554C6.71967 9.55554 6.22221 8.85909 6.22221 7.99998C6.22221 7.14087 6.71967 6.44442 7.33332 6.44442C7.94697 6.44442 8.44443 7.14087 8.44443 7.99998ZM12.6667 9.55554C13.2803 9.55554 13.7778 8.85909 13.7778 7.99998C13.7778 7.14087 13.2803 6.44442 12.6667 6.44442C12.053 6.44442 11.5556 7.14087 11.5556 7.99998C11.5556 8.85909 12.053 9.55554 12.6667 9.55554ZM10 12.2221C7.33333 12.2221 6 11.7777 6 11.7777C6 11.7777 6.88889 13.5555 10 13.5555C13.1111 13.5555 14 11.7777 14 11.7777C14 11.7777 12.6667 12.2221 10 12.2221Z" fill="#B9BBBE"/>
</svg>
