<svg width="20" height="20" viewBox="0 0 20 20" fill="none" xmlns="http://www.w3.org/2000/svg">
<path fill-rule="evenodd" clip-rule="evenodd" d="M2 4.33333C2 3.59695 2.59695 3 3.33333 3H16.6667C17.4031 3 18 3.59695 18 4.33333V15C18 15.7364 17.4031 16.3333 16.6667 16.3333H3.33333C2.59695 16.3333 2 15.7364 2 15V4.33333ZM6.49363 12.5707C7.25363 12.5707 7.93363 12.3627 8.50963 11.9867V9.29867H6.28563V10.3147H7.31763V11.2987C7.09363 11.4107 6.87763 11.4747 6.57363 11.4747C5.62163 11.4747 5.14163 10.7467 5.14163 9.70667C5.14163 8.67467 5.60563 7.97067 6.55763 7.97067C7.12563 7.97067 7.61363 8.17867 8.02963 8.44267L8.21363 7.25067C7.77363 7.00267 7.20563 6.84267 6.52563 6.84267C4.82163 6.84267 3.77363 8.00267 3.77363 9.71467C3.77363 11.4187 4.74163 12.5707 6.49363 12.5707ZM11.0667 6.94667H9.69873V12.4667H11.0667V6.94667ZM15.6483 8.09067V6.94667H12.3443V12.4667H13.7043V10.3627H15.2403V9.21867H13.7043V8.09067H15.6483Z" fill="#B9BBBE"/>
</svg>
