<svg width="20" height="20" viewBox="0 0 20 20" fill="none" xmlns="http://www.w3.org/2000/svg">
<path fill-rule="evenodd" clip-rule="evenodd" d="M9.63162 11.9841C11.1294 11.9841 12.3294 10.7693 12.3294 9.26438L12.3384 3.82494C12.3384 2.32003 11.1294 1.10522 9.63162 1.10522C8.13387 1.10522 6.92485 2.32003 6.92485 3.82494V9.26438C6.92485 10.7693 8.13387 11.9841 9.63162 11.9841ZM14.4136 9.26438C14.4136 11.9841 12.1218 13.8879 9.63162 13.8879C7.14139 13.8879 4.84966 11.9841 4.84966 9.26438H3.31583C3.31583 12.3558 5.76996 14.9123 8.72936 15.3565V18.3301H10.5339V15.3565C13.4933 14.9214 15.9474 12.3649 15.9474 9.26438H14.4136Z" fill="#B9BBBE"/>
</svg>
