<svg width="20" height="20" viewBox="0 0 20 20" fill="none" xmlns="http://www.w3.org/2000/svg">
<path fill-rule="evenodd" clip-rule="evenodd" d="M14.7268 13.2861C15.112 12.7346 15.3985 12.1104 15.5721 11.44H17.2V8.56005H15.5713C15.3985 7.88973 15.1113 7.26549 14.7261 6.71397L15.76 5.67933L14.32 4.23933L13.2868 5.27325C12.7338 4.88805 12.111 4.60149 11.44 4.42797V2.80005H8.55999V4.42869C7.88895 4.60149 7.26543 4.88805 6.71391 5.27397L5.67999 4.24005L4.23999 5.68005L5.27391 6.71397C4.88799 7.26549 4.60143 7.88901 4.42863 8.56005H2.79999V11.44H4.42863C4.60143 12.1111 4.88871 12.7353 5.27391 13.2861L4.23999 14.32L5.67999 15.76L6.71391 14.7261C7.26615 15.1113 7.88967 15.3986 8.55999 15.5714V17.2H11.44V15.5714C12.111 15.3986 12.7338 15.1113 13.2868 14.7261L14.32 15.76L15.76 14.32L14.7268 13.2861ZM12.88 10C12.88 11.5906 11.5905 12.88 9.99999 12.88C8.40941 12.88 7.11999 11.5906 7.11999 10C7.11999 8.40947 8.40941 7.12005 9.99999 7.12005C11.5905 7.12005 12.88 8.40947 12.88 10Z" fill="#B9BBBE"/>
</svg>
