<svg width="30" height="30" viewBox="0 0 30 30" fill="none" xmlns="http://www.w3.org/2000/svg">
<path d="M15 4C10.814 4 5.38086 5.04883 5.38086 5.04883L5.36719 5.06445C3.46066 5.36936 2 7.00762 2 9V15V15.002V21V21.002C2.00186 21.9535 2.34287 22.8732 2.9618 23.5959C3.58073 24.3187 4.43703 24.7971 5.37695 24.9453L5.38086 24.9512C5.38086 24.9512 10.814 26.002 15 26.002C19.186 26.002 24.6191 24.9512 24.6191 24.9512L24.6211 24.9492C25.562 24.8013 26.4193 24.3225 27.0387 23.5989C27.6581 22.8753 27.999 21.9544 28 21.002V21V15.002V15V9C27.9986 8.04813 27.6578 7.12795 27.0388 6.40481C26.4199 5.68166 25.5633 5.20295 24.623 5.05469L24.6191 5.04883C24.6191 5.04883 19.186 4 15 4ZM12 10.3984L20 15L12 19.6016V10.3984Z" fill="white"/>
</svg>
