<svg width="30" height="30" viewBox="0 0 30 30" fill="none" xmlns="http://www.w3.org/2000/svg">
<path fill-rule="evenodd" clip-rule="evenodd" d="M2 10.5449C2 6.38958 5.38958 3 9.54492 3C12.159 3 14.0101 4.43855 15 5.45703C15.9899 4.43855 17.841 3 20.4551 3C24.6104 3 28 6.38958 28 10.5449C28 14.2832 25.0995 18.0847 22.3398 21.1191C19.5802 24.1536 16.8281 26.3691 16.8281 26.3691C16.823 26.3732 16.8178 26.3773 16.8126 26.3812C16.8093 26.3837 16.806 26.3862 16.8027 26.3887C16.3592 26.7237 15.8029 26.9404 15.1992 26.9824L15.1895 26.9844C15.1269 26.9956 15.0635 27.0008 15 27C14.9358 27.0009 14.8717 26.9957 14.8086 26.9844C14.2018 26.9439 13.6428 26.7251 13.1973 26.3887C13.1887 26.3823 13.1802 26.3758 13.1719 26.3691C13.1719 26.3691 10.4198 24.1536 7.66016 21.1191C4.90055 18.0847 2 14.2832 2 10.5449ZM14.1035 7.47461C13.9378 7.24245 12.2761 5 9.54492 5C6.47026 5 4 7.47026 4 10.5449C4 13.1477 6.50023 16.8701 9.14062 19.7734C11.7665 22.6608 14.3812 24.7715 14.41 24.7948L14.4102 24.7949C14.5858 24.9256 14.7809 25 15 25C15.2191 25 15.4142 24.9256 15.5898 24.7949L15.59 24.7948C15.6176 24.7725 18.2329 22.6615 20.8594 19.7734C23.4998 16.8701 26 13.1477 26 10.5449C26 7.47026 23.5297 5 20.4551 5C17.7161 5 16.0499 7.25751 15.8926 7.47852C15.8163 7.62309 15.7057 7.74676 15.5705 7.8387C15.4353 7.93063 15.2797 7.98803 15.1172 8.00586C15.0919 8.00878 15.0665 8.01074 15.041 8.01172L15.0176 8.01367H14.9941C14.8105 8.01425 14.6303 7.96425 14.4732 7.86916C14.3161 7.77408 14.1882 7.63757 14.1035 7.47461Z" fill="black"/>
</svg>
