<svg width="30" height="30" viewBox="0 0 30 30" fill="none" xmlns="http://www.w3.org/2000/svg">
<path fill-rule="evenodd" clip-rule="evenodd" d="M3 13C3 7.489 7.489 3 13 3C18.511 3 23 7.489 23 13C23 15.3965 22.149 17.5974 20.7363 19.3223L26.707 25.293C26.803 25.3851 26.8796 25.4955 26.9324 25.6176C26.9852 25.7397 27.0131 25.8712 27.0144 26.0042C27.0158 26.1373 26.9906 26.2692 26.9403 26.3924C26.89 26.5156 26.8157 26.6275 26.7216 26.7216C26.6275 26.8157 26.5156 26.89 26.3924 26.9403C26.2692 26.9906 26.1373 27.0158 26.0042 27.0144C25.8712 27.0131 25.7397 26.9852 25.6176 26.9324C25.4955 26.8796 25.3851 26.803 25.293 26.707L19.3223 20.7363C17.5974 22.149 15.3965 23 13 23C7.489 23 3 18.511 3 13ZM21 13C21 8.56988 17.4301 5 13 5C8.56988 5 5 8.56988 5 13C5 17.4301 8.56988 21 13 21C17.4301 21 21 17.4301 21 13Z" fill="black"/>
</svg>
