<svg width="30" height="30" viewBox="0 0 30 30" fill="none" xmlns="http://www.w3.org/2000/svg">
<path fill-rule="evenodd" clip-rule="evenodd" d="M1.25485 2.51709L5.51755 2.49512L6.56247 5H24.9975C25.44 5 25.8516 5.23398 26.0766 5.61524C26.3016 5.99774 26.3075 6.47041 26.0913 6.85791L21.5869 14.9634C21.1469 15.7559 20.3106 16.25 19.4018 16.25H10.0659L8.59616 18.6035L8.67673 18.75H23.75V21.25H8.67673C7.73423 21.25 6.86616 20.7383 6.40866 19.9146C5.95116 19.0908 5.97702 18.0803 6.47702 17.2803L7.9736 14.8853L3.85495 5.00488L1.26706 5.01709L1.25485 2.51709ZM19.4018 13.75L22.8735 7.5H7.60251L10.2075 13.75H19.4018ZM6.9822 23.2322C7.45104 22.7634 8.08693 22.5 8.74997 22.5C8.79141 22.5 8.83274 22.501 8.87394 22.5031C9.49185 22.5337 10.0782 22.7927 10.5177 23.2322C10.9866 23.7011 11.25 24.337 11.25 25C11.25 25.663 10.9866 26.2989 10.5177 26.7678C10.0489 27.2366 9.41301 27.5 8.74997 27.5C8.08693 27.5 7.45104 27.2366 6.9822 26.7678C6.51336 26.2989 6.24997 25.663 6.24997 25C6.24997 24.337 6.51336 23.7011 6.9822 23.2322ZM19.4822 23.2322C19.951 22.7634 20.5869 22.5 21.25 22.5C21.913 22.5 22.5489 22.7634 23.0177 23.2322C23.4866 23.7011 23.75 24.337 23.75 25C23.75 25.663 23.4866 26.2989 23.0177 26.7678C22.5489 27.2366 21.913 27.5 21.25 27.5C20.5869 27.5 19.951 27.2366 19.4822 26.7678C19.0134 26.2989 18.75 25.663 18.75 25C18.75 24.337 19.0134 23.7011 19.4822 23.2322Z" fill="black"/>
</svg>
