<svg width="56" height="56" viewBox="0 0 56 56" fill="none" xmlns="http://www.w3.org/2000/svg">
<g clip-path="url(#clip0)">
<path fill-rule="evenodd" clip-rule="evenodd" d="M27.8145 2.28882e-05C29.0947 2.28882e-05 30.1324 1.03777 30.1324 2.3179V6.95366C30.1324 8.23379 29.0947 9.27154 27.8145 9.27154C26.5344 9.27154 25.4967 8.23379 25.4967 6.95366V2.3179C25.4967 1.03777 26.5344 2.28882e-05 27.8145 2.28882e-05ZM27.8145 18.5431C22.694 18.5431 18.543 22.6941 18.543 27.8146C18.543 32.9351 22.694 37.0861 27.8145 37.0861C32.9351 37.0861 37.0861 32.9351 37.0861 27.8146C37.0861 22.6941 32.9351 18.5431 27.8145 18.5431ZM13.9073 27.8146C13.9073 20.1338 20.1338 13.9073 27.8145 13.9073C35.4953 13.9073 41.7218 20.1338 41.7218 27.8146C41.7218 35.4954 35.4953 41.7219 27.8145 41.7219C20.1338 41.7219 13.9073 35.4954 13.9073 27.8146ZM30.1324 48.6755C30.1324 47.3953 29.0947 46.3576 27.8145 46.3576C26.5344 46.3576 25.4967 47.3953 25.4967 48.6755V53.3112C25.4967 54.5914 26.5344 55.6291 27.8145 55.6291C29.0947 55.6291 30.1324 54.5914 30.1324 53.3112V48.6755ZM8.14239 8.14242C9.04758 7.23723 10.5152 7.23723 11.4204 8.14242L14.7118 11.4338C15.6169 12.339 15.6169 13.8066 14.7118 14.7118C13.8066 15.617 12.339 15.617 11.4338 14.7118L8.14239 11.4204C7.2372 10.5152 7.2372 9.0476 8.14239 8.14242ZM44.1952 40.9173C43.29 40.0121 41.8224 40.0121 40.9172 40.9173C40.012 41.8224 40.012 43.29 40.9172 44.1952L44.2086 47.4866C45.1138 48.3918 46.5814 48.3918 47.4866 47.4866C48.3918 46.5814 48.3918 45.1138 47.4866 44.2086L44.1952 40.9173ZM0 27.8146C0 26.5344 1.03775 25.4967 2.31788 25.4967H6.95364C8.23376 25.4967 9.27151 26.5344 9.27151 27.8146C9.27151 29.0947 8.23376 30.1325 6.95364 30.1325H2.31788C1.03775 30.1325 0 29.0947 0 27.8146ZM48.6755 25.4967C47.3953 25.4967 46.3576 26.5344 46.3576 27.8146C46.3576 29.0947 47.3953 30.1325 48.6755 30.1325H53.3112C54.5913 30.1325 55.6291 29.0947 55.6291 27.8146C55.6291 26.5344 54.5913 25.4967 53.3112 25.4967H48.6755ZM14.7118 40.9173C15.6169 41.8224 15.6169 43.29 14.7118 44.1952L11.4204 47.4866C10.5152 48.3918 9.04758 48.3918 8.14239 47.4866C7.2372 46.5814 7.2372 45.1138 8.14239 44.2086L11.4338 40.9173C12.339 40.0121 13.8066 40.0121 14.7118 40.9173ZM47.4866 11.4204C48.3918 10.5152 48.3918 9.0476 47.4866 8.14242C46.5814 7.23723 45.1138 7.23723 44.2086 8.14242L40.9172 11.4338C40.012 12.339 40.012 13.8066 40.9172 14.7118C41.8224 15.617 43.29 15.617 44.1952 14.7118L47.4866 11.4204Z" fill="#FF8906"/>
</g>
<defs>
<clipPath id="clip0">
<rect width="55.6291" height="55.6291" fill="white"/>
</clipPath>
</defs>
</svg>
