<svg width="24" height="24" viewBox="0 0 24 24" fill="none" xmlns="http://www.w3.org/2000/svg">
<path d="M4.58789 3C4.06289 3 3.62684 3.40569 3.58984 3.92969L3.01367 12.0137C2.83663 14.4859 4.61858 16.6115 7 16.9473V20H5C4.448 20 4 20.448 4 21C4 21.552 4.448 22 5 22H11C11.552 22 12 21.552 12 21C12 20.448 11.552 20 11 20H9V16.9473C11.3814 16.6115 13.1644 14.4859 12.9883 12.0137L12.4102 3.92969C12.3722 3.40569 11.9371 3 11.4121 3H4.58789ZM17 3C16.448 3 16 3.448 16 4V10H14.8496L14.9824 11.8691C15.0294 12.5231 14.9731 13.1766 14.8301 13.8066C15.2021 13.9216 15.591 14 16 14V21C16 21.552 16.448 22 17 22C17.552 22 18 21.552 18 21V14C20.209 14 22 12.209 22 10V4C22 3.448 21.552 3 21 3C20.448 3 20 3.448 20 4V10H18V4C18 3.448 17.552 3 17 3Z" fill="white"/>
</svg>
