<svg width="24" height="24" viewBox="0 0 24 24" fill="none" xmlns="http://www.w3.org/2000/svg">
<path d="M4 4C2.9 4 2 4.9 2 6V9.15039C2 9.56539 2.23786 9.97056 2.63086 10.1016C3.42486 10.3676 4 11.12 4 12C4 12.88 3.42486 13.6324 2.63086 13.8984C2.23786 14.0294 2 14.4346 2 14.8496V18C2 19.1 2.9 20 4 20H20C21.1 20 22 19.1 22 18V14.8496C22 14.4346 21.7621 14.0294 21.3691 13.8984C20.5751 13.6324 20 12.88 20 12C20 11.12 20.5751 10.3676 21.3691 10.1016C21.7621 9.97056 22 9.56539 22 9.15039V6C22 4.9 21.1 4 20 4H4ZM12 6.80078L13.4004 10.0996L17 10.4004L14.3008 12.8008L15.0996 16.1992L12 14.4004L8.90039 16.3008L9.69922 12.8008L7 10.4004L10.5996 10.0996L12 6.80078Z" fill="white"/>
</svg>
