<svg width="24" height="24" viewBox="0 0 24 24" fill="none" xmlns="http://www.w3.org/2000/svg">
<path d="M12 3C10.9391 3 9.92172 3.42143 9.17157 4.17157C8.42143 4.92172 8 5.93913 8 7C8 8.06087 8.42143 9.07828 9.17157 9.82843C9.92172 10.5786 10.9391 11 12 11C13.0609 11 14.0783 10.5786 14.8284 9.82843C15.5786 9.07828 16 8.06087 16 7C16 5.93913 15.5786 4.92172 14.8284 4.17157C14.0783 3.42143 13.0609 3 12 3ZM18 12C14.7 12 12 14.7 12 18C12 21.3 14.7 24 18 24C21.3 24 24 21.3 24 18C24 14.7 21.3 12 18 12ZM11.0508 14.0469C7.89078 14.3089 3 15.796 3 18.5V21H10.5879C10.2119 20.073 10 19.062 10 18C10 16.56 10.3848 15.2139 11.0508 14.0469ZM18 15C18.552 15 19 15.448 19 16V17H20C20.552 17 21 17.448 21 18C21 18.552 20.552 19 20 19H19V20C19 20.552 18.552 21 18 21C17.448 21 17 20.552 17 20V19H16C15.448 19 15 18.552 15 18C15 17.448 15.448 17 16 17H17V16C17 15.448 17.448 15 18 15Z" fill="white"/>
</svg>
