<svg width="24" height="24" viewBox="0 0 24 24" fill="none" xmlns="http://www.w3.org/2000/svg">
<path d="M13.5 2C12.672 2 12 2.672 12 3.5V4H3C1.90694 4 1 4.90694 1 6V17C1.00003 17.2652 1.10539 17.5195 1.29292 17.7071C1.48045 17.8946 1.73479 18 2 18H4C4 19.645 5.35499 21 7 21C8.64501 21 10 19.645 10 18H14C14 19.645 15.355 21 17 21C18.645 21 20 19.645 20 18H22C22.2652 18 22.5195 17.8946 22.7071 17.7071C22.8946 17.5195 23 17.2652 23 17V11C23 10.8447 22.9639 10.6916 22.8945 10.5527L20.1719 5.10742L20.1699 5.10547C19.8323 4.43058 19.1373 4 18.3828 4H15V3.5C15 2.672 14.328 2 13.5 2ZM16 6H18.3809L20.8809 11H17C16.448 11 16 10.552 16 10V6ZM8 7C8.552 7 9 7.448 9 8V9H10C10.552 9 11 9.448 11 10C11 10.552 10.552 11 10 11H9V12C9 12.552 8.552 13 8 13C7.448 13 7 12.552 7 12V11H6C5.448 11 5 10.552 5 10C5 9.448 5.448 9 6 9H7V8C7 7.448 7.448 7 8 7ZM7 17C7.56413 17 8 17.4359 8 18C8 18.5641 7.56413 19 7 19C6.43587 19 6 18.5641 6 18C6 17.4359 6.43587 17 7 17ZM17 17C17.5641 17 18 17.4359 18 18C18 18.5641 17.5641 19 17 19C16.4359 19 16 18.5641 16 18C16 17.4359 16.4359 17 17 17Z" fill="white"/>
</svg>
