<svg width="24" height="24" viewBox="0 0 24 24" fill="none" xmlns="http://www.w3.org/2000/svg">
<path d="M5 4C3.895 4 3 4.895 3 6V10C3 10.552 3.448 11 4 11C4.552 11 5 10.552 5 10V9C5 8.448 5.448 8 6 8H10C10.552 8 11 8.448 11 9V10C11 10.552 11.448 11 12 11C12.552 11 13 10.552 13 10V9C13 8.448 13.448 8 14 8H18C18.552 8 19 8.448 19 9V10C19 10.552 19.448 11 20 11C20.552 11 21 10.552 21 10V6C21 4.895 20.105 4 19 4H5ZM4 13C2.895 13 2 13.895 2 15V21C2 21.552 2.448 22 3 22C3.552 22 4 21.552 4 21V20H20V21C20 21.552 20.448 22 21 22C21.552 22 22 21.552 22 21V15C22 13.895 21.105 13 20 13H4Z" fill="white"/>
</svg>
