<svg width="24" height="24" viewBox="0 0 24 24" fill="none" xmlns="http://www.w3.org/2000/svg">
<path fill-rule="evenodd" clip-rule="evenodd" d="M9.70711 4.70711C10.0976 4.31658 10.0976 3.68342 9.70711 3.29289C9.31658 2.90237 8.68342 2.90237 8.29289 3.29289L3.29329 8.2925L3.29289 8.29289M9.70711 4.70711L6.41421 8ZM6.41421 8H16C17.3261 8 18.5979 8.52678 19.5355 9.46447C20.4732 10.4021 21 11.6739 21 13V20C21 20.5523 20.5523 21 20 21C19.4477 21 19 20.5523 19 20V13C19 12.2044 18.6839 11.4413 18.1213 10.8787C17.5587 10.3161 16.7956 10 16 10H6.41421L9.70711 13.2929C10.0976 13.6834 10.0976 14.3166 9.70711 14.7071C9.31658 15.0976 8.68342 15.0976 8.29289 14.7071L3.29329 9.7075L3.29289 9.70711M3.29078 9.70498C3.19595 9.6096 3.12432 9.49986 3.07588 9.38278ZM3.29078 8.29502C3.11106 8.47581 3 8.72494 3 9C3 9.13559 3.02699 9.26488 3.07588 9.38278" fill="black"/>
</svg>
