<svg width="24" height="24" viewBox="0 0 24 24" fill="none" xmlns="http://www.w3.org/2000/svg">
<path fill-rule="evenodd" clip-rule="evenodd" d="M13.6572 3.26703C14.2202 2.704 14.9838 2.3877 15.78 2.3877C16.5763 2.3877 17.3399 2.704 17.9029 3.26703C18.466 3.83005 18.7823 4.59368 18.7823 5.38992C18.7823 6.18598 18.4661 6.94944 17.9033 7.51243L17.9029 7.51281L8.70332 16.7024L8.70294 16.7028C8.51519 16.8906 8.26056 16.996 7.99505 16.996C7.72954 16.996 7.4749 16.8906 7.28715 16.7028C7.09941 16.5151 6.99393 16.2604 6.99393 15.9949C6.99393 15.7296 7.09925 15.4751 7.28674 15.2874L7.28685 15.2873L7.28715 15.287L15.7767 6.80744C16.1675 6.41715 16.1679 5.78398 15.7776 5.39323C15.3873 5.00247 14.7541 5.0021 14.3634 5.3924L5.87336 13.8724L5.87294 13.8728C5.31012 14.4356 4.99393 15.199 4.99393 15.9949C4.99393 16.7909 5.31012 17.5542 5.87294 18.117C6.43576 18.6798 7.1991 18.996 7.99505 18.996C8.79099 18.996 9.55434 18.6798 10.1172 18.117L19.3168 8.92741L19.3172 8.92703C20.2553 7.98893 20.7823 6.71659 20.7823 5.38992C20.7823 4.06325 20.2553 2.79091 19.3172 1.85281C18.3791 0.914714 17.1067 0.387695 15.78 0.387695C14.4534 0.387695 13.181 0.914714 12.2429 1.85281L3.05294 11.0428C1.73956 12.3562 1.00171 14.1375 1.00171 15.9949C1.00171 17.8523 1.73956 19.6336 3.05294 20.947C4.36632 22.2604 6.14765 22.9983 8.00505 22.9983C9.86245 22.9983 11.6438 22.2604 12.9572 20.947L22.1472 11.757C22.5377 11.3665 22.5377 10.7333 22.1472 10.3428C21.7566 9.95229 21.1235 9.95229 20.7329 10.3428L11.5429 19.5328C10.6046 20.4711 9.33201 20.9983 8.00505 20.9983C6.67808 20.9983 5.40546 20.4711 4.46715 19.5328C3.52884 18.5945 3.00171 17.3219 3.00171 15.9949C3.00171 14.668 3.52884 13.3953 4.46715 12.457L13.6572 3.26703Z" fill="black"/>
</svg>
