<svg width="25" height="25" viewBox="0 0 25 25" fill="none" xmlns="http://www.w3.org/2000/svg">
<path fill-rule="evenodd" clip-rule="evenodd" d="M9.64046 7.4743C9.64046 5.81745 10.9836 4.4743 12.6405 4.4743C14.2973 4.4743 15.6405 5.81745 15.6405 7.4743C15.6405 9.13116 14.2973 10.4743 12.6405 10.4743C10.9836 10.4743 9.64046 9.13116 9.64046 7.4743ZM12.6405 2.4743C9.87903 2.4743 7.64046 4.71288 7.64046 7.4743C7.64046 10.2357 9.87903 12.4743 12.6405 12.4743C15.4019 12.4743 17.6405 10.2357 17.6405 7.4743C17.6405 4.71288 15.4019 2.4743 12.6405 2.4743ZM8.64046 14.4743C7.31437 14.4743 6.0426 15.0011 5.10492 15.9388C4.16724 16.8765 3.64046 18.1482 3.64046 19.4743V21.4743C3.64046 22.0266 4.08817 22.4743 4.64046 22.4743C5.19274 22.4743 5.64046 22.0266 5.64046 21.4743V19.4743C5.64046 18.6787 5.95653 17.9156 6.51914 17.353C7.08175 16.7904 7.84481 16.4743 8.64046 16.4743H16.6405C17.4361 16.4743 18.1992 16.7904 18.7618 17.353C19.3244 17.9156 19.6405 18.6787 19.6405 19.4743V21.4743C19.6405 22.0266 20.0882 22.4743 20.6405 22.4743C21.1927 22.4743 21.6405 22.0266 21.6405 21.4743V19.4743C21.6405 18.1482 21.1137 16.8765 20.176 15.9388C19.2383 15.0011 17.9665 14.4743 16.6405 14.4743H8.64046Z" fill="black"/>
</svg>
