<svg width="24" height="24" viewBox="0 0 24 24" fill="none" xmlns="http://www.w3.org/2000/svg">
<path fill-rule="evenodd" clip-rule="evenodd" d="M12 1C10.1435 1 8.36299 1.7375 7.05024 3.05025C5.73748 4.36301 4.99999 6.14348 4.99999 8C4.99999 11.3527 4.28292 13.4346 3.62209 14.6461C3.2903 15.2544 2.96721 15.6535 2.74278 15.8904C2.63031 16.0091 2.54192 16.0878 2.48871 16.1322C2.46209 16.1544 2.44423 16.168 2.43653 16.1737L2.43368 16.1758C2.07519 16.4221 1.91655 16.8725 2.04289 17.2898C2.17059 17.7115 2.55932 18 2.99999 18H21C21.4407 18 21.8294 17.7115 21.9571 17.2898C22.0834 16.8725 21.9248 16.4221 21.5663 16.1758L21.5634 16.1737C21.5557 16.168 21.5379 16.1544 21.5113 16.1322C21.458 16.0878 21.3697 16.0091 21.2572 15.8904C21.0328 15.6535 20.7097 15.2544 20.3779 14.6461C19.7171 13.4346 19 11.3527 19 8C19 6.14349 18.2625 4.36301 16.9497 3.05025C15.637 1.7375 13.8565 1 12 1ZM18.6221 15.6039C18.6982 15.7434 18.7746 15.8753 18.8507 16H5.14931C5.2254 15.8753 5.30178 15.7434 5.37788 15.6039C6.21705 14.0654 6.99999 11.6473 6.99999 8C6.99999 6.67392 7.52677 5.40215 8.46445 4.46447C9.40213 3.52678 10.6739 3 12 3C13.3261 3 14.5978 3.52678 15.5355 4.46447C16.4732 5.40215 17 6.67392 17 8C17 11.6473 17.7829 14.0654 18.6221 15.6039ZM11.135 20.4982C10.8579 20.0205 10.2459 19.8579 9.7682 20.135C9.29048 20.4121 9.12785 21.024 9.40498 21.5018C9.66869 21.9564 10.0472 22.3337 10.5026 22.5961C10.9581 22.8584 11.4744 22.9965 12 22.9965C12.5255 22.9965 13.0419 22.8584 13.4973 22.5961C13.9527 22.3337 14.3313 21.9564 14.595 21.5018C14.8721 21.024 14.7095 20.4121 14.2317 20.135C13.754 19.8579 13.1421 20.0205 12.865 20.4982C12.7771 20.6498 12.6509 20.7756 12.4991 20.863C12.3473 20.9504 12.1752 20.9965 12 20.9965C11.8248 20.9965 11.6527 20.9504 11.5009 20.863C11.3491 20.7756 11.2229 20.6498 11.135 20.4982Z" fill="#E4E6EA"/>
<rect x="10" width="14" height="14" rx="7" fill="#DD3E4E"/>
<path d="M14.1132 11C14.0332 11 13.9652 10.972 13.9092 10.916C13.8532 10.86 13.8252 10.792 13.8252 10.712V10.1C13.8252 9.884 13.9252 9.696 14.1252 9.536L16.0212 7.652C16.8452 7.004 17.4172 6.5 17.7372 6.14C18.0652 5.772 18.2292 5.412 18.2292 5.06C18.2292 4.684 18.1252 4.388 17.9172 4.172C17.7172 3.956 17.4132 3.848 17.0052 3.848C16.6052 3.848 16.2892 3.968 16.0572 4.208C15.8252 4.44 15.6812 4.744 15.6252 5.12C15.6012 5.216 15.5572 5.288 15.4932 5.336C15.4292 5.376 15.3572 5.396 15.2772 5.396H14.2092C14.1372 5.396 14.0772 5.372 14.0292 5.324C13.9812 5.276 13.9572 5.22 13.9572 5.156C13.9732 4.684 14.1012 4.244 14.3412 3.836C14.5812 3.42 14.9292 3.088 15.3852 2.84C15.8412 2.584 16.3772 2.456 16.9932 2.456C17.6332 2.456 18.1732 2.568 18.6132 2.792C19.0612 3.008 19.3972 3.308 19.6212 3.692C19.8452 4.076 19.9572 4.512 19.9572 5C19.9572 5.536 19.8052 6.02 19.5012 6.452C19.2052 6.884 18.7492 7.348 18.1332 7.844L16.4292 9.572H19.8492C19.9372 9.572 20.0052 9.6 20.0532 9.656C20.1092 9.704 20.1372 9.772 20.1372 9.86V10.712C20.1372 10.792 20.1092 10.86 20.0532 10.916C20.0052 10.972 19.9372 11 19.8492 11H14.1132Z" fill="#E4E6EA"/>
</svg>
