<svg width="24" height="24" viewBox="0 0 24 24" fill="none" xmlns="http://www.w3.org/2000/svg">
<path fill-rule="evenodd" clip-rule="evenodd" d="M11 1C10.6048 1 10.2467 1.23273 10.0862 1.59386L6.35013 10H4C3.20435 10 2.44129 10.3161 1.87868 10.8787C1.31607 11.4413 1 12.2044 1 13V20C1 20.7957 1.31607 21.5587 1.87868 22.1213C2.44129 22.6839 3.20435 23 4 23H7H18.2748C18.9961 23.0067 19.6958 22.7532 20.2456 22.2859C20.7966 21.8175 21.1599 21.1658 21.2686 20.4507L21.2687 20.4499L22.6484 11.4516L22.6487 11.4501C22.7139 11.0201 22.6849 10.5811 22.5637 10.1634C22.4424 9.7458 22.2318 9.3595 21.9465 9.03134C21.6611 8.70317 21.3078 8.44096 20.911 8.26289C20.5162 8.08567 20.0876 7.996 19.6549 8H15V5C15 3.93913 14.5786 2.92172 13.8284 2.17157C13.0783 1.42143 12.0609 1 11 1ZM11.6078 3.0946L8 11.2122V21H18.28H18.2913V21.0001C18.5325 21.0028 18.7665 20.9183 18.9503 20.7621C19.134 20.6059 19.2551 20.3885 19.2913 20.1501L19.2916 20.1484L20.6713 11.1499L20.6714 11.1495C20.6931 11.0063 20.6834 10.8601 20.643 10.7211C20.6026 10.5818 20.5324 10.4531 20.4373 10.3437C20.3421 10.2343 20.2244 10.1469 20.0921 10.0875C19.9599 10.0282 19.8163 9.99829 19.6713 9.99994L19.66 10.0001V10H14C13.4477 10 13 9.55228 13 9V5C13 4.46957 12.7893 3.96086 12.4142 3.58579C12.1864 3.35794 11.9092 3.19075 11.6078 3.0946ZM3.29289 12.2929C3.48043 12.1054 3.73478 12 4 12H6V21H4C3.73478 21 3.48043 20.8946 3.29289 20.7071C3.10536 20.5196 3 20.2652 3 20V13C3 12.7348 3.10536 12.4804 3.29289 12.2929Z" fill="#E4E6EA"/>
</svg>
