<svg width="24" height="24" viewBox="0 0 24 24" fill="none" xmlns="http://www.w3.org/2000/svg">
<path fill-rule="evenodd" clip-rule="evenodd" d="M15.7071 3.29289C15.3166 2.90237 14.6834 2.90237 14.2929 3.29289C13.9024 3.68342 13.9024 4.31658 14.2929 4.70711L17.5858 8H8C6.67392 8 5.40215 8.52678 4.46447 9.46447C3.52678 10.4021 3 11.6739 3 13V20C3 20.5523 3.44772 21 4 21C4.55228 21 5 20.5523 5 20V13C5 12.2044 5.31607 11.4413 5.87868 10.8787C6.44129 10.3161 7.20435 10 8 10H17.5858L14.2929 13.2929C13.9024 13.6834 13.9024 14.3166 14.2929 14.7071C14.6834 15.0976 15.3166 15.0976 15.7071 14.7071L20.7071 9.70711C20.8902 9.52405 20.9874 9.28768 20.9989 9.04797C20.9996 9.03199 21 9.016 21 9M20.9241 8.61722C20.8753 8.49927 20.803 8.38877 20.7071 8.29289L15.7071 3.29289M20.9241 8.61722C20.9719 8.73244 20.9988 8.85854 21 8.99077L20.9241 8.61722Z" fill="#E4E6EA"/>
</svg>
