<svg width="24" height="24" viewBox="0 0 24 24" fill="none" xmlns="http://www.w3.org/2000/svg">
<path fill-rule="evenodd" clip-rule="evenodd" d="M19 12L5 3V21L19 12Z" fill="black"/>
<path d="M5 3L5.54076 2.15882C5.23305 1.96101 4.84189 1.947 4.52081 2.12229C4.19974 2.29758 4 2.63419 4 3H5ZM19 12L19.5408 12.8412C19.827 12.6572 20 12.3403 20 12C20 11.6597 19.827 11.3428 19.5408 11.1588L19 12ZM5 21H4C4 21.3658 4.19974 21.7024 4.52081 21.8777C4.84189 22.053 5.23305 22.039 5.54076 21.8412L5 21ZM4.45924 3.84118L18.4592 12.8412L19.5408 11.1588L5.54076 2.15882L4.45924 3.84118ZM6 21V3H4V21H6ZM18.4592 11.1588L4.45924 20.1588L5.54076 21.8412L19.5408 12.8412L18.4592 11.1588Z" fill="black"/>
</svg>
