<svg width="24" height="24" viewBox="0 0 24 24" fill="none" xmlns="http://www.w3.org/2000/svg">
<path fill-rule="evenodd" clip-rule="evenodd" d="M19.777 4.22321C19.4911 3.93714 19.0609 3.85153 18.6872 4.0063C18.3135 4.16106 18.0698 4.52572 18.0698 4.9302V8.51927C17.7625 7.98408 17.385 7.49072 16.9465 7.05271C16.6604 6.76694 16.2304 6.68159 15.8569 6.83643C15.4833 6.99128 15.2398 7.35584 15.2398 7.76021V16.2502C15.2398 16.6546 15.4833 17.0191 15.8569 17.174C16.2304 17.3288 16.6604 17.2435 16.9465 16.9577C17.385 16.5197 17.7625 16.0263 18.0698 15.4911V19.0702C18.0698 19.4747 18.3135 19.8393 18.6872 19.9941C19.0609 20.1489 19.4911 20.0633 19.777 19.7772C21.8392 17.7144 22.9977 14.917 22.9977 12.0002C22.9977 9.0834 21.8392 6.28601 19.777 4.22321ZM5.63703 5.63721C6.0275 5.24662 6.0274 4.61346 5.63682 4.22299C5.24623 3.83253 4.61307 3.83262 4.2226 4.22321C2.16042 6.28601 1.00195 9.0834 1.00195 12.0002C1.00195 14.917 2.16042 17.7144 4.2226 19.7772C4.61307 20.1678 5.24623 20.1679 5.63682 19.7774C6.0274 19.387 6.0275 18.7538 5.63703 18.3632C3.94979 16.6755 3.00195 14.3867 3.00195 12.0002C3.00195 9.61373 3.94979 7.32495 5.63703 5.63721ZM20.9977 12.0002C20.9977 13.3936 20.6746 14.7537 20.0698 15.9802V8.02016C20.6746 9.24675 20.9977 10.6068 20.9977 12.0002ZM8.75982 7.75021C8.75982 7.34584 8.5163 6.98128 8.14276 6.82643C7.76922 6.67159 7.33919 6.75694 7.0531 7.04271C6.40227 7.69282 5.88596 8.46484 5.53369 9.31462C5.18142 10.1644 5.0001 11.0753 5.0001 11.9952C5.0001 12.9151 5.18142 13.826 5.53369 14.6758C5.88596 15.5256 6.40227 16.2976 7.0531 16.9477C7.33919 17.2335 7.76922 17.3188 8.14276 17.164C8.5163 17.0091 8.75982 16.6446 8.75982 16.2402V7.75021ZM11 12C11 11.4477 11.4477 11 12 11C12.5523 11 13 11.4477 13 12C13 12.5523 12.5523 13 12 13C11.4477 13 11 12.5523 11 12ZM12 9.00003C10.3431 9.00003 9 10.3432 9 12C9 13.6569 10.3431 15 12 15C13.6569 15 15 13.6569 15 12C15 10.3432 13.6569 9.00003 12 9.00003Z" fill="black"/>
</svg>
