<svg width="24" height="24" viewBox="0 0 24 24" fill="none" xmlns="http://www.w3.org/2000/svg">
<path fill-rule="evenodd" clip-rule="evenodd" d="M12.705 1.29078C12.6096 1.19595 12.4999 1.12432 12.3828 1.07588L12.705 1.29078ZM13 4.41421L15.2929 6.70711C15.6834 7.09763 16.3166 7.09763 16.7071 6.70711C17.0976 6.31658 17.0976 5.68342 16.7071 5.29289L12.7076 1.29342M11.2924 1.29342L7.29289 5.29289C6.90237 5.68342 6.90237 6.31658 7.29289 6.70711C7.68342 7.09763 8.31658 7.09763 8.70711 6.70711L11 4.41421V15C11 15.5523 11.4477 16 12 16C12.5523 16 13 15.5523 13 15V4.41421M12.3828 1.07588C12.2649 1.02699 12.1356 1 12 1C11.7249 1 11.4758 1.11106 11.295 1.29078M4 11C4.55228 11 5 11.4477 5 12V20C5 20.2652 5.10536 20.5196 5.29289 20.7071C5.48043 20.8946 5.73478 21 6 21H18C18.2652 21 18.5196 20.8946 18.7071 20.7071C18.8946 20.5196 19 20.2652 19 20V12C19 11.4477 19.4477 11 20 11C20.5523 11 21 11.4477 21 12V20C21 20.7957 20.6839 21.5587 20.1213 22.1213C19.5587 22.6839 18.7957 23 18 23H6C5.20435 23 4.44129 22.6839 3.87868 22.1213C3.31607 21.5587 3 20.7957 3 20V12C3 11.4477 3.44772 11 4 11Z" fill="black"/>
</svg>
