<svg width="25" height="25" viewBox="0 0 25 25" fill="none" xmlns="http://www.w3.org/2000/svg">
<path fill-rule="evenodd" clip-rule="evenodd" d="M2.01189 6.6582C2.01189 6.10592 2.4596 5.6582 3.01189 5.6582H21.0119C21.5642 5.6582 22.0119 6.10592 22.0119 6.6582C22.0119 7.21049 21.5642 7.6582 21.0119 7.6582H3.01189C2.4596 7.6582 2.01189 7.21049 2.01189 6.6582ZM2.01189 12.6582C2.01189 12.1059 2.4596 11.6582 3.01189 11.6582H21.0119C21.5642 11.6582 22.0119 12.1059 22.0119 12.6582C22.0119 13.2105 21.5642 13.6582 21.0119 13.6582H3.01189C2.4596 13.6582 2.01189 13.2105 2.01189 12.6582ZM3.01189 17.6582C2.4596 17.6582 2.01189 18.1059 2.01189 18.6582C2.01189 19.2105 2.4596 19.6582 3.01189 19.6582H21.0119C21.5642 19.6582 22.0119 19.2105 22.0119 18.6582C22.0119 18.1059 21.5642 17.6582 21.0119 17.6582H3.01189Z" fill="black"/>
</svg>
