<svg width="21" height="21" viewBox="0 0 21 21" fill="none" xmlns="http://www.w3.org/2000/svg">
<path fill-rule="evenodd" clip-rule="evenodd" d="M16.0209 15.2891L19.7309 18.9691C19.9111 19.1556 20.0119 19.4048 20.0119 19.6641C20.0119 19.9234 19.9111 20.1726 19.7309 20.3591C19.6379 20.4528 19.5273 20.5272 19.4055 20.578C19.2836 20.6288 19.1529 20.6549 19.0209 20.6549C18.8889 20.6549 18.7582 20.6288 18.6363 20.578C18.5145 20.5272 18.4039 20.4528 18.3109 20.3591L14.6309 16.6791C12.8353 18.1192 10.5562 18.8166 8.2622 18.6279C5.9682 18.4392 3.83368 17.3788 2.29754 15.6646C0.761407 13.9505 -0.0595894 11.7129 0.00337096 9.41203C0.0663314 7.11114 1.00846 4.92183 2.63604 3.29425C4.26362 1.66667 6.45294 0.724534 8.75382 0.661574C11.0547 0.598614 13.2923 1.41961 15.0064 2.95575C16.7206 4.49189 17.781 6.62641 17.9697 8.9204C18.1584 11.2144 17.461 13.4935 16.0209 15.2891ZM5.13191 15.4994C6.28305 16.2686 7.63643 16.6791 9.0209 16.6791C10.8774 16.6791 12.6579 15.9416 13.9706 14.6289C15.2834 13.3161 16.0209 11.5356 16.0209 9.6791C16.0209 8.29463 15.6104 6.94126 14.8412 5.79011C14.072 4.63897 12.9788 3.74176 11.6997 3.21195C10.4206 2.68213 9.01314 2.54351 7.65527 2.81361C6.2974 3.0837 5.05012 3.75039 4.07115 4.72936C3.09219 5.70832 2.4255 6.9556 2.1554 8.31347C1.88531 9.67134 2.02393 11.0788 2.55374 12.3579C3.08356 13.637 3.98076 14.7302 5.13191 15.4994Z" fill="white"/>
</svg>
