<svg width="29" height="29" viewBox="0 0 29 29" fill="none" xmlns="http://www.w3.org/2000/svg">
<path fill-rule="evenodd" clip-rule="evenodd" d="M1.01189 4.6582C0.459602 4.6582 0.0118866 5.10592 0.0118866 5.6582C0.0118866 6.21049 0.459602 6.6582 1.01189 6.6582H4.1922L5.02384 10.8133C5.02827 10.8417 5.0339 10.8698 5.04068 10.8974L6.71105 19.243L6.71122 19.2439C6.84852 19.9341 7.22413 20.5541 7.77237 20.9955C8.31809 21.4348 9.00026 21.6692 9.70053 21.6582H19.4032C20.1035 21.6692 20.7857 21.4348 21.3314 20.9955C21.8799 20.554 22.2556 19.9336 22.3927 19.243L22.3928 19.243L22.3942 19.2355L23.9942 10.8455C24.05 10.5528 23.9724 10.2504 23.7824 10.0208C23.5924 9.79113 23.3099 9.6582 23.0119 9.6582H6.83232L5.99244 5.46195C5.8989 4.99459 5.48851 4.6582 5.01189 4.6582H1.01189ZM8.67244 18.8519L7.23262 11.6582H21.8032L20.4304 18.8566C20.3842 19.0855 20.2592 19.2911 20.0773 19.4375C19.8945 19.5847 19.6657 19.6629 19.431 19.6584L19.4119 19.6582H9.69189L9.67273 19.6584C9.43808 19.6629 9.20932 19.5847 9.0265 19.4375C8.84368 19.2904 8.71845 19.0836 8.67273 18.8534L8.67244 18.8519ZM7.01189 25.6582C7.01189 24.5536 7.90732 23.6582 9.01189 23.6582C10.1165 23.6582 11.0119 24.5536 11.0119 25.6582C11.0119 26.7628 10.1165 27.6582 9.01189 27.6582C7.90732 27.6582 7.01189 26.7628 7.01189 25.6582ZM18.0119 25.6582C18.0119 24.5536 18.9073 23.6582 20.0119 23.6582C21.1165 23.6582 22.0119 24.5536 22.0119 25.6582C22.0119 26.7628 21.1165 27.6582 20.0119 27.6582C18.9073 27.6582 18.0119 26.7628 18.0119 25.6582Z" fill="black"/>
<rect x="12.5119" y="1.1582" width="15" height="15" rx="7.5" fill="#FB2448"/>
<path d="M17.0609 12.6582H23.0438V11.3372H19.2427V11.2775L20.747 9.74769C22.443 8.11985 22.9117 7.32724 22.9117 6.34286C22.9117 4.88121 21.7228 3.81161 19.9671 3.81161C18.237 3.81161 17.0098 4.88548 17.0098 6.54315H18.514C18.514 5.65252 19.0765 5.09428 19.9458 5.09428C20.7768 5.09428 21.3947 5.60138 21.3947 6.42383C21.3947 7.15252 20.9515 7.67241 20.0907 8.54599L17.0609 11.5162V12.6582Z" fill="white"/>
<rect x="12.5119" y="1.1582" width="15" height="15" rx="7.5" stroke="white"/>
</svg>
