<svg width="32" height="32" viewBox="0 0 32 32" fill="none" xmlns="http://www.w3.org/2000/svg">
<path fill-rule="evenodd" clip-rule="evenodd" d="M14 4.66669C14 3.56269 14.896 2.66669 16 2.66669C17.104 2.66669 18 3.56269 18 4.66669V5.59637C21.4493 6.48571 24 9.60669 24 13.3334V21.3334L26.6667 24V25.3334H5.33333V24L8 21.3334V13.3334C8 9.60669 10.5507 6.4831 14 5.59377V4.66669ZM16 29.3334C14.528 29.3334 13.3333 28.14 13.3333 26.6667H18.6667C18.6667 28.1387 17.472 29.3334 16 29.3334Z" fill="#FFFFFE"/>
<circle cx="24" cy="8" r="8" fill="#FF4949"/>
<path d="M23.9995 12.1061C25.5601 12.1061 26.6738 11.0038 26.67 9.49242C26.6738 7.99242 25.6283 6.90151 24.2154 6.90151C23.6397 6.90151 23.1056 7.12121 22.8026 7.41667H22.7571L23.0033 5.24621H26.295V4.24242H22.0298L21.5942 8.15151L22.6662 8.31061C22.9579 8.04924 23.4806 7.87121 23.9503 7.87121C24.8707 7.87879 25.5374 8.56818 25.5374 9.51515C25.5374 10.447 24.8897 11.1212 23.9995 11.1212C23.2495 11.1212 22.6548 10.6439 22.5942 9.97727H21.4579C21.5033 11.2121 22.5753 12.1061 23.9995 12.1061Z" fill="#FFFFFE"/>
</svg>
