<svg width="24" height="24" viewBox="0 0 24 24" fill="none" xmlns="http://www.w3.org/2000/svg">
<path fill-rule="evenodd" clip-rule="evenodd" d="M4.5 7.94096C4.48969 7.95019 4.47958 7.95976 4.46967 7.96967C4.43306 8.00628 4.40102 8.04574 4.37356 8.08732C4.18135 8.37844 4.21339 8.77405 4.46967 9.03033L11.4697 16.0303C11.5063 16.0669 11.5457 16.099 11.5873 16.1264C11.8784 16.3186 12.274 16.2866 12.5303 16.0303L19.5303 9.03033C19.8232 8.73744 19.8232 8.26256 19.5303 7.96967C19.2374 7.67678 18.7626 7.67678 18.4697 7.96967L12 14.4393L5.53033 7.96967C5.38144 7.82078 5.18553 7.74758 4.9904 7.75006C4.94562 7.75063 4.90088 7.75519 4.85675 7.76373C4.72772 7.78871 4.60399 7.84779 4.5 7.94096Z" fill="white"/>
</svg>
