<svg width="24" height="24" viewBox="0 0 24 24" fill="none" xmlns="http://www.w3.org/2000/svg">
<path fill-rule="evenodd" clip-rule="evenodd" d="M10.9978 19.2555C11.3166 18.9306 11.3155 18.4049 10.9953 18.0813L5.79878 12.8304H20.1818L20.2928 12.8229C20.6922 12.7679 21 12.4205 21 12.0001C21 11.5415 20.6337 11.1698 20.1818 11.1698H5.80006L10.9953 5.91866L11.0747 5.8257C11.313 5.50114 11.2876 5.0398 10.9977 4.74441C10.6788 4.41948 10.1608 4.41839 9.84062 4.74198L3.25203 11.4007C3.21446 11.4372 3.18032 11.4774 3.15015 11.5206C2.92303 11.8453 2.9532 12.2985 3.24067 12.5889L9.84067 19.2581L9.93261 19.3383C10.2534 19.5787 10.7079 19.551 10.9978 19.2555Z" fill="white"/>
</svg>
