<svg width="24" height="24" viewBox="0 0 24 24" fill="none" xmlns="http://www.w3.org/2000/svg">
<path fill-rule="evenodd" clip-rule="evenodd" d="M17.2189 10.829C17.5112 11.1225 17.986 11.1235 18.2795 10.8312C18.573 10.5389 18.574 10.064 18.2817 9.77052L12.2676 3.7314C12.1596 3.61861 12.0168 3.53947 11.8564 3.5113C11.8134 3.50366 11.7695 3.49975 11.7253 3.49976C11.5258 3.49976 11.3346 3.57923 11.1938 3.72057L5.16984 9.77057C4.87758 10.0641 4.8786 10.539 5.17212 10.8312C5.46565 11.1235 5.94052 11.1225 6.23278 10.8289L10.9757 6.06554V19.25C10.9757 19.6642 11.3115 20 11.7257 20C12.1399 20 12.4757 19.6642 12.4757 19.25V6.06614L17.2189 10.829Z" fill="white"/>
</svg>
