<svg width="24" height="24" viewBox="0 0 24 24" fill="none" xmlns="http://www.w3.org/2000/svg">
<path fill-rule="evenodd" clip-rule="evenodd" d="M16.7937 2C16.7937 1.58579 16.4579 1.25 16.0437 1.25C15.6295 1.25 15.2937 1.58579 15.2937 2V2.82922H8.71551V2C8.71551 1.58579 8.37972 1.25 7.96551 1.25C7.55129 1.25 7.21551 1.58579 7.21551 2V2.84781C5.84493 2.94128 4.65165 3.389 3.76749 4.22949C2.76004 5.18718 2.25 6.56342 2.25 8.22225V17.2719C2.25 18.9508 2.75774 20.3463 3.76225 21.3199C4.76302 22.2899 6.16301 22.75 7.77096 22.75H16.229C17.8377 22.75 19.2366 22.2992 20.2371 21.3439C21.243 20.3835 21.75 19.0052 21.75 17.3475V8.22329C21.7548 6.56561 21.2504 5.18879 20.2448 4.23022C19.3619 3.38853 18.1677 2.94094 16.7937 2.84771V2ZM15.2937 4.32922V5.29078C15.2937 5.70499 15.6295 6.04078 16.0437 6.04078C16.4579 6.04078 16.7937 5.70499 16.7937 5.29078V4.35181C17.8534 4.44075 18.6561 4.78806 19.2098 5.31594C19.8507 5.92686 20.2541 6.87109 20.25 8.21994L20.25 8.22225V8.65421H3.75V8.22225C3.75 6.87399 4.1571 5.92872 4.80096 5.31666C5.35689 4.78819 6.15992 4.4411 7.21551 4.35195V5.29078C7.21551 5.70499 7.55129 6.04078 7.96551 6.04078C8.37972 6.04078 8.71551 5.70499 8.71551 5.29078V4.32922H15.2937ZM3.75 10.1542V17.2719C3.75 18.6474 4.1594 19.6159 4.8062 20.2428C5.45673 20.8733 6.44222 21.25 7.77096 21.25H16.229C17.5663 21.25 18.5528 20.8781 19.2013 20.259C19.8444 19.6449 20.25 18.697 20.25 17.3475V10.1542H3.75ZM16.4421 12.5597C16.0279 12.5597 15.6921 12.8955 15.6921 13.3097C15.6921 13.7239 16.0279 14.0597 16.4421 14.0597H16.4513C16.8656 14.0597 17.2013 13.7239 17.2013 13.3097C17.2013 12.8955 16.8656 12.5597 16.4513 12.5597H16.4421ZM11.2546 13.3097C11.2546 12.8955 11.5904 12.5597 12.0046 12.5597H12.0139C12.4281 12.5597 12.7639 12.8955 12.7639 13.3097C12.7639 13.7239 12.4281 14.0597 12.0139 14.0597H12.0046C11.5904 14.0597 11.2546 13.7239 11.2546 13.3097ZM7.55789 12.5597C7.14368 12.5597 6.80789 12.8955 6.80789 13.3097C6.80789 13.7239 7.14368 14.0597 7.55789 14.0597H7.56716C7.98137 14.0597 8.31716 13.7239 8.31716 13.3097C8.31716 12.8955 7.98137 12.5597 7.56716 12.5597H7.55789ZM15.6921 17.1962C15.6921 16.782 16.0279 16.4462 16.4421 16.4462H16.4513C16.8656 16.4462 17.2013 16.782 17.2013 17.1962C17.2013 17.6104 16.8656 17.9462 16.4513 17.9462H16.4421C16.0279 17.9462 15.6921 17.6104 15.6921 17.1962ZM12.0046 16.4462C11.5904 16.4462 11.2546 16.782 11.2546 17.1962C11.2546 17.6104 11.5904 17.9462 12.0046 17.9462H12.0139C12.4281 17.9462 12.7639 17.6104 12.7639 17.1962C12.7639 16.782 12.4281 16.4462 12.0139 16.4462H12.0046ZM6.80789 17.1962C6.80789 16.782 7.14368 16.4462 7.55789 16.4462H7.56716C7.98137 16.4462 8.31716 16.782 8.31716 17.1962C8.31716 17.6104 7.98137 17.9462 7.56716 17.9462H7.55789C7.14368 17.9462 6.80789 17.6104 6.80789 17.1962Z" fill="white"/>
</svg>
