<svg width="24" height="24" viewBox="0 0 24 24" fill="none" xmlns="http://www.w3.org/2000/svg">
<path fill-rule="evenodd" clip-rule="evenodd" d="M16.0437 1.25C16.4579 1.25 16.7937 1.58579 16.7937 2V2.84768C18.1677 2.94092 19.3619 3.3885 20.2448 4.23019C21.2504 5.18877 21.7548 6.56558 21.75 8.22326V17.3475C21.75 19.0052 21.243 20.3835 20.2371 21.3439C19.2366 22.2992 17.8377 22.75 16.229 22.75H7.77096C6.16301 22.75 4.76302 22.2898 3.76225 21.3199C2.75774 20.3463 2.25 18.9508 2.25 17.2719V8.22222C2.25 6.56339 2.76004 5.18715 3.76749 4.22946C4.65165 3.38898 5.84493 2.94125 7.21551 2.84778V2C7.21551 1.58579 7.55129 1.25 7.96551 1.25C8.37972 1.25 8.71551 1.58579 8.71551 2V2.8292H15.2937V2C15.2937 1.58579 15.6295 1.25 16.0437 1.25ZM15.2937 5.29078V4.3292H8.71551V5.29078C8.71551 5.70499 8.37972 6.04078 7.96551 6.04078C7.55129 6.04078 7.21551 5.70499 7.21551 5.29078V4.35192C6.15992 4.44108 5.35689 4.78817 4.80096 5.31664C4.1571 5.92869 3.75 6.87396 3.75 8.22222V8.65426H20.25V8.22222L20.25 8.21991C20.2541 6.87107 19.8507 5.92683 19.2098 5.31591C18.6561 4.78803 17.8534 4.44072 16.7937 4.35178V5.29078C16.7937 5.70499 16.4579 6.04078 16.0437 6.04078C15.6295 6.04078 15.2937 5.70499 15.2937 5.29078ZM3.75 17.2719V10.1543H20.25V17.3475C20.25 18.6969 19.8444 19.6449 19.2013 20.259C18.5528 20.8781 17.5663 21.25 16.229 21.25H7.77096C6.44222 21.25 5.45673 20.8733 4.8062 20.2428C4.1594 19.6159 3.75 18.6473 3.75 17.2719ZM7.71481 18H11.707V16.9844H9.21871V16.9297L9.95309 16.2383C10.4427 15.7904 10.7838 15.4453 10.9765 15.2031C11.1718 14.9609 11.3151 14.7253 11.4062 14.4961C11.5 14.2643 11.5468 14.0169 11.5468 13.7539C11.5468 13.4518 11.4713 13.1836 11.3203 12.9492C11.1692 12.7148 10.957 12.5326 10.6836 12.4023C10.4101 12.2721 10.095 12.207 9.73825 12.207C9.46741 12.207 9.22262 12.2344 9.00387 12.2891C8.78512 12.3411 8.5833 12.4167 8.3984 12.5156C8.21351 12.6146 7.98043 12.7839 7.69918 13.0234L8.35543 13.8008C8.582 13.6133 8.79944 13.4688 9.00778 13.3672C9.21611 13.2656 9.43095 13.2148 9.65231 13.2148C9.86325 13.2148 10.0312 13.2708 10.1562 13.3828C10.2838 13.4948 10.3476 13.6654 10.3476 13.8945C10.3476 14.0482 10.319 14.1966 10.2617 14.3398C10.2044 14.4831 10.1106 14.6393 9.98043 14.8086C9.85022 14.9753 9.57288 15.276 9.1484 15.7109L7.71481 17.1602V18ZM15.75 14.8164C15.4245 14.5065 14.9857 14.3516 14.4336 14.3516C14.1993 14.3516 14.0026 14.3698 13.8438 14.4062L13.7071 14.4336L13.8125 13.3125H15.8516V12.2891H12.7539L12.5391 15.1992L13.0196 15.457C13.1237 15.4258 13.2592 15.3971 13.4258 15.3711C13.5925 15.3424 13.7448 15.3281 13.8828 15.3281C14.6459 15.3281 15.0274 15.6159 15.0274 16.1914C15.0274 16.7956 14.6589 17.0977 13.9219 17.0977C13.6771 17.0977 13.418 17.0638 13.1446 16.9961C12.8711 16.9258 12.6315 16.8359 12.4258 16.7266V17.7695C12.8164 17.9753 13.3295 18.0781 13.9649 18.0781C14.6967 18.0781 15.2592 17.9062 15.6524 17.5625C16.0456 17.2188 16.2422 16.7279 16.2422 16.0898C16.2422 15.5508 16.0782 15.1263 15.75 14.8164Z" fill="white"/>
</svg>
