<svg width="24" height="24" viewBox="0 0 24 24" fill="none" xmlns="http://www.w3.org/2000/svg">
<path fill-rule="evenodd" clip-rule="evenodd" d="M15.9086 1.99976H15.9082L15.9086 2.74976L15.9081 1.99976H15.9079H15.9068L15.9026 1.99976L15.8862 1.99977L15.822 1.9998L15.5783 1.99993L14.7085 2.00038L12.0682 2.00176L9.42567 2.00313L8.55304 2.00358L8.30754 2.00371L8.24233 2.00374L8.22534 2.00375L8.21959 2.00376V2.00374L8.21498 2.00377C6.66666 2.01331 5.34417 2.53189 4.40972 3.50279C3.47805 4.4708 3.0006 5.817 3.0006 7.35676V16.5528C3.0006 18.0998 3.48154 19.4523 4.42087 20.4221C5.36305 21.3948 6.69616 21.9098 8.2566 21.9098H8.25689L8.2566 21.1598L8.25698 21.9098H8.25724H8.25829L8.26245 21.9098L8.27891 21.9097L8.3431 21.9097L8.58674 21.9096L9.45647 21.9093L12.0965 21.9083L14.739 21.9072L15.6118 21.9069L15.8574 21.9068L15.9227 21.9068L15.9397 21.9068L15.9442 21.9068H15.9456L15.9502 21.9067C17.4986 21.8972 18.8213 21.3783 19.756 20.4072C20.6878 19.439 21.1656 18.0926 21.1656 16.5528V7.35676C21.1656 5.80958 20.6843 4.45712 19.7447 3.48737C18.8023 2.51471 17.469 1.99976 15.9086 1.99976ZM15.9086 3.49976L15.9086 3.49976L15.9076 3.49976L15.9034 3.49976L15.887 3.49977L15.8228 3.4998L15.5791 3.49993L14.7093 3.50038L12.069 3.50176L8.22421 3.50374L8.22218 3.50375C7.01151 3.51165 6.10018 3.90948 5.49047 4.54297C4.87764 5.17971 4.5006 6.12651 4.5006 7.35676V16.5528C4.5006 17.7897 4.88065 18.7408 5.49832 19.3785C6.11314 20.0132 7.03303 20.4098 8.2566 20.4098H8.25665H8.2577L8.26187 20.4098L8.27832 20.4097L8.34251 20.4097L8.58616 20.4096L9.45588 20.4093L12.0959 20.4083L15.941 20.4068L15.9429 20.4068C17.1535 20.3989 18.0652 20.0009 18.6752 19.367C19.2884 18.73 19.6656 17.7829 19.6656 16.5528V7.35676C19.6656 6.11993 19.2854 5.16889 18.6675 4.53114C18.0524 3.89633 17.1323 3.49979 15.9088 3.49976L15.9086 3.49976ZM7.74631 7.86011C7.74631 7.44589 8.08209 7.11011 8.49631 7.11011H11.2513C11.6655 7.11011 12.0013 7.44589 12.0013 7.86011C12.0013 8.27432 11.6655 8.61011 11.2513 8.61011H8.49631C8.08209 8.61011 7.74631 8.27432 7.74631 7.86011ZM8.4962 11.2869C8.08199 11.2869 7.7462 11.6227 7.7462 12.0369C7.7462 12.4511 8.08199 12.7869 8.4962 12.7869H15.7162C16.1304 12.7869 16.4662 12.4511 16.4662 12.0369C16.4662 11.6227 16.1304 11.2869 15.7162 11.2869H8.4962ZM8.4962 15.4734C8.08199 15.4734 7.7462 15.8092 7.7462 16.2234C7.7462 16.6376 8.08199 16.9734 8.4962 16.9734H15.7162C16.1304 16.9734 16.4662 16.6376 16.4662 16.2234C16.4662 15.8092 16.1304 15.4734 15.7162 15.4734H8.4962Z" fill="white"/>
</svg>
