<svg width="24" height="24" viewBox="0 0 24 24" fill="none" xmlns="http://www.w3.org/2000/svg">
<path fill-rule="evenodd" clip-rule="evenodd" d="M12 1.25C7.5566 1.25 4.56885 4.73407 4.56885 7.94511C4.56885 8.7689 4.464 9.34572 4.32088 9.78929C4.17732 10.2343 3.986 10.5762 3.76558 10.9451L3.69634 11.0604C3.49524 11.3946 3.26179 11.7825 3.08361 12.2487C2.87812 12.7864 2.75 13.4102 2.75 14.2205C2.75 14.2422 2.75094 14.2638 2.75281 14.2854C2.82571 15.1254 3.07461 15.862 3.54845 16.4754C4.02031 17.0862 4.67201 17.5188 5.45762 17.8257C6.99217 18.4251 9.18431 18.5976 12 18.5976C14.817 18.5976 17.0092 18.4223 18.5437 17.8213C19.3291 17.5137 19.9804 17.0809 20.452 16.471C20.9256 15.8584 21.1745 15.1232 21.2472 14.2853C21.2491 14.2638 21.25 14.2421 21.25 14.2205C21.25 13.4102 21.1219 12.7864 20.9164 12.2487C20.7382 11.7825 20.5048 11.3946 20.3037 11.0605L20.3037 11.0605L20.3037 11.0605L20.2344 10.9451C20.014 10.5762 19.8227 10.2343 19.6791 9.78929C19.536 9.34572 19.4312 8.7689 19.4312 7.94511C19.4312 4.73407 16.4434 1.25 12 1.25ZM6.06885 7.94511C6.06885 5.59421 8.35295 2.75 12 2.75C15.6471 2.75 17.9312 5.59421 17.9312 7.94511C17.9312 8.90147 18.0537 9.63642 18.2516 10.2499C18.449 10.8619 18.7124 11.3223 18.9467 11.7144L19.0148 11.828C19.2222 12.174 19.387 12.4486 19.5152 12.7842C19.6484 13.1328 19.7466 13.5648 19.7499 14.1876C19.6935 14.7852 19.5233 15.2197 19.2652 15.5535C19.0006 15.8959 18.6 16.1884 17.9967 16.4246C16.7541 16.9113 14.8223 17.0976 12 17.0976C9.17746 17.0976 7.24608 16.9139 6.00342 16.4285C5.40043 16.1929 5.00011 15.9009 4.73548 15.5584C4.47738 15.2243 4.30676 14.7884 4.25009 14.1876C4.25342 13.5648 4.35156 13.1328 4.48478 12.7842C4.61303 12.4486 4.77775 12.174 4.98521 11.8281L4.98522 11.828L5.05327 11.7144C5.28756 11.3223 5.55096 10.8619 5.74842 10.2499C5.94634 9.63642 6.06885 8.90147 6.06885 7.94511ZM10.0773 20.3559C9.80049 20.0478 9.32629 20.0225 9.01819 20.2993C8.71008 20.5762 8.68474 21.0504 8.96159 21.3585C10.6397 23.226 13.287 23.2014 14.9461 21.3591C15.2233 21.0513 15.1985 20.5771 14.8907 20.2999C14.5829 20.0227 14.1087 20.0475 13.8315 20.3553C12.7623 21.5425 11.1536 21.5538 10.0773 20.3559Z" fill="white"/>
</svg>
