<svg width="24" height="24" viewBox="0 0 24 24" fill="none" xmlns="http://www.w3.org/2000/svg">
<path fill-rule="evenodd" clip-rule="evenodd" d="M3.52803 11.7666C3.52803 7.2166 7.21656 3.52808 11.7666 3.52808C16.3166 3.52808 20.0051 7.2166 20.0051 11.7666C20.0051 16.3167 16.3166 20.0052 11.7666 20.0052C7.21656 20.0052 3.52803 16.3167 3.52803 11.7666ZM11.7666 2.02808C6.38813 2.02808 2.02803 6.38818 2.02803 11.7666C2.02803 17.1451 6.38813 21.5052 11.7666 21.5052C14.0669 21.5052 16.181 20.7076 17.8473 19.3739L21.0127 22.5311C21.306 22.8236 21.7808 22.823 22.0734 22.5297C22.3659 22.2364 22.3652 21.7615 22.072 21.469L18.9438 18.349C20.5343 16.6157 21.5051 14.3045 21.5051 11.7666C21.5051 6.38818 17.145 2.02808 11.7666 2.02808Z" fill="white"/>
</svg>
