<svg width="24" height="24" viewBox="0 0 24 24" fill="none" xmlns="http://www.w3.org/2000/svg">
<path fill-rule="evenodd" clip-rule="evenodd" d="M18 3C16.8954 3 16 3.89543 16 5C16 5.3479 16.0888 5.67506 16.245 5.96002C16.2549 5.975 16.2644 5.99032 16.2735 6.00598C16.2826 6.02154 16.2912 6.03724 16.2994 6.05307C16.6521 6.62148 17.2818 7 18 7C19.1046 7 20 6.10457 20 5C20 3.89543 19.1046 3 18 3ZM15.158 7.8148C15.8829 8.54666 16.8885 9 18 9C20.2091 9 22 7.20914 22 5C22 2.79086 20.2091 1 18 1C15.7909 1 14 2.79086 14 5C14 5.37699 14.0522 5.7418 14.1496 6.08761L8.84189 9.1851C8.11699 8.4533 7.11143 8 6 8C3.79086 8 2 9.79086 2 12C2 14.2091 3.79086 16 6 16C7.11163 16 8.11735 15.5465 8.84228 14.8145L14.1509 17.908C14.0526 18.2551 14 18.6214 14 19C14 21.2091 15.7909 23 18 23C20.2091 23 22 21.2091 22 19C22 16.7909 20.2091 15 18 15C16.8902 15 15.8859 15.452 15.1613 16.1819L9.85047 13.0872C9.94789 12.7415 10 12.3768 10 12C10 11.623 9.94783 11.2581 9.85032 10.9122L15.158 7.8148ZM7.69881 10.944C7.7074 10.9608 7.71651 10.9775 7.72616 10.994C7.73588 11.0107 7.74601 11.027 7.75653 11.0429C7.91177 11.3272 8 11.6533 8 12C8 12.3468 7.91175 12.6729 7.75648 12.9572C7.74586 12.9733 7.73564 12.9897 7.72584 13.0065C7.71633 13.0228 7.70733 13.0393 7.69885 13.0559C7.34579 13.6228 6.71695 14 6 14C4.89543 14 4 13.1046 4 12C4 10.8954 4.89543 10 6 10C6.71692 10 7.34574 10.3772 7.69881 10.944ZM16 19C16 18.6746 16.0777 18.3674 16.2156 18.0958C16.2401 18.0636 16.2629 18.0294 16.2839 17.9935C16.3039 17.959 16.3217 17.9239 16.3373 17.8882C16.6961 17.3526 17.3069 17 18 17C19.1046 17 20 17.8954 20 19C20 20.1046 19.1046 21 18 21C16.8954 21 16 20.1046 16 19Z" fill="#222222"/>
</svg>
