<svg width="32" height="32" viewBox="0 0 32 32" fill="none" xmlns="http://www.w3.org/2000/svg">
<path fill-rule="evenodd" clip-rule="evenodd" d="M5.91419 9.34082L5.91418 9.34082L4.34883 10.2931L8.84797 19.4997H9.43068V18.571C9.43719 18.1253 9.55888 17.6734 9.69014 17.3169C9.74091 17.1798 9.79613 17.0435 9.85021 16.91C9.91339 16.7541 9.975 16.602 10.0261 16.457H8.89602L10.7524 12.6582L12.6089 16.457H11.3922C11.3347 16.7898 11.2065 17.1013 11.0786 17.4121L11.0786 17.4121C11.0262 17.5393 10.9739 17.6665 10.9265 17.7949C10.8127 18.1015 10.7459 18.3155 10.7524 18.5701L10.7524 19.4997H14.7171V18.5848C14.7236 18.1392 14.8453 17.6873 14.9766 17.3308C15.0273 17.1937 15.0826 17.0573 15.1366 16.9239C15.1998 16.7679 15.2614 16.6159 15.3125 16.4709H14.1825L16.0389 12.6721L17.8953 16.4709H16.6787C16.6211 16.8037 16.4929 17.1152 16.365 17.4259L16.365 17.4259C16.3127 17.5532 16.2603 17.6803 16.2129 17.8088C16.0992 18.1153 16.0324 18.3294 16.0389 18.584L16.0389 19.4997H19.6735V18.571C19.6801 18.1253 19.8017 17.6734 19.933 17.3169C19.9838 17.1798 20.039 17.0435 20.0931 16.91C20.1563 16.7541 20.2179 16.602 20.269 16.457H19.1389L20.9953 12.6582L22.8517 16.457H21.6351C21.5776 16.7898 21.4494 17.1013 21.3215 17.412C21.2691 17.5393 21.2168 17.6665 21.1694 17.7949C21.0556 18.1015 20.9888 18.3155 20.9953 18.5701L20.9953 19.4997H22.8884L27.0837 10.3017L25.5042 9.34082L25.842 8.75962L26.1797 8.17842L28.2732 9.45202L28.7872 9.76472L28.5343 10.3192L23.9082 20.4619L23.7302 20.8521H23.3093H22.3615C22.5219 21.3312 22.6481 21.9154 22.6481 22.5428C22.6473 23.2526 22.5519 24.2004 22.287 25.0708C22.0148 25.9527 21.5411 26.8577 20.7316 27.4789L19.9385 26.397C20.4508 26.0039 20.8031 25.3875 21.0266 24.6635C21.2573 23.928 21.3272 23.1853 21.3263 22.5428C21.3263 21.8608 21.1147 21.234 20.9377 20.8521H17.0747C17.2351 21.3312 17.3613 21.9154 17.3613 22.5428C17.3605 23.2526 17.2652 24.2004 17.0002 25.0708C16.728 25.9527 16.2543 26.8577 15.4448 27.4789L14.6517 26.397C15.164 26.0039 15.5164 25.3875 15.7398 24.6635C15.9705 23.928 16.0404 23.1853 16.0396 22.5428C16.0396 21.8608 15.8279 21.234 15.651 20.8521H11.457C11.6174 21.3312 11.7436 21.9154 11.7436 22.5428C11.7428 23.2526 11.6475 24.2004 11.3825 25.0708C11.1103 25.9527 10.6366 26.8577 9.82708 27.4789L9.03403 26.397C9.54628 26.0039 9.89867 25.3875 10.1221 24.6635C10.3528 23.928 10.4227 23.1853 10.4219 22.5428C10.4219 21.8608 10.2102 21.234 10.0332 20.8521H8.43952H8.03108L7.84841 20.4783L2.89182 10.3356L2.61703 9.77331L3.14517 9.45202L5.12621 8.24683L5.23866 8.17842C11.6917 4.25262 19.7266 4.25262 26.1797 8.17842L25.842 8.75962L25.5042 9.34082C19.4674 5.6683 11.9509 5.6683 5.91419 9.34082Z" fill="white"/>
</svg>
