<svg width="32" height="32" viewBox="0 0 32 32" fill="none" xmlns="http://www.w3.org/2000/svg">
<path fill-rule="evenodd" clip-rule="evenodd" d="M13.8494 16.25C13.8494 16.25 7.27108 14.25 7.27108 10.5C7.27108 6.75 11.0663 5.5 12.8373 5.5C14.6084 5.5 15.3675 6.75 15.3675 8.25C15.3675 9.03416 15.0909 9.54503 14.8269 10.0326C14.5859 10.4777 14.3554 10.9035 14.3554 11.5C14.3554 12.75 15.6205 13.5 15.6205 13.5C15.6205 13.5 17.6446 7.5 21.4398 7.5C25.2349 7.5 26.5 11.25 26.5 13C26.5 14.75 25.2349 15.5 23.7169 15.5C22.9233 15.5 22.4062 15.2267 21.9128 14.9659C21.4623 14.7277 21.0314 14.5 20.4277 14.5C19.1627 14.5 18.4036 15.75 18.4036 15.75C18.4036 15.75 24.7289 17.75 24.7289 21.5C24.7289 25.25 20.9337 26.5 19.1627 26.5C17.3916 26.5 16.6325 25.25 16.6325 23.75C16.6325 22.9658 16.9091 22.455 17.1731 21.9674C17.4141 21.5223 17.6446 21.0965 17.6446 20.5C17.6446 19.25 16.3795 18.5 16.3795 18.5C16.3795 18.5 14.3554 24.5 10.5602 24.5C6.76506 24.5 5.5 20.75 5.5 19C5.5 17.25 6.76506 16.5 8.28313 16.5C9.07674 16.5 9.59377 16.7733 10.0872 17.0341C10.5377 17.2723 10.9686 17.5 11.5723 17.5C12.8373 17.5 13.8494 16.25 13.8494 16.25Z" fill="#FFFBFB"/>
</svg>
