<svg width="32" height="32" viewBox="0 0 32 32" fill="none" xmlns="http://www.w3.org/2000/svg">
<path fill-rule="evenodd" clip-rule="evenodd" d="M5.23405 6.54255H26.1702L26.1702 18.3653H21.1383L21.1383 16.8663C21.1319 16.6191 21.198 16.4114 21.3106 16.1138C21.3576 15.9891 21.4094 15.8657 21.4612 15.7422L21.4613 15.7422L21.4613 15.7421L21.4613 15.7421L21.4613 15.7421C21.5879 15.4405 21.7148 15.1382 21.7717 14.8152H22.9762L21.1383 11.1278L19.3005 14.8152H20.4193C20.3687 14.9559 20.3077 15.1034 20.2452 15.2548L20.2452 15.2549L20.2451 15.2549L20.2451 15.2549L20.2451 15.255L20.2451 15.255C20.1916 15.3845 20.1369 15.5168 20.0867 15.6498C19.9568 15.9959 19.8363 16.4345 19.8298 16.8671V18.3653H15.9043L15.9043 16.8663C15.8979 16.6191 15.964 16.4114 16.0766 16.1138C16.1235 15.9891 16.1753 15.8657 16.2272 15.7422C16.3538 15.4405 16.4807 15.1382 16.5377 14.8152H17.7421L15.9043 11.1278L14.0665 14.8152H15.1852C15.1347 14.9559 15.0737 15.1035 15.0111 15.2548L15.0111 15.2549C14.9576 15.3844 14.9029 15.5167 14.8527 15.6498C14.7227 15.9959 14.6022 16.4345 14.5958 16.8671V18.3653H10.6709L10.6709 16.8663C10.6645 16.6191 10.7306 16.4114 10.8432 16.1138C10.8901 15.9891 10.9419 15.8657 10.9938 15.7422C11.1204 15.4405 11.2473 15.1382 11.3043 14.8152H12.5087L10.6709 11.1278L8.83309 14.8152H9.95184C9.90125 14.9559 9.84026 15.1035 9.77771 15.2549L9.7777 15.2549L9.7777 15.2549L9.7777 15.2549L9.77769 15.2549L9.77769 15.2549C9.72416 15.3845 9.6695 15.5167 9.61925 15.6498C9.48931 15.9959 9.36884 16.4345 9.36239 16.8671V18.3653H5.23405L5.23405 6.54255ZM3.92554 6.54255C3.92554 5.81988 4.51138 5.23404 5.23405 5.23404H26.1702C26.8929 5.23404 27.4787 5.81988 27.4787 6.54255V18.3653C27.4787 19.088 26.8929 19.6738 26.1702 19.6738H22.7958C22.9649 20.1504 23.1017 20.7416 23.1017 21.3788C23.1009 22.0679 23.0065 22.9878 22.7442 23.8327C22.4747 24.6888 22.0058 25.5672 21.2044 26.1702L20.4193 25.12C20.9264 24.7385 21.2753 24.1401 21.4965 23.4374C21.7248 22.7234 21.794 22.0025 21.7932 21.3788C21.7932 20.6773 21.5579 20.0359 21.3775 19.6738H17.5617C17.7309 20.1504 17.8677 20.7416 17.8677 21.3788C17.8669 22.0679 17.7725 22.9878 17.5102 23.8327C17.2407 24.6888 16.7717 25.5672 15.9703 26.1702L15.1852 25.12C15.6924 24.7385 16.0412 24.1401 16.2624 23.4374C16.4908 22.7234 16.56 22.0025 16.5592 21.3788C16.5592 20.6773 16.3239 20.0359 16.1434 19.6738H12.0005C12.1697 20.1504 12.3065 20.7416 12.3065 21.3788C12.3057 22.0679 12.2113 22.9878 11.949 23.8327C11.6795 24.6888 11.2106 25.5672 10.4092 26.1702L9.62407 25.12C10.1312 24.7385 10.48 24.1401 10.7012 23.4374C10.9296 22.7234 10.9988 22.0025 10.998 21.3788C10.998 20.6773 10.7627 20.0359 10.5823 19.6738H5.23405C4.51138 19.6738 3.92554 19.088 3.92554 18.3653V6.54255Z" fill="white"/>
</svg>
