<svg width="32" height="32" viewBox="0 0 32 32" fill="none" xmlns="http://www.w3.org/2000/svg">
<path fill-rule="evenodd" clip-rule="evenodd" d="M28.2708 26.9791H27.625C26.5549 26.9791 25.6875 26.1117 25.6875 25.0416H8.24998C7.49322 25.0416 6.84247 25.5676 6.20799 26.0803C5.94533 26.2926 5.68545 26.5026 5.422 26.6722C5.12007 26.8664 4.76069 26.9791 4.37498 26.9791H3.72915C2.65909 26.9791 1.79165 26.1117 1.79165 25.0416V16.3134C1.79165 15.2857 2.1999 14.3001 2.92661 13.5734L3.72915 12.7708H2.42005C1.71631 12.7708 1.14581 12.2003 1.14581 11.4966C1.14581 11.1068 1.41111 10.767 1.78927 10.6724L2.92668 10.3881C3.33429 10.2862 3.72915 10.5945 3.72915 11.0146V12.125H4.37498L5.53373 7.87623C5.99351 6.19037 7.52475 5.02081 9.27219 5.02081H22.7278C24.4752 5.02081 26.0064 6.19037 26.4662 7.87623L27.625 12.125H28.2708V11.0146C28.2708 10.5945 28.6657 10.2862 29.0733 10.3881L30.2107 10.6724C30.5889 10.767 30.8541 11.1068 30.8541 11.4966C30.8541 12.2003 30.2837 12.7708 29.5799 12.7708H28.2708L29.0734 13.5734C29.8001 14.3001 30.2083 15.2857 30.2083 16.3134V25.0416C30.2083 26.1117 29.3409 26.9791 28.2708 26.9791ZM6.12996 8.42818L5.0956 11.8761C5.05399 12.0147 5.13011 12.1614 5.26748 12.2072C6.38744 12.5805 7.56027 12.7708 8.74082 12.7708H23.3226C24.5031 12.7708 25.676 12.5805 26.7959 12.2072C26.9333 12.1614 27.0094 12.0147 26.9678 11.8761L25.9335 8.42818C25.4417 6.78912 23.9331 5.66666 22.2219 5.66666H9.84153C8.1303 5.66666 6.62168 6.78912 6.12996 8.42818ZM26.9769 13.6243C25.8988 14.6824 24.9932 15.4987 23.3173 16.194C23.1532 16.2621 23.0884 16.4633 23.187 16.6112C23.4668 17.0309 23.9525 17.2654 24.4552 17.2235L26.2305 17.0756C27.0602 17.0064 27.8385 16.6455 28.4272 16.0568C28.8328 15.6512 28.8857 15.0118 28.5523 14.5451L27.9549 13.7087C27.7242 13.3857 27.2602 13.3463 26.9769 13.6243ZM4.91361 13.6244C5.99175 14.6824 6.89728 15.4988 8.57319 16.1941C8.73733 16.2622 8.80212 16.4634 8.70355 16.6112C8.42374 17.031 7.93798 17.2655 7.43528 17.2236L5.65999 17.0757C4.83031 17.0065 4.052 16.6455 3.46329 16.0568C3.05772 15.6513 3.0048 15.0119 3.33818 14.5452L3.93564 13.7087C4.16634 13.3858 4.63032 13.3464 4.91361 13.6244ZM6.95834 21.1667C5.27886 20.8599 4.41284 20.598 3.08334 19.875L2.96105 20.3642C2.85914 20.7718 3.16744 21.1667 3.5876 21.1667H6.95834ZM24.8998 21.1667C26.5793 20.8599 27.4453 20.598 28.7748 19.875L28.8971 20.3642C28.999 20.7718 28.6907 21.1667 28.2705 21.1667H24.8998ZM8.70666 22.6475C8.82778 22.5264 8.99205 22.4583 9.16333 22.4583H22.8366C23.0079 22.4583 23.1722 22.5264 23.2933 22.6475L23.8446 23.1987C24.048 23.4022 23.9039 23.75 23.6162 23.75H8.38374C8.09605 23.75 7.95198 23.4022 8.15541 23.1987L8.70666 22.6475Z" fill="white"/>
</svg>
