<svg width="32" height="32" viewBox="0 0 32 32" fill="none" xmlns="http://www.w3.org/2000/svg">
<path fill-rule="evenodd" clip-rule="evenodd" d="M9.99999 6.33334L26 2.33334L26 3.00001L26 7.66668L26 23C26 24.841 24.5076 26.3333 22.6667 26.3333C20.8257 26.3333 19.3333 24.841 19.3333 23C19.3333 21.1591 20.8257 19.6667 22.6667 19.6667C23.4171 19.6667 24.1095 19.9146 24.6667 20.3331V8.00001L11.3333 11.3333V26.3333C11.3333 28.1743 9.84094 29.6667 7.99999 29.6667C6.15904 29.6667 4.66666 28.1743 4.66666 26.3333C4.66666 24.4924 6.15904 23 7.99999 23C8.75039 23 9.44288 23.248 9.99999 23.6664V11.6667V6.33334Z" fill="white"/>
</svg>
