<svg width="32" height="32" viewBox="0 0 32 32" fill="none" xmlns="http://www.w3.org/2000/svg">
<path fill-rule="evenodd" clip-rule="evenodd" d="M7.33334 6.66665C7.33334 4.45751 9.1242 2.66666 11.3333 2.66666H20.6667C22.8758 2.66666 24.6667 4.45752 24.6667 6.66666V25.3333C24.6667 27.5425 22.8758 29.3333 20.6667 29.3333H11.3333C9.1242 29.3333 7.33334 27.5425 7.33334 25.3333V6.66665ZM14.6667 4.66667C14.2985 4.66667 14 4.36819 14 4H18C18 4.36819 17.7015 4.66667 17.3333 4.66667H14.6667ZM17 27.6667C17 28.219 16.5523 28.6667 16 28.6667C15.4477 28.6667 15 28.219 15 27.6667C15 27.1144 15.4477 26.6667 16 26.6667C16.5523 26.6667 17 27.1144 17 27.6667ZM10.6667 6C9.93029 6 9.33333 6.59696 9.33333 7.33333V24.6667C9.33333 25.403 9.93029 26 10.6667 26H21.3333C22.0697 26 22.6667 25.403 22.6667 24.6667V7.33333C22.6667 6.59695 22.0697 6 21.3333 6H10.6667Z" fill="white"/>
</svg>
