<svg width="32" height="32" viewBox="0 0 32 32" fill="none" xmlns="http://www.w3.org/2000/svg">
<path fill-rule="evenodd" clip-rule="evenodd" d="M11.552 6.33769C11.4128 6.19854 11.2241 6.12036 11.0273 6.12036H10.3123C9.7615 6.12036 9.25798 6.43155 9.01166 6.92419C8.20775 8.53202 7.99699 10.372 8.4165 12.1199L10.927 22.5804C10.9807 22.8041 11.2693 22.8665 11.4105 22.6849L12.9347 20.7251C14.1315 19.1864 14.3115 17.0878 13.3942 15.3678L11.3963 11.6217C10.8533 10.6037 10.9281 9.36704 11.5897 8.42185L11.7184 8.23811C12.1313 7.64817 12.0612 6.84689 11.552 6.33769ZM23.6842 23.6842C23.6842 22.4716 22.7012 21.4887 21.4887 21.4887H16.6824C15.8816 21.4887 15.1008 21.7389 14.4492 22.2043L12.1363 23.8564C11.8603 24.0536 11.8274 24.4514 12.0672 24.6912L12.6792 25.3032C13.3997 26.0237 14.377 26.4285 15.396 26.4285H21.4887C22.7012 26.4285 23.6842 25.4456 23.6842 24.233V23.6842Z" fill="white"/>
</svg>
