<svg width="32" height="32" viewBox="0 0 32 32" fill="none" xmlns="http://www.w3.org/2000/svg">
<path fill-rule="evenodd" clip-rule="evenodd" d="M21.4027 4.26398C21.5717 4.09496 21.8009 4 22.04 4H22.9084C23.5774 4 24.189 4.37798 24.4882 4.97635C25.4646 6.92925 25.7206 9.16408 25.2111 11.2872L22.1617 23.9927C22.0965 24.2644 21.746 24.3402 21.5745 24.1196L19.7231 21.7393C18.2695 19.8703 18.0509 17.3212 19.1651 15.2321L21.5918 10.6821C22.2512 9.44557 22.1604 7.94348 21.3568 6.79543L21.2006 6.57226C20.699 5.8557 20.7842 4.88246 21.4027 4.26398ZM6.66666 25.3333C6.66666 23.8606 7.86057 22.6667 9.33332 22.6667H15.1712C16.1438 22.6667 17.0921 22.9706 17.8836 23.5359L20.6929 25.5426C21.0282 25.782 21.0681 26.2652 20.7768 26.5565L20.0335 27.2998C19.1583 28.175 17.9713 28.6667 16.7337 28.6667H9.33332C7.86057 28.6667 6.66666 27.4728 6.66666 26V25.3333Z" fill="white"/>
</svg>
