<svg width="48" height="48" viewBox="0 0 48 48" fill="none" xmlns="http://www.w3.org/2000/svg">
<path fill-rule="evenodd" clip-rule="evenodd" d="M46 24C46 36.1503 36.1503 46 24 46C11.8497 46 2 36.1503 2 24C2 11.8497 11.8497 2 24 2C36.1503 2 46 11.8497 46 24ZM6.24916 27.0017C15.9577 27.1345 20.4527 35.0271 20.9528 41.7431C13.4382 40.4618 7.51168 34.5227 6.24916 27.0017ZM6.10986 22H10.5C12.222 22 13.666 21.444 15.3107 20.8107C17.4865 19.973 20.0135 19 24 19C27.9865 19 30.5135 19.973 32.6893 20.8107C34.334 21.444 35.778 22 37.5 22H41.8901C40.8953 13.0001 33.2651 6 24 6C14.7349 6 7.10475 13.0001 6.10986 22ZM27.0472 41.7431C27.5473 35.0271 32.0423 27.1345 41.7508 27.0017C40.4883 34.5227 34.5618 40.4618 27.0472 41.7431Z" fill="#007BE4"/>
</svg>
