<svg width="32" height="32" viewBox="0 0 32 32" fill="none" xmlns="http://www.w3.org/2000/svg">
<path fill-rule="evenodd" clip-rule="evenodd" d="M26.6695 2.22563C26.4259 1.94953 26.0047 1.92317 25.7286 2.16675C25.4525 2.41033 25.4261 2.83162 25.6697 3.10772C28.8167 6.66071 30.679 11.2219 30.6666 16.3333C30.6778 21.1756 29.0068 25.5173 26.1507 28.993C25.9175 29.2779 25.9594 29.6979 26.2443 29.9311C26.5292 30.1644 26.9492 30.1225 27.1824 29.8376C30.1597 26.1872 31.9887 21.4187 31.9999 16.3333C31.9875 10.9655 29.95 5.95816 26.6695 2.22563ZM20.2001 6.19051C20.463 5.93281 20.8851 5.93709 21.1428 6.20007C23.7344 8.8447 25.3333 12.4686 25.3333 16.4646C25.3203 20.2363 23.839 23.7797 21.4919 26.3605C21.2434 26.6321 20.8218 26.6509 20.5501 26.4024C20.2784 26.154 20.2596 25.7323 20.5081 25.4606C22.7156 23.0615 24.0131 19.9735 24 16.4646C24 12.8314 22.5477 9.53878 20.1905 7.13327C19.9328 6.87029 19.9371 6.4482 20.2001 6.19051ZM1.33333 20.5185H4.66667V20.5185L9.78849 25.0017C10.6505 25.7562 12 25.144 12 23.9984V9.33596C12 8.19031 10.6506 7.57811 9.78849 8.33267L4.66671 12.8158H1.33333C0.596954 12.8158 0 13.4127 0 14.1491V19.1851C0 19.9215 0.596954 20.5185 1.33333 20.5185ZM16.4106 8.80814C16.1205 8.58137 15.7016 8.63268 15.4748 8.92275C15.248 9.21282 15.2993 9.6318 15.5894 9.85857C17.4638 11.3239 18.6667 13.6039 18.6667 16.1651C18.6667 18.5835 17.5945 20.7506 15.8972 22.2185C15.6188 22.4594 15.5883 22.8804 15.8291 23.1589C16.07 23.4374 16.491 23.4679 16.7695 23.227C18.7471 21.5166 20 18.9868 20 16.1651C20 13.1762 18.5943 10.5153 16.4106 8.80814Z" fill="white"/>
</svg>
