<svg width="24" height="24" viewBox="0 0 24 24" fill="none" xmlns="http://www.w3.org/2000/svg">
<path fill-rule="evenodd" clip-rule="evenodd" d="M9.57446 2.82446C5.84654 2.82446 2.82446 5.84654 2.82446 9.57446V14.4255C2.82446 18.1534 5.84654 21.1755 9.57446 21.1755H14.4255C18.1534 21.1755 21.1755 18.1535 21.1755 14.4255V9.57446C21.1755 5.84654 18.1535 2.82446 14.4255 2.82446H9.57446ZM4.32446 9.57446C4.32446 6.67497 6.67497 4.32446 9.57446 4.32446H14.4255C17.325 4.32446 19.6755 6.67497 19.6755 9.57446V14.4255C19.6755 17.325 17.325 19.6755 14.4255 19.6755H9.57446C6.67497 19.6755 4.32446 17.325 4.32446 14.4255V9.57446ZM12.75 8.17021V7.42021H11.25V8.17021V11.25H8.17021H7.42021V12.75H8.17021H11.25V15.8298V16.5798H12.75V15.8298V12.75H15.8298H16.5798V11.25H15.8298H12.75V8.17021Z" fill="black"/>
</svg>
