<svg width="24" height="24" viewBox="0 0 24 24" fill="none" xmlns="http://www.w3.org/2000/svg">
<path fill-rule="evenodd" clip-rule="evenodd" d="M18.735 5.27499C19.655 5.09299 21.22 4.46199 22 3.99899C21.699 4.94299 20.514 6.13499 19.68 6.63499C20.497 6.53699 21.275 6.32099 22 5.99899C21.458 6.80899 20.773 7.51999 19.983 8.08999C19.986 8.15599 19.989 8.28299 19.992 8.41899C19.992 8.43249 19.994 8.44574 19.996 8.45899C19.998 8.47224 20 8.48549 20 8.49899C20 8.50799 19.9988 8.51674 19.9975 8.52549C19.9963 8.53424 19.995 8.54299 19.995 8.55199C19.998 8.73299 20 8.91299 20 8.99899C20 14.337 15.777 20 8.347 20C6.065 20 3.788 19.145 2 17.999H2.964C5.794 17.999 6.753 17.597 8.135 16.513C6.368 16.481 4.514 15.579 4 13.974C4.246 14.02 5.166 14.139 5.426 14.139C5.795 14.139 6.551 14.117 6.926 13.896C5.078 13.525 3 12.192 3 10.234V10.183C3.563 10.647 4.178 10.8 4.759 10.8C5.119 10.8 5.465 10.742 5.779 10.661C4.074 9.80799 2.979 8.43199 2.979 7.03099C2.979 6.28899 3.066 5.49899 3.265 4.99899C5.095 7.24299 7.647 8.99899 11 8.99899C10.9924 8.91036 10.9953 8.76755 10.9978 8.6446C10.998 8.63777 10.9981 8.63101 10.9983 8.62432C10.9992 8.57747 11 8.53425 11 8.49899C11 6.01399 13.015 3.99899 15.5 3.99899C16.733 3.99899 17.847 4.49599 18.66 5.29799C18.6724 5.29466 18.6839 5.29087 18.6954 5.28706C18.7081 5.28287 18.7209 5.27866 18.735 5.27499Z" fill="#310A90"/>
</svg>
