<svg width="24" height="24" viewBox="0 0 24 24" fill="none" xmlns="http://www.w3.org/2000/svg">
<path fill-rule="evenodd" clip-rule="evenodd" d="M2.09999 10.8C2.59999 6.30001 6.29999 2.60001 10.9 2.10001C16.9 1.40001 22 6.10001 22 12.1C22 16.3 19.4 19.9 15.7 21.4C15.3 21.5 15 21.2 15 20.9V18.3C15 17.4 14.6 16.5 14 16C16.3 15.5 18 14.2 18 12C18 10.8 17.5 9.80001 16.8 9.00001C16.9 8.80001 17 8.40001 17 7.60001C17 7.20001 17 6.60001 16.8 6.00001C16.8 6.00001 15.3 6.00001 14 7.30001C13.4 7.10001 12.7 7.00001 12 7.00001C11.3 7.00001 10.6 7.10001 10.1 7.30001C8.69999 6.00001 7.29999 6.00001 7.29999 6.00001C6.99999 6.60001 6.99999 7.20001 6.99999 7.60001C6.99999 8.30001 7.09999 8.80001 7.19999 9.00001C6.49999 9.80001 5.99999 10.9 5.99999 12C5.99999 14.2 7.69999 15.5 9.99999 16C9.39999 16.4 9.09999 17.1 8.99999 17.8C8.79999 17.9 8.49999 18 8.09999 18C7.79999 18 7.19999 17.8 6.69999 17C6.49999 16.7 5.99999 16 5.39999 16C5.29999 16 4.99999 16 4.99999 16.2C4.99999 16.2768 5.05891 16.2946 5.22197 16.344C5.27135 16.3589 5.33027 16.3768 5.39999 16.4C5.69999 16.7 5.89999 17 5.99999 17.4C6.09999 18.1 6.69999 19.3 8.09999 19.3C8.59999 19.3 8.99999 19.2 8.99999 19.2V20.8C8.99999 21.2 8.69999 21.4 8.39999 21.3C4.29999 19.7 1.59999 15.5 2.09999 10.8Z" fill="#310A90"/>
</svg>
