<svg width="24" height="24" viewBox="0 0 24 24" fill="none" xmlns="http://www.w3.org/2000/svg">
<path fill-rule="evenodd" clip-rule="evenodd" d="M8.42597 6.40127L7.98091 7.07143H7.17642H6C4.61929 7.07143 3.5 8.19072 3.5 9.57143V17C3.5 18.3807 4.61929 19.5 6 19.5H18C19.3807 19.5 20.5 18.3807 20.5 17V9.57143C20.5 8.19072 19.3807 7.07143 18 7.07143H16.8153H16.0057L15.5614 6.3946L14.4658 4.72561C14.3733 4.5848 14.2162 4.5 14.0478 4.5H9.95679C9.7893 4.5 9.63293 4.58386 9.54027 4.72339L8.42597 6.40127ZM8.29073 3.89355L7.17642 5.57143H6C3.79086 5.57143 2 7.36229 2 9.57143V17C2 19.2091 3.79086 21 6 21H18C20.2091 21 22 19.2091 22 17V9.57143C22 7.36229 20.2091 5.57143 18 5.57143H16.8153L15.7197 3.90244C15.35 3.33922 14.7215 3 14.0478 3H9.95679C9.28683 3 8.66137 3.33545 8.29073 3.89355ZM12 16.9286C13.8934 16.9286 15.5 15.3377 15.5 13.2857C15.5 11.2337 13.8934 9.64286 12 9.64286C10.1066 9.64286 8.5 11.2337 8.5 13.2857C8.5 15.3377 10.1066 16.9286 12 16.9286ZM17 13.2857C17 16.126 14.7614 18.4286 12 18.4286C9.23858 18.4286 7 16.126 7 13.2857C7 10.4454 9.23858 8.14286 12 8.14286C14.7614 8.14286 17 10.4454 17 13.2857Z" fill="black"/>
</svg>
