<svg width="24" height="24" viewBox="0 0 24 24" fill="none" xmlns="http://www.w3.org/2000/svg">
<path fill-rule="evenodd" clip-rule="evenodd" d="M2.00001 2C1.61069 2 1.25675 2.22596 1.0929 2.57912C0.929037 2.93229 0.985046 3.34845 1.23644 3.64573L9.00001 12.8261V19C9.00001 19.3788 9.21402 19.725 9.5528 19.8944L13.5528 21.8944C13.8628 22.0494 14.2309 22.0329 14.5257 21.8507C14.8206 21.6684 15 21.3466 15 21V12.8261L22.7636 3.64573C23.015 3.34845 23.071 2.93229 22.9071 2.57912C22.7433 2.22596 22.3893 2 22 2H2.00001ZM10.7636 11.8143L4.15532 4H19.8447L13.2364 11.8143C13.0838 11.9948 13 12.2236 13 12.46V19.382L11 18.382V12.46C11 12.2236 10.9162 11.9948 10.7636 11.8143Z" fill="#222222"/>
</svg>
