<svg width="24" height="24" viewBox="0 0 24 24" fill="none" xmlns="http://www.w3.org/2000/svg">
<path d="M20.8401 4.60999L20.1328 5.31694L20.1332 5.31727L20.8401 4.60999ZM22.033 6.39464L22.9569 6.01185L22.033 6.39464ZM22.033 10.6053L22.9569 10.9881V10.9881L22.033 10.6053ZM20.8401 12.39L20.1332 11.6827L20.133 11.6829L20.8401 12.39ZM12.0001 21.23L11.293 21.9371C11.6835 22.3276 12.3167 22.3276 12.7072 21.9371L12.0001 21.23ZM4.22012 13.45L3.51301 14.1571L4.22012 13.45ZM3.16012 12.39L2.45301 13.0971H2.45301L3.16012 12.39ZM3.16012 4.60999L2.45301 3.90289H2.45301L3.16012 4.60999ZM10.9401 4.60999L10.233 5.3171L10.9401 4.60999ZM12.0001 5.66999L11.293 6.3771C11.6835 6.76763 12.3167 6.76763 12.7072 6.3771L12.0001 5.66999ZM13.0601 4.60999L13.7672 5.3171L13.7674 5.31694L13.0601 4.60999ZM21.5474 3.90305C20.9438 3.29915 20.2271 2.82009 19.4383 2.49324L18.6727 4.34091C19.2188 4.56719 19.715 4.89885 20.1328 5.31694L21.5474 3.90305ZM22.9569 6.01185C22.63 5.22303 22.151 4.50634 21.5471 3.90272L20.1332 5.31727C20.5513 5.73516 20.8829 6.23133 21.1092 6.77743L22.9569 6.01185ZM23.4519 8.49999C23.4519 7.64614 23.2837 6.80066 22.9569 6.01185L21.1092 6.77743C21.3355 7.32354 21.4519 7.90887 21.4519 8.49999H23.4519ZM22.9569 10.9881C23.2837 10.1993 23.4519 9.35385 23.4519 8.49999H21.4519C21.4519 9.09112 21.3355 9.67645 21.1092 10.2226L22.9569 10.9881ZM21.5471 13.0973C22.151 12.4936 22.63 11.777 22.9569 10.9881L21.1092 10.2226C20.8829 10.7687 20.5513 11.2648 20.1332 11.6827L21.5471 13.0973ZM20.4872 14.1571L21.5472 13.0971L20.133 11.6829L19.073 12.7429L20.4872 14.1571ZM12.7072 21.9371L20.4872 14.1571L19.073 12.7429L11.293 20.5229L12.7072 21.9371ZM3.51301 14.1571L11.293 21.9371L12.7072 20.5229L4.92723 12.7429L3.51301 14.1571ZM2.45301 13.0971L3.51301 14.1571L4.92723 12.7429L3.86723 11.6829L2.45301 13.0971ZM0.548828 8.49999C0.548828 10.2242 1.23378 11.8779 2.45301 13.0971L3.86723 11.6829C3.02307 10.8387 2.54883 9.69381 2.54883 8.49999H0.548828ZM2.45301 3.90289C1.23378 5.12212 0.548828 6.77574 0.548828 8.49999H2.54883C2.54883 7.30618 3.02307 6.16126 3.86723 5.3171L2.45301 3.90289ZM7.05012 1.9987C5.32587 1.9987 3.67224 2.68366 2.45301 3.90289L3.86723 5.3171C4.71138 4.47295 5.8563 3.9987 7.05012 3.9987V1.9987ZM11.6472 3.90289C10.428 2.68366 8.77437 1.9987 7.05012 1.9987V3.9987C8.24394 3.9987 9.38886 4.47295 10.233 5.3171L11.6472 3.90289ZM12.7072 4.96289L11.6472 3.90289L10.233 5.3171L11.293 6.3771L12.7072 4.96289ZM12.353 3.90289L11.293 4.96289L12.7072 6.3771L13.7672 5.3171L12.353 3.90289ZM14.462 2.49324C13.6732 2.82009 12.9565 3.29915 12.3528 3.90305L13.7674 5.31694C14.1853 4.89885 14.6815 4.56719 15.2276 4.34091L14.462 2.49324ZM16.9501 1.99817C16.0963 1.99817 15.2508 2.1664 14.462 2.49324L15.2276 4.34091C15.7737 4.11463 16.359 3.99817 16.9501 3.99817V1.99817ZM19.4383 2.49324C18.6495 2.1664 17.804 1.99817 16.9501 1.99817V3.99817C17.5412 3.99817 18.1266 4.11463 18.6727 4.34091L19.4383 2.49324Z" fill="#717171"/>
</svg>
