<svg width="24" height="24" viewBox="0 0 24 24" fill="none" xmlns="http://www.w3.org/2000/svg">
<path fill-rule="evenodd" clip-rule="evenodd" d="M2.0051 2.25002C1.68484 2.24784 1.39853 2.44926 1.29239 2.75143C1.18624 3.05359 1.28368 3.38982 1.53494 3.5884L9.96855 10.2541L11.3708 21.0962C11.4124 21.4177 11.6557 21.676 11.9741 21.7367C12.2925 21.7974 12.6139 21.6467 12.7708 21.3631L22.6562 3.49911C22.7843 3.26759 22.781 2.98569 22.6474 2.75729C22.5138 2.52889 22.2697 2.38779 22.0051 2.38599L2.0051 2.25002ZM12.5652 18.6367L11.4803 10.2483L20.0056 5.19109L12.5652 18.6367ZM4.17719 3.76482L19.2966 3.86761L10.7339 8.94703L4.17719 3.76482Z" fill="black"/>
</svg>
