<svg width="24" height="24" viewBox="0 0 24 24" fill="none" xmlns="http://www.w3.org/2000/svg">
<path fill-rule="evenodd" clip-rule="evenodd" d="M10.2017 3C9.61263 3 9.05347 3.25973 8.67346 3.7099L6.54545 6.23077L5.42857 6.23077C3.53502 6.23077 2 7.76579 2 9.65934V17.5714C2 19.465 3.53502 21 5.42857 21H18.5714C20.465 21 22 19.465 22 17.5714V9.65934C22 7.76579 20.465 6.23077 18.5714 6.23077L17.4545 6.23077L15.3265 3.7099C14.9465 3.25973 14.3874 3 13.7983 3H10.2017ZM12 9.07692C10.0562 9.07692 8.45455 10.6811 8.45455 12.6923C8.45455 14.7035 10.0562 16.3077 12 16.3077C13.9438 16.3077 15.5455 14.7035 15.5455 12.6923C15.5455 10.6811 13.9438 9.07692 12 9.07692ZM6.45455 12.6923C6.45455 9.60546 8.92299 7.07692 12 7.07692C15.077 7.07692 17.5455 9.60546 17.5455 12.6923C17.5455 15.7792 15.077 18.3077 12 18.3077C8.92299 18.3077 6.45455 15.7792 6.45455 12.6923Z" fill="black"/>
</svg>
