<svg width="24" height="24" viewBox="0 0 24 24" fill="none" xmlns="http://www.w3.org/2000/svg">
<path fill-rule="evenodd" clip-rule="evenodd" d="M2 11.5C2 6.262 6.486 2 12 2C17.514 2 22 6.262 22 11.5C22 16.738 17.514 21 12 21C11.02 21 10.0391 20.8571 9.08008 20.5781L5 22.6172V18.2715C3.088 16.4875 2 14.045 2 11.5ZM20 11.5C20 7.365 16.411 4 12 4C7.589 4 4 7.365 4 11.5C4 13.472 4.86128 15.4085 6.36328 16.8105L7 17.4023V18.2715V19.3828L8.18555 18.7891L8.88672 18.4395L9.63867 18.6582C10.4157 18.8842 11.211 19 12 19C16.411 19 20 15.635 20 11.5ZM6 14L11 9L13.5 11L18 9L13 14L10.5 12L6 14Z" fill="black"/>
</svg>
