<svg width="24" height="24" viewBox="0 0 24 24" fill="none" xmlns="http://www.w3.org/2000/svg">
<path fill-rule="evenodd" clip-rule="evenodd" d="M10.3223 4.87109L11.209 0.966797L12.041 1C12.041 1 12.9767 1.02577 13.9453 1.50781C14.9139 1.98986 16 3.12758 16 4.86328C16 5.98654 15.7175 7.12305 15.4355 8H20C21.0931 8 22 8.90694 22 10V12.4434C22 12.6752 21.9463 12.9123 21.8359 13.127L18.4199 19.9004C18.0812 20.5719 17.3884 21 16.6348 21H8C6.90694 21 6 20.0931 6 19V9.46289C6 8.87637 6.25919 8.31737 6.70703 7.9375L10.3223 4.87109ZM12.8727 3.24122C12.84 3.23665 12.8037 3.23159 12.748 3.21484L12.125 5.96289L8 9.46289V19H16.6348L20 12.3242V10H12.4922L13.0781 8.61133C13.0781 8.61133 14 6.25178 14 4.86328C14 3.85698 13.5861 3.56328 13.0547 3.29883C12.9647 3.25405 12.9229 3.24822 12.8727 3.24122ZM2 21V8H4V21H2Z" fill="white"/>
</svg>
