<svg width="24" height="24" viewBox="0 0 24 24" fill="none" xmlns="http://www.w3.org/2000/svg">
<path fill-rule="evenodd" clip-rule="evenodd" d="M19.1703 8.39931C19.4191 8.47084 19.6659 8.54861 19.9107 8.63261C22.3948 9.48775 24 10.8273 24 12.2124C24 13.6568 22.2845 15.0692 19.6478 15.9427C19.5082 15.9888 19.3656 16.0333 19.2201 16.0762C19.2723 16.2853 19.3183 16.4902 19.358 16.691C19.8785 19.3204 19.4777 21.4815 18.244 22.1956C17.0495 22.8871 15.1189 22.2078 13.1642 20.5258C12.9516 20.3424 12.7444 20.1533 12.5424 19.9585C12.382 20.114 12.222 20.2614 12.0625 20.4009C10.0444 22.1649 7.97198 22.8967 6.73717 22.1847C5.54165 21.4951 5.16594 19.4834 5.647 16.9499C5.69959 16.6745 5.75982 16.4008 5.82768 16.1288C5.61873 16.0691 5.41142 16.0043 5.20575 15.9343C2.66935 15.0675 1 13.6378 1 12.2123C1 10.8323 2.55514 9.50169 4.99017 8.65276C5.26236 8.55789 5.54686 8.46872 5.84144 8.38505C5.77831 8.13252 5.72164 7.87859 5.67144 7.62326C5.16686 5.04493 5.52191 2.9844 6.72058 2.2905C7.97066 1.56688 10.0526 2.34394 12.1296 4.18813C12.2588 4.30312 12.3858 4.42045 12.5107 4.54013C12.6972 4.3601 12.8881 4.18492 13.0834 4.01459C15.0652 2.28997 17.0275 1.56845 18.2273 2.26045C19.4787 2.98194 19.8451 5.17367 19.2847 7.89431C19.2497 8.06337 19.2115 8.2317 19.1703 8.39931ZM17.7366 3.11164C17.0135 2.69461 15.4265 3.27804 13.7284 4.75585C13.5481 4.9132 13.3718 5.07491 13.1995 5.24098C13.9014 6.00518 14.5509 6.81584 15.1437 7.66745C16.1784 7.76134 17.2057 7.92365 18.219 8.15329C18.2562 8.00148 18.2907 7.84907 18.3224 7.69605C18.8063 5.34704 18.5067 3.55585 17.7366 3.11164ZM8.44318 14.5814C8.21647 14.1898 7.99911 13.793 7.79111 13.3913C7.49887 14.0845 7.24867 14.766 7.04561 15.4218C7.74587 15.5716 8.45336 15.6853 9.16528 15.7626C8.91516 15.3745 8.67446 14.9808 8.44318 14.5814ZM7.05915 9.09026C7.25907 9.73459 7.50387 10.4018 7.79 11.0804C7.99717 10.6788 8.21358 10.2824 8.43921 9.89103C8.6652 9.49918 8.90024 9.11292 9.14431 8.73226C8.41515 8.82337 7.71539 8.94338 7.05915 9.09026ZM9.29058 10.3818C8.94112 10.9878 8.61502 11.6059 8.31228 12.236H8.31227C8.61602 12.8663 8.9431 13.4841 9.29353 14.0891C9.64587 14.6979 10.0206 15.2922 10.4176 15.8722C11.0881 15.9157 11.7843 15.9379 12.5 15.9379C13.2186 15.9379 13.9238 15.9128 14.6062 15.864C14.9934 15.2824 15.3612 14.689 15.7096 14.0837H15.7097C16.0614 13.4747 16.3908 12.8541 16.698 12.222C16.3874 11.5959 16.0569 10.9808 15.7065 10.3766C15.3578 9.77354 14.9884 9.18374 14.5983 8.60716C13.9145 8.55504 13.2122 8.52776 12.5001 8.52776C11.7912 8.52776 11.0898 8.55484 10.4058 8.60655C10.0114 9.18445 9.63971 9.77625 9.29058 10.382V10.3818ZM17.2278 13.356C17.0145 13.7672 16.7921 14.1734 16.5608 14.5746H16.5608C16.3332 14.9694 16.0978 15.3596 15.8547 15.745C16.5757 15.6605 17.2919 15.5384 18.0002 15.3792C17.7779 14.6919 17.5201 14.0166 17.2278 13.356ZM16.5569 9.88432C16.7854 10.2789 17.0059 10.6778 17.2185 11.0812C17.497 10.4338 17.7427 9.77277 17.9546 9.10064C17.2945 8.94989 16.5913 8.82673 15.8574 8.7341C16.0989 9.11252 16.332 9.49593 16.5569 9.88432ZM13.8645 7.57756C13.4411 7.01047 12.9894 6.46513 12.511 5.94363C12.0507 6.44026 11.593 6.98769 11.1461 7.57695C12.0527 7.53456 12.9589 7.53476 13.8645 7.57756ZM11.4771 4.92285C9.68379 3.33058 7.98237 2.69542 7.21284 3.14085C6.49044 3.55904 6.20339 5.2254 6.6357 7.43456V7.43446C6.68242 7.67204 6.73511 7.90826 6.79378 8.14312C7.80546 7.91804 8.83066 7.7587 9.86294 7.66612C10.4617 6.8155 11.1163 6.0055 11.8222 5.24145C11.7069 5.13121 11.5917 5.02464 11.4771 4.92285ZM5.52354 15.0046C5.71139 15.0685 5.90065 15.1278 6.09132 15.1824C6.40436 14.1764 6.78351 13.1922 7.2263 12.2363C6.789 11.2938 6.41452 10.3234 6.1053 9.33149C5.83894 9.40681 5.57507 9.48983 5.31368 9.58057C3.23116 10.3066 1.98251 11.3749 1.98251 12.2123C2.02453 12.4868 2.12239 12.7498 2.27005 12.9849C2.41771 13.2201 2.61203 13.4225 2.841 13.5796C3.6402 14.2151 4.54952 14.6982 5.52354 15.0046ZM8.84127 21.2729C9.79112 20.8981 10.6639 20.3517 11.4159 19.661C11.5653 19.5301 11.7114 19.3956 11.8542 19.2575C11.1434 18.4886 10.4839 17.6737 9.87988 16.8183C8.83775 16.739 7.80221 16.5891 6.78038 16.3696C6.71729 16.6226 6.66129 16.8771 6.61238 17.1332C6.20105 19.2998 6.50255 20.9152 7.22811 21.3335C7.48684 21.4343 7.76348 21.4808 8.04093 21.4704C8.31837 21.46 8.59073 21.3927 8.84117 21.2729H8.84127ZM11.1543 16.8944C11.608 17.4922 12.0725 18.048 12.5382 18.5505V18.5505C13.0163 18.0203 13.467 17.4659 13.8884 16.8896C13.4316 16.9102 12.9688 16.9204 12.5 16.9204C12.0432 16.9204 11.5947 16.9117 11.1543 16.8944ZM18.2762 20.7095C18.4057 20.4639 18.4835 20.1943 18.5047 19.9175V19.9175C18.6544 18.9075 18.617 17.8785 18.3942 16.882C18.358 16.7004 18.3165 16.5149 18.2697 16.3256C17.2436 16.5569 16.2028 16.7173 15.1546 16.8057C14.5678 17.6642 13.9237 18.4821 13.2267 19.2537C13.4206 19.4403 13.6134 19.6161 13.8051 19.781C15.4767 21.2195 17.0268 21.7649 17.7517 21.3453C17.9681 21.1714 18.1467 20.955 18.2762 20.7095ZM19.3389 15.0101C21.6154 14.2558 23.0175 13.1015 23.0175 12.2123C23.0175 11.3776 21.7193 10.2943 19.5909 9.56172C19.3708 9.48593 19.1424 9.41413 18.9072 9.34593C18.5985 10.3269 18.2245 11.2862 17.7878 12.2172C18.2417 13.1609 18.6308 14.1344 18.9525 15.1309C19.084 15.092 19.213 15.0517 19.3388 15.0101H19.3389V15.0101ZM13.6411 10.5046C13.3033 10.2789 12.9062 10.1585 12.5 10.1585C11.9553 10.1585 11.4329 10.3749 11.0477 10.7601C10.6626 11.1452 10.4462 11.6676 10.4462 12.2123C10.4462 12.6185 10.5666 13.0156 10.7923 13.3534C11.018 13.6912 11.3388 13.9544 11.714 14.1099C12.0893 14.2653 12.5023 14.306 12.9007 14.2268C13.2991 14.1475 13.6651 13.9519 13.9523 13.6647C14.2396 13.3774 14.4352 13.0115 14.5144 12.613C14.5937 12.2146 14.553 11.8017 14.3976 11.4264C14.2421 11.0511 13.9788 10.7303 13.6411 10.5046Z" fill="black"/>
</svg>
